<svg width="1363" height="297" viewBox="0 0 1363 297" fill="none" xmlns="http://www.w3.org/2000/svg">
<path d="M0 15C0 6.71573 6.71573 0 15 0H37V297H15C6.71573 297 0 290.284 0 282V15Z" fill="#914B9D"/>
<path d="M37 0H1363V297H37V0Z" fill="#F0F0F0"/>
<path d="M105.691 53.7832L98.7305 75H93.123L102.633 49.4062H106.201L105.691 53.7832ZM111.475 75L104.496 53.7832L103.934 49.4062H107.537L117.1 75H111.475ZM111.158 65.4727V69.6035H97.6406V65.4727H111.158ZM124.5 48V75H119.42V48H124.5ZM134.027 55.9805V75H128.947V55.9805H134.027ZM128.631 51.0234C128.631 50.2852 128.889 49.6758 129.404 49.1953C129.92 48.7148 130.611 48.4746 131.479 48.4746C132.334 48.4746 133.02 48.7148 133.535 49.1953C134.062 49.6758 134.326 50.2852 134.326 51.0234C134.326 51.7617 134.062 52.3711 133.535 52.8516C133.02 53.332 132.334 53.5723 131.479 53.5723C130.611 53.5723 129.92 53.332 129.404 52.8516C128.889 52.3711 128.631 51.7617 128.631 51.0234ZM168.516 61.6055V62.8184C168.516 64.7637 168.252 66.5098 167.725 68.0566C167.197 69.6035 166.453 70.9219 165.492 72.0117C164.531 73.0898 163.383 73.916 162.047 74.4902C160.723 75.0645 159.252 75.3516 157.635 75.3516C156.029 75.3516 154.559 75.0645 153.223 74.4902C151.898 73.916 150.75 73.0898 149.777 72.0117C148.805 70.9219 148.049 69.6035 147.51 68.0566C146.982 66.5098 146.719 64.7637 146.719 62.8184V61.6055C146.719 59.6484 146.982 57.9023 147.51 56.3672C148.037 54.8203 148.781 53.502 149.742 52.4121C150.715 51.3223 151.863 50.4902 153.188 49.916C154.523 49.3418 155.994 49.0547 157.6 49.0547C159.217 49.0547 160.688 49.3418 162.012 49.916C163.348 50.4902 164.496 51.3223 165.457 52.4121C166.43 53.502 167.18 54.8203 167.707 56.3672C168.246 57.9023 168.516 59.6484 168.516 61.6055ZM163.189 62.8184V61.5703C163.189 60.2109 163.066 59.0156 162.82 57.9844C162.574 56.9531 162.211 56.0859 161.73 55.3828C161.25 54.6797 160.664 54.1523 159.973 53.8008C159.281 53.4375 158.49 53.2559 157.6 53.2559C156.709 53.2559 155.918 53.4375 155.227 53.8008C154.547 54.1523 153.967 54.6797 153.486 55.3828C153.018 56.0859 152.66 56.9531 152.414 57.9844C152.168 59.0156 152.045 60.2109 152.045 61.5703V62.8184C152.045 64.166 152.168 65.3613 152.414 66.4043C152.66 67.4355 153.023 68.3086 153.504 69.0234C153.984 69.7266 154.57 70.2598 155.262 70.623C155.953 70.9863 156.744 71.168 157.635 71.168C158.525 71.168 159.316 70.9863 160.008 70.623C160.699 70.2598 161.279 69.7266 161.748 69.0234C162.217 68.3086 162.574 67.4355 162.82 66.4043C163.066 65.3613 163.189 64.166 163.189 62.8184ZM182.279 69.7441C182.279 69.3809 182.174 69.0527 181.963 68.7598C181.752 68.4668 181.359 68.1973 180.785 67.9512C180.223 67.6934 179.408 67.459 178.342 67.248C177.381 67.0371 176.484 66.7734 175.652 66.457C174.832 66.1289 174.117 65.7363 173.508 65.2793C172.91 64.8223 172.441 64.2832 172.102 63.6621C171.762 63.0293 171.592 62.3086 171.592 61.5C171.592 60.7031 171.762 59.9531 172.102 59.25C172.453 58.5469 172.951 57.9258 173.596 57.3867C174.252 56.8359 175.049 56.4082 175.986 56.1035C176.936 55.7871 178.002 55.6289 179.186 55.6289C180.838 55.6289 182.256 55.8926 183.439 56.4199C184.635 56.9473 185.549 57.6738 186.182 58.5996C186.826 59.5137 187.148 60.5566 187.148 61.7285H182.086C182.086 61.2363 181.98 60.7969 181.77 60.4102C181.57 60.0117 181.254 59.7012 180.82 59.4785C180.398 59.2441 179.848 59.127 179.168 59.127C178.605 59.127 178.119 59.2266 177.709 59.4258C177.299 59.6133 176.982 59.8711 176.76 60.1992C176.549 60.5156 176.443 60.8672 176.443 61.2539C176.443 61.5469 176.502 61.8105 176.619 62.0449C176.748 62.2676 176.953 62.4727 177.234 62.6602C177.516 62.8477 177.879 63.0234 178.324 63.1875C178.781 63.3398 179.344 63.4805 180.012 63.6094C181.383 63.8906 182.607 64.2598 183.686 64.7168C184.764 65.1621 185.619 65.7715 186.252 66.5449C186.885 67.3066 187.201 68.3086 187.201 69.5508C187.201 70.3945 187.014 71.168 186.639 71.8711C186.264 72.5742 185.725 73.1895 185.021 73.7168C184.318 74.2324 183.475 74.6367 182.49 74.9297C181.518 75.2109 180.422 75.3516 179.203 75.3516C177.434 75.3516 175.934 75.0352 174.703 74.4023C173.484 73.7695 172.559 72.9668 171.926 71.9941C171.305 71.0098 170.994 70.002 170.994 68.9707H175.793C175.816 69.6621 175.992 70.2188 176.32 70.6406C176.66 71.0625 177.088 71.3672 177.604 71.5547C178.131 71.7422 178.699 71.8359 179.309 71.8359C179.965 71.8359 180.51 71.748 180.943 71.5723C181.377 71.3848 181.705 71.1387 181.928 70.834C182.162 70.5176 182.279 70.1543 182.279 69.7441ZM200.771 69.7441C200.771 69.3809 200.666 69.0527 200.455 68.7598C200.244 68.4668 199.852 68.1973 199.277 67.9512C198.715 67.6934 197.9 67.459 196.834 67.248C195.873 67.0371 194.977 66.7734 194.145 66.457C193.324 66.1289 192.609 65.7363 192 65.2793C191.402 64.8223 190.934 64.2832 190.594 63.6621C190.254 63.0293 190.084 62.3086 190.084 61.5C190.084 60.7031 190.254 59.9531 190.594 59.25C190.945 58.5469 191.443 57.9258 192.088 57.3867C192.744 56.8359 193.541 56.4082 194.479 56.1035C195.428 55.7871 196.494 55.6289 197.678 55.6289C199.33 55.6289 200.748 55.8926 201.932 56.4199C203.127 56.9473 204.041 57.6738 204.674 58.5996C205.318 59.5137 205.641 60.5566 205.641 61.7285H200.578C200.578 61.2363 200.473 60.7969 200.262 60.4102C200.062 60.0117 199.746 59.7012 199.312 59.4785C198.891 59.2441 198.34 59.127 197.66 59.127C197.098 59.127 196.611 59.2266 196.201 59.4258C195.791 59.6133 195.475 59.8711 195.252 60.1992C195.041 60.5156 194.936 60.8672 194.936 61.2539C194.936 61.5469 194.994 61.8105 195.111 62.0449C195.24 62.2676 195.445 62.4727 195.727 62.6602C196.008 62.8477 196.371 63.0234 196.816 63.1875C197.273 63.3398 197.836 63.4805 198.504 63.6094C199.875 63.8906 201.1 64.2598 202.178 64.7168C203.256 65.1621 204.111 65.7715 204.744 66.5449C205.377 67.3066 205.693 68.3086 205.693 69.5508C205.693 70.3945 205.506 71.168 205.131 71.8711C204.756 72.5742 204.217 73.1895 203.514 73.7168C202.811 74.2324 201.967 74.6367 200.982 74.9297C200.01 75.2109 198.914 75.3516 197.695 75.3516C195.926 75.3516 194.426 75.0352 193.195 74.4023C191.977 73.7695 191.051 72.9668 190.418 71.9941C189.797 71.0098 189.486 70.002 189.486 68.9707H194.285C194.309 69.6621 194.484 70.2188 194.812 70.6406C195.152 71.0625 195.58 71.3672 196.096 71.5547C196.623 71.7422 197.191 71.8359 197.801 71.8359C198.457 71.8359 199.002 71.748 199.436 71.5723C199.869 71.3848 200.197 71.1387 200.42 70.834C200.654 70.5176 200.771 70.1543 200.771 69.7441ZM217.734 75.3516C216.258 75.3516 214.934 75.1172 213.762 74.6484C212.59 74.168 211.594 73.5059 210.773 72.6621C209.965 71.8184 209.344 70.8398 208.91 69.7266C208.477 68.6016 208.26 67.4062 208.26 66.1406V65.4375C208.26 63.9961 208.465 62.6777 208.875 61.4824C209.285 60.2871 209.871 59.25 210.633 58.3711C211.406 57.4922 212.344 56.8184 213.445 56.3496C214.547 55.8691 215.789 55.6289 217.172 55.6289C218.52 55.6289 219.715 55.8516 220.758 56.2969C221.801 56.7422 222.674 57.375 223.377 58.1953C224.092 59.0156 224.631 60 224.994 61.1484C225.357 62.2852 225.539 63.5508 225.539 64.9453V67.0547H210.422V63.6797H220.564V63.293C220.564 62.5898 220.436 61.9629 220.178 61.4121C219.932 60.8496 219.557 60.4043 219.053 60.0762C218.549 59.748 217.904 59.584 217.119 59.584C216.451 59.584 215.877 59.7305 215.396 60.0234C214.916 60.3164 214.523 60.7266 214.219 61.2539C213.926 61.7812 213.703 62.4023 213.551 63.1172C213.41 63.8203 213.34 64.5938 213.34 65.4375V66.1406C213.34 66.9023 213.445 67.6055 213.656 68.25C213.879 68.8945 214.189 69.4512 214.588 69.9199C214.998 70.3887 215.49 70.752 216.064 71.0098C216.65 71.2676 217.312 71.3965 218.051 71.3965C218.965 71.3965 219.814 71.2207 220.6 70.8691C221.396 70.5059 222.082 69.9609 222.656 69.2344L225.117 71.9062C224.719 72.4805 224.174 73.0312 223.482 73.5586C222.803 74.0859 221.982 74.5195 221.021 74.8594C220.061 75.1875 218.965 75.3516 217.734 75.3516ZM233.766 55.9805V75H228.686V55.9805H233.766ZM228.369 51.0234C228.369 50.2852 228.627 49.6758 229.143 49.1953C229.658 48.7148 230.35 48.4746 231.217 48.4746C232.072 48.4746 232.758 48.7148 233.273 49.1953C233.801 49.6758 234.064 50.2852 234.064 51.0234C234.064 51.7617 233.801 52.3711 233.273 52.8516C232.758 53.332 232.072 53.5723 231.217 53.5723C230.35 53.5723 229.658 53.332 229.143 52.8516C228.627 52.3711 228.369 51.7617 228.369 51.0234ZM243.293 48V75H238.213V48H243.293ZM252.82 55.9805V75H247.74V55.9805H252.82ZM247.424 51.0234C247.424 50.2852 247.682 49.6758 248.197 49.1953C248.713 48.7148 249.404 48.4746 250.271 48.4746C251.127 48.4746 251.812 48.7148 252.328 49.1953C252.855 49.6758 253.119 50.2852 253.119 51.0234C253.119 51.7617 252.855 52.3711 252.328 52.8516C251.812 53.332 251.127 53.5723 250.271 53.5723C249.404 53.5723 248.713 53.332 248.197 52.8516C247.682 52.3711 247.424 51.7617 247.424 51.0234Z" fill="#888888"/>
<path d="M116.543 129.418C116.543 128.798 116.452 128.242 116.27 127.75C116.087 127.24 115.75 126.766 115.258 126.328C114.766 125.891 114.055 125.453 113.125 125.016C112.214 124.56 111.01 124.086 109.516 123.594C107.766 123.01 106.079 122.354 104.457 121.625C102.835 120.878 101.385 120.012 100.109 119.027C98.8333 118.025 97.8216 116.858 97.0742 115.527C96.3268 114.178 95.9531 112.611 95.9531 110.824C95.9531 109.111 96.3359 107.57 97.1016 106.203C97.8672 104.818 98.9336 103.642 100.301 102.676C101.686 101.691 103.309 100.944 105.168 100.434C107.027 99.9049 109.06 99.6406 111.266 99.6406C114.182 99.6406 116.753 100.151 118.977 101.172C121.219 102.174 122.969 103.605 124.227 105.465C125.503 107.306 126.141 109.484 126.141 112H116.598C116.598 110.997 116.388 110.113 115.969 109.348C115.568 108.582 114.957 107.98 114.137 107.543C113.316 107.105 112.286 106.887 111.047 106.887C109.844 106.887 108.832 107.069 108.012 107.434C107.191 107.798 106.572 108.29 106.152 108.91C105.733 109.512 105.523 110.177 105.523 110.906C105.523 111.508 105.688 112.055 106.016 112.547C106.362 113.021 106.845 113.467 107.465 113.887C108.103 114.306 108.868 114.707 109.762 115.09C110.673 115.473 111.694 115.846 112.824 116.211C114.939 116.885 116.816 117.642 118.457 118.48C120.116 119.301 121.51 120.24 122.641 121.297C123.789 122.336 124.655 123.521 125.238 124.852C125.84 126.182 126.141 127.686 126.141 129.363C126.141 131.15 125.794 132.736 125.102 134.121C124.409 135.507 123.415 136.682 122.121 137.648C120.827 138.596 119.277 139.316 117.473 139.809C115.668 140.301 113.654 140.547 111.43 140.547C109.388 140.547 107.374 140.292 105.387 139.781C103.418 139.253 101.632 138.451 100.027 137.375C98.4232 136.281 97.138 134.887 96.1719 133.191C95.224 131.478 94.75 129.445 94.75 127.094H104.375C104.375 128.26 104.53 129.245 104.84 130.047C105.15 130.849 105.605 131.496 106.207 131.988C106.809 132.462 107.547 132.809 108.422 133.027C109.297 133.228 110.299 133.328 111.43 133.328C112.651 133.328 113.635 133.155 114.383 132.809C115.13 132.444 115.677 131.97 116.023 131.387C116.37 130.785 116.543 130.129 116.543 129.418ZM139.949 116.102V151.375H130.734V110.414H139.32L139.949 116.102ZM158.105 124.852V125.426C158.105 127.577 157.859 129.573 157.367 131.414C156.875 133.255 156.146 134.859 155.18 136.227C154.214 137.594 153.01 138.66 151.57 139.426C150.148 140.173 148.499 140.547 146.621 140.547C144.853 140.547 143.331 140.155 142.055 139.371C140.779 138.587 139.712 137.503 138.855 136.117C137.999 134.732 137.306 133.146 136.777 131.359C136.249 129.573 135.829 127.686 135.52 125.699V124.961C135.829 122.828 136.249 120.85 136.777 119.027C137.306 117.186 137.999 115.582 138.855 114.215C139.712 112.848 140.77 111.781 142.027 111.016C143.303 110.25 144.826 109.867 146.594 109.867C148.471 109.867 150.121 110.223 151.543 110.934C152.983 111.645 154.186 112.665 155.152 113.996C156.137 115.309 156.875 116.885 157.367 118.727C157.859 120.568 158.105 122.609 158.105 124.852ZM148.891 125.426V124.852C148.891 123.703 148.809 122.655 148.645 121.707C148.48 120.741 148.216 119.902 147.852 119.191C147.505 118.48 147.04 117.934 146.457 117.551C145.874 117.168 145.154 116.977 144.297 116.977C143.312 116.977 142.483 117.132 141.809 117.441C141.152 117.733 140.624 118.189 140.223 118.809C139.84 119.41 139.566 120.167 139.402 121.078C139.257 121.971 139.193 123.02 139.211 124.223V126.465C139.174 127.85 139.311 129.072 139.621 130.129C139.931 131.168 140.469 131.979 141.234 132.562C142 133.146 143.039 133.438 144.352 133.438C145.227 133.438 145.956 133.237 146.539 132.836C147.122 132.417 147.587 131.842 147.934 131.113C148.28 130.366 148.526 129.509 148.672 128.543C148.818 127.577 148.891 126.538 148.891 125.426ZM177.574 132.562V120.367C177.574 119.529 177.456 118.809 177.219 118.207C176.982 117.605 176.608 117.141 176.098 116.812C175.587 116.466 174.904 116.293 174.047 116.293C173.354 116.293 172.762 116.411 172.27 116.648C171.777 116.885 171.404 117.241 171.148 117.715C170.893 118.189 170.766 118.79 170.766 119.52H161.551C161.551 118.152 161.852 116.885 162.453 115.719C163.073 114.534 163.948 113.504 165.078 112.629C166.227 111.754 167.594 111.079 169.18 110.605C170.784 110.113 172.57 109.867 174.539 109.867C176.891 109.867 178.987 110.259 180.828 111.043C182.688 111.827 184.155 113.003 185.23 114.57C186.306 116.12 186.844 118.07 186.844 120.422V132.535C186.844 134.467 186.953 135.935 187.172 136.938C187.391 137.922 187.701 138.788 188.102 139.535V140H178.859C178.422 139.089 178.094 137.977 177.875 136.664C177.674 135.333 177.574 133.966 177.574 132.562ZM178.695 121.926L178.75 126.848H174.676C173.819 126.848 173.09 126.966 172.488 127.203C171.905 127.44 171.431 127.768 171.066 128.188C170.72 128.589 170.465 129.044 170.301 129.555C170.155 130.065 170.082 130.603 170.082 131.168C170.082 131.715 170.21 132.207 170.465 132.645C170.738 133.064 171.103 133.392 171.559 133.629C172.014 133.866 172.525 133.984 173.09 133.984C174.111 133.984 174.977 133.793 175.688 133.41C176.417 133.009 176.973 132.526 177.355 131.961C177.738 131.396 177.93 130.867 177.93 130.375L179.953 134.148C179.589 134.878 179.169 135.616 178.695 136.363C178.24 137.111 177.665 137.803 176.973 138.441C176.298 139.061 175.469 139.572 174.484 139.973C173.5 140.355 172.306 140.547 170.902 140.547C169.079 140.547 167.402 140.173 165.871 139.426C164.358 138.678 163.146 137.639 162.234 136.309C161.323 134.96 160.867 133.41 160.867 131.66C160.867 130.129 161.141 128.762 161.688 127.559C162.253 126.355 163.1 125.335 164.23 124.496C165.361 123.658 166.801 123.02 168.551 122.582C170.301 122.145 172.361 121.926 174.73 121.926H178.695ZM204.453 133.438C205.31 133.438 206.039 133.283 206.641 132.973C207.26 132.645 207.725 132.189 208.035 131.605C208.363 131.004 208.518 130.284 208.5 129.445H217.168C217.186 131.669 216.639 133.62 215.527 135.297C214.434 136.956 212.939 138.25 211.043 139.18C209.165 140.091 207.042 140.547 204.672 140.547C202.357 140.547 200.333 140.173 198.602 139.426C196.87 138.66 195.421 137.603 194.254 136.254C193.105 134.887 192.24 133.292 191.656 131.469C191.091 129.646 190.809 127.668 190.809 125.535V124.906C190.809 122.773 191.091 120.796 191.656 118.973C192.24 117.132 193.105 115.536 194.254 114.188C195.421 112.82 196.861 111.763 198.574 111.016C200.306 110.25 202.32 109.867 204.617 109.867C207.078 109.867 209.247 110.332 211.125 111.262C213.021 112.191 214.507 113.54 215.582 115.309C216.658 117.077 217.186 119.219 217.168 121.734H208.5C208.518 120.841 208.382 120.039 208.09 119.328C207.798 118.617 207.342 118.052 206.723 117.633C206.121 117.195 205.346 116.977 204.398 116.977C203.451 116.977 202.685 117.186 202.102 117.605C201.518 118.025 201.072 118.608 200.762 119.355C200.47 120.085 200.27 120.923 200.16 121.871C200.069 122.819 200.023 123.831 200.023 124.906V125.535C200.023 126.629 200.069 127.659 200.16 128.625C200.27 129.573 200.479 130.411 200.789 131.141C201.099 131.852 201.546 132.417 202.129 132.836C202.712 133.237 203.487 133.438 204.453 133.438ZM235.434 140.547C233.027 140.547 230.876 140.173 228.98 139.426C227.085 138.66 225.48 137.612 224.168 136.281C222.874 134.951 221.88 133.419 221.188 131.688C220.513 129.956 220.176 128.124 220.176 126.191V125.152C220.176 122.983 220.477 120.978 221.078 119.137C221.68 117.277 222.573 115.655 223.758 114.27C224.943 112.884 226.428 111.809 228.215 111.043C230.001 110.259 232.079 109.867 234.449 109.867C236.546 109.867 238.423 110.204 240.082 110.879C241.741 111.553 243.145 112.52 244.293 113.777C245.46 115.035 246.344 116.557 246.945 118.344C247.565 120.13 247.875 122.135 247.875 124.359V128.105H223.703V122.336H238.879V121.625C238.897 120.641 238.724 119.802 238.359 119.109C238.013 118.417 237.503 117.888 236.828 117.523C236.154 117.159 235.333 116.977 234.367 116.977C233.365 116.977 232.535 117.195 231.879 117.633C231.241 118.07 230.74 118.672 230.375 119.438C230.029 120.185 229.783 121.051 229.637 122.035C229.491 123.02 229.418 124.059 229.418 125.152V126.191C229.418 127.285 229.564 128.279 229.855 129.172C230.165 130.065 230.603 130.831 231.168 131.469C231.751 132.089 232.444 132.572 233.246 132.918C234.066 133.264 234.996 133.438 236.035 133.438C237.293 133.438 238.533 133.201 239.754 132.727C240.975 132.253 242.023 131.469 242.898 130.375L247.082 135.352C246.48 136.208 245.624 137.038 244.512 137.84C243.418 138.642 242.105 139.298 240.574 139.809C239.043 140.301 237.329 140.547 235.434 140.547ZM270.762 100.188H278.582L287.469 127.887L296.355 100.188H304.176L290.641 140H284.297L270.762 100.188ZM266.004 100.188H274.098L275.602 130.703V140H266.004V100.188ZM300.84 100.188H308.961V140H299.336V130.703L300.84 100.188ZM324.41 110.414V140H315.168V110.414H324.41ZM314.621 102.785C314.621 101.473 315.095 100.397 316.043 99.5586C316.991 98.7201 318.221 98.3008 319.734 98.3008C321.247 98.3008 322.478 98.7201 323.426 99.5586C324.374 100.397 324.848 101.473 324.848 102.785C324.848 104.098 324.374 105.173 323.426 106.012C322.478 106.85 321.247 107.27 319.734 107.27C318.221 107.27 316.991 106.85 316.043 106.012C315.095 105.173 314.621 104.098 314.621 102.785ZM345.602 131.688C345.602 131.177 345.428 130.74 345.082 130.375C344.754 129.992 344.171 129.646 343.332 129.336C342.493 129.008 341.318 128.68 339.805 128.352C338.365 128.042 337.007 127.632 335.73 127.121C334.473 126.611 333.37 125.991 332.422 125.262C331.474 124.533 330.727 123.667 330.18 122.664C329.651 121.661 329.387 120.513 329.387 119.219C329.387 117.961 329.651 116.776 330.18 115.664C330.727 114.534 331.52 113.54 332.559 112.684C333.616 111.809 334.901 111.125 336.414 110.633C337.927 110.122 339.65 109.867 341.582 109.867C344.243 109.867 346.54 110.277 348.473 111.098C350.405 111.9 351.891 113.03 352.93 114.488C353.987 115.928 354.516 117.596 354.516 119.492H345.301C345.301 118.745 345.173 118.107 344.918 117.578C344.681 117.049 344.289 116.648 343.742 116.375C343.195 116.083 342.466 115.938 341.555 115.938C340.917 115.938 340.333 116.056 339.805 116.293C339.294 116.53 338.884 116.858 338.574 117.277C338.264 117.697 338.109 118.189 338.109 118.754C338.109 119.155 338.201 119.52 338.383 119.848C338.583 120.158 338.884 120.449 339.285 120.723C339.686 120.978 340.197 121.215 340.816 121.434C341.436 121.634 342.184 121.816 343.059 121.98C345.046 122.345 346.905 122.865 348.637 123.539C350.368 124.214 351.772 125.171 352.848 126.41C353.941 127.65 354.488 129.318 354.488 131.414C354.488 132.727 354.188 133.939 353.586 135.051C352.984 136.145 352.118 137.111 350.988 137.949C349.858 138.77 348.5 139.408 346.914 139.863C345.328 140.319 343.542 140.547 341.555 140.547C338.729 140.547 336.341 140.046 334.391 139.043C332.44 138.022 330.964 136.746 329.961 135.215C328.977 133.665 328.484 132.098 328.484 130.512H337.07C337.107 131.423 337.326 132.171 337.727 132.754C338.146 133.337 338.702 133.766 339.395 134.039C340.087 134.312 340.889 134.449 341.801 134.449C342.639 134.449 343.332 134.331 343.879 134.094C344.444 133.857 344.872 133.538 345.164 133.137C345.456 132.717 345.602 132.234 345.602 131.688ZM374.312 131.688C374.312 131.177 374.139 130.74 373.793 130.375C373.465 129.992 372.882 129.646 372.043 129.336C371.204 129.008 370.029 128.68 368.516 128.352C367.076 128.042 365.717 127.632 364.441 127.121C363.184 126.611 362.081 125.991 361.133 125.262C360.185 124.533 359.438 123.667 358.891 122.664C358.362 121.661 358.098 120.513 358.098 119.219C358.098 117.961 358.362 116.776 358.891 115.664C359.438 114.534 360.23 113.54 361.27 112.684C362.327 111.809 363.612 111.125 365.125 110.633C366.638 110.122 368.361 109.867 370.293 109.867C372.954 109.867 375.251 110.277 377.184 111.098C379.116 111.9 380.602 113.03 381.641 114.488C382.698 115.928 383.227 117.596 383.227 119.492H374.012C374.012 118.745 373.884 118.107 373.629 117.578C373.392 117.049 373 116.648 372.453 116.375C371.906 116.083 371.177 115.938 370.266 115.938C369.628 115.938 369.044 116.056 368.516 116.293C368.005 116.53 367.595 116.858 367.285 117.277C366.975 117.697 366.82 118.189 366.82 118.754C366.82 119.155 366.911 119.52 367.094 119.848C367.294 120.158 367.595 120.449 367.996 120.723C368.397 120.978 368.908 121.215 369.527 121.434C370.147 121.634 370.895 121.816 371.77 121.98C373.757 122.345 375.616 122.865 377.348 123.539C379.079 124.214 380.483 125.171 381.559 126.41C382.652 127.65 383.199 129.318 383.199 131.414C383.199 132.727 382.898 133.939 382.297 135.051C381.695 136.145 380.829 137.111 379.699 137.949C378.569 138.77 377.211 139.408 375.625 139.863C374.039 140.319 372.253 140.547 370.266 140.547C367.44 140.547 365.052 140.046 363.102 139.043C361.151 138.022 359.674 136.746 358.672 135.215C357.688 133.665 357.195 132.098 357.195 130.512H365.781C365.818 131.423 366.036 132.171 366.438 132.754C366.857 133.337 367.413 133.766 368.105 134.039C368.798 134.312 369.6 134.449 370.512 134.449C371.35 134.449 372.043 134.331 372.59 134.094C373.155 133.857 373.583 133.538 373.875 133.137C374.167 132.717 374.312 132.234 374.312 131.688ZM397.254 110.414V140H388.012V110.414H397.254ZM387.465 102.785C387.465 101.473 387.939 100.397 388.887 99.5586C389.835 98.7201 391.065 98.3008 392.578 98.3008C394.091 98.3008 395.322 98.7201 396.27 99.5586C397.217 100.397 397.691 101.473 397.691 102.785C397.691 104.098 397.217 105.173 396.27 106.012C395.322 106.85 394.091 107.27 392.578 107.27C391.065 107.27 389.835 106.85 388.887 106.012C387.939 105.173 387.465 104.098 387.465 102.785ZM401.793 125.508V124.934C401.793 122.764 402.103 120.768 402.723 118.945C403.342 117.104 404.254 115.509 405.457 114.16C406.66 112.811 408.146 111.763 409.914 111.016C411.682 110.25 413.724 109.867 416.039 109.867C418.372 109.867 420.423 110.25 422.191 111.016C423.978 111.763 425.473 112.811 426.676 114.16C427.879 115.509 428.79 117.104 429.41 118.945C430.03 120.768 430.34 122.764 430.34 124.934V125.508C430.34 127.659 430.03 129.655 429.41 131.496C428.79 133.319 427.879 134.914 426.676 136.281C425.473 137.63 423.987 138.678 422.219 139.426C420.451 140.173 418.409 140.547 416.094 140.547C413.779 140.547 411.728 140.173 409.941 139.426C408.155 138.678 406.66 137.63 405.457 136.281C404.254 134.914 403.342 133.319 402.723 131.496C402.103 129.655 401.793 127.659 401.793 125.508ZM411.008 124.934V125.508C411.008 126.62 411.09 127.659 411.254 128.625C411.418 129.591 411.691 130.439 412.074 131.168C412.457 131.879 412.977 132.435 413.633 132.836C414.289 133.237 415.109 133.438 416.094 133.438C417.06 133.438 417.862 133.237 418.5 132.836C419.156 132.435 419.676 131.879 420.059 131.168C420.441 130.439 420.715 129.591 420.879 128.625C421.043 127.659 421.125 126.62 421.125 125.508V124.934C421.125 123.858 421.043 122.846 420.879 121.898C420.715 120.932 420.441 120.085 420.059 119.355C419.676 118.608 419.156 118.025 418.5 117.605C417.844 117.186 417.023 116.977 416.039 116.977C415.073 116.977 414.262 117.186 413.605 117.605C412.967 118.025 412.457 118.608 412.074 119.355C411.691 120.085 411.418 120.932 411.254 121.898C411.09 122.846 411.008 123.858 411.008 124.934ZM443.492 116.73V140H434.277V110.414H442.918L443.492 116.73ZM442.398 124.195L440.238 124.25C440.238 121.99 440.512 119.975 441.059 118.207C441.605 116.421 442.38 114.908 443.383 113.668C444.385 112.428 445.579 111.49 446.965 110.852C448.368 110.195 449.927 109.867 451.641 109.867C453.008 109.867 454.257 110.068 455.387 110.469C456.535 110.87 457.52 111.517 458.34 112.41C459.178 113.303 459.816 114.488 460.254 115.965C460.71 117.423 460.938 119.228 460.938 121.379V140H451.668V121.352C451.668 120.167 451.504 119.264 451.176 118.645C450.848 118.007 450.374 117.569 449.754 117.332C449.134 117.095 448.378 116.977 447.484 116.977C446.536 116.977 445.734 117.159 445.078 117.523C444.422 117.888 443.893 118.398 443.492 119.055C443.109 119.693 442.827 120.449 442.645 121.324C442.48 122.199 442.398 123.156 442.398 124.195ZM481.555 131.688C481.555 131.177 481.382 130.74 481.035 130.375C480.707 129.992 480.124 129.646 479.285 129.336C478.447 129.008 477.271 128.68 475.758 128.352C474.318 128.042 472.96 127.632 471.684 127.121C470.426 126.611 469.323 125.991 468.375 125.262C467.427 124.533 466.68 123.667 466.133 122.664C465.604 121.661 465.34 120.513 465.34 119.219C465.34 117.961 465.604 116.776 466.133 115.664C466.68 114.534 467.473 113.54 468.512 112.684C469.569 111.809 470.854 111.125 472.367 110.633C473.88 110.122 475.603 109.867 477.535 109.867C480.197 109.867 482.493 110.277 484.426 111.098C486.358 111.9 487.844 113.03 488.883 114.488C489.94 115.928 490.469 117.596 490.469 119.492H481.254C481.254 118.745 481.126 118.107 480.871 117.578C480.634 117.049 480.242 116.648 479.695 116.375C479.148 116.083 478.419 115.938 477.508 115.938C476.87 115.938 476.286 116.056 475.758 116.293C475.247 116.53 474.837 116.858 474.527 117.277C474.217 117.697 474.062 118.189 474.062 118.754C474.062 119.155 474.154 119.52 474.336 119.848C474.536 120.158 474.837 120.449 475.238 120.723C475.639 120.978 476.15 121.215 476.77 121.434C477.389 121.634 478.137 121.816 479.012 121.98C480.999 122.345 482.858 122.865 484.59 123.539C486.322 124.214 487.725 125.171 488.801 126.41C489.895 127.65 490.441 129.318 490.441 131.414C490.441 132.727 490.141 133.939 489.539 135.051C488.938 136.145 488.072 137.111 486.941 137.949C485.811 138.77 484.453 139.408 482.867 139.863C481.281 140.319 479.495 140.547 477.508 140.547C474.682 140.547 472.294 140.046 470.344 139.043C468.393 138.022 466.917 136.746 465.914 135.215C464.93 133.665 464.438 132.098 464.438 130.512H473.023C473.06 131.423 473.279 132.171 473.68 132.754C474.099 133.337 474.655 133.766 475.348 134.039C476.04 134.312 476.842 134.449 477.754 134.449C478.592 134.449 479.285 134.331 479.832 134.094C480.397 133.857 480.826 133.538 481.117 133.137C481.409 132.717 481.555 132.234 481.555 131.688ZM526.016 108.555L516.309 140H506L520.629 100.188H527.164L526.016 108.555ZM534.055 140L524.32 108.555L523.062 100.188H529.68L544.391 140H534.055ZM533.672 125.152V132.562H513.246V125.152H533.672ZM554.617 116.73V140H545.402V110.414H554.043L554.617 116.73ZM553.523 124.195L551.363 124.25C551.363 121.99 551.637 119.975 552.184 118.207C552.73 116.421 553.505 114.908 554.508 113.668C555.51 112.428 556.704 111.49 558.09 110.852C559.493 110.195 561.052 109.867 562.766 109.867C564.133 109.867 565.382 110.068 566.512 110.469C567.66 110.87 568.645 111.517 569.465 112.41C570.303 113.303 570.941 114.488 571.379 115.965C571.835 117.423 572.062 119.228 572.062 121.379V140H562.793V121.352C562.793 120.167 562.629 119.264 562.301 118.645C561.973 118.007 561.499 117.569 560.879 117.332C560.259 117.095 559.503 116.977 558.609 116.977C557.661 116.977 556.859 117.159 556.203 117.523C555.547 117.888 555.018 118.398 554.617 119.055C554.234 119.693 553.952 120.449 553.77 121.324C553.605 122.199 553.523 123.156 553.523 124.195ZM592.543 132.562V120.367C592.543 119.529 592.424 118.809 592.188 118.207C591.951 117.605 591.577 117.141 591.066 116.812C590.556 116.466 589.872 116.293 589.016 116.293C588.323 116.293 587.73 116.411 587.238 116.648C586.746 116.885 586.372 117.241 586.117 117.715C585.862 118.189 585.734 118.79 585.734 119.52H576.52C576.52 118.152 576.82 116.885 577.422 115.719C578.042 114.534 578.917 113.504 580.047 112.629C581.195 111.754 582.562 111.079 584.148 110.605C585.753 110.113 587.539 109.867 589.508 109.867C591.859 109.867 593.956 110.259 595.797 111.043C597.656 111.827 599.124 113.003 600.199 114.57C601.275 116.12 601.812 118.07 601.812 120.422V132.535C601.812 134.467 601.922 135.935 602.141 136.938C602.359 137.922 602.669 138.788 603.07 139.535V140H593.828C593.391 139.089 593.062 137.977 592.844 136.664C592.643 135.333 592.543 133.966 592.543 132.562ZM593.664 121.926L593.719 126.848H589.645C588.788 126.848 588.059 126.966 587.457 127.203C586.874 127.44 586.4 127.768 586.035 128.188C585.689 128.589 585.434 129.044 585.27 129.555C585.124 130.065 585.051 130.603 585.051 131.168C585.051 131.715 585.178 132.207 585.434 132.645C585.707 133.064 586.072 133.392 586.527 133.629C586.983 133.866 587.493 133.984 588.059 133.984C589.079 133.984 589.945 133.793 590.656 133.41C591.385 133.009 591.941 132.526 592.324 131.961C592.707 131.396 592.898 130.867 592.898 130.375L594.922 134.148C594.557 134.878 594.138 135.616 593.664 136.363C593.208 137.111 592.634 137.803 591.941 138.441C591.267 139.061 590.438 139.572 589.453 139.973C588.469 140.355 587.275 140.547 585.871 140.547C584.048 140.547 582.371 140.173 580.84 139.426C579.327 138.678 578.115 137.639 577.203 136.309C576.292 134.96 575.836 133.41 575.836 131.66C575.836 130.129 576.109 128.762 576.656 127.559C577.221 126.355 578.069 125.335 579.199 124.496C580.329 123.658 581.77 123.02 583.52 122.582C585.27 122.145 587.329 121.926 589.699 121.926H593.664ZM616.66 98V140H607.418V98H616.66ZM631.426 136.527L639.082 110.414H648.98L637.086 144.402C636.831 145.15 636.493 145.952 636.074 146.809C635.655 147.684 635.081 148.513 634.352 149.297C633.622 150.081 632.684 150.719 631.535 151.211C630.405 151.703 629.001 151.949 627.324 151.949C626.431 151.949 625.775 151.904 625.355 151.812C624.954 151.74 624.335 151.603 623.496 151.402V144.812C623.733 144.812 623.934 144.812 624.098 144.812C624.28 144.812 624.48 144.812 624.699 144.812C625.684 144.812 626.467 144.712 627.051 144.512C627.652 144.311 628.108 144.02 628.418 143.637C628.746 143.254 629.001 142.789 629.184 142.242L631.426 136.527ZM629.484 110.414L635.309 131.113L636.32 140.875H630.141L619.613 110.414H629.484ZM666.891 131.688C666.891 131.177 666.717 130.74 666.371 130.375C666.043 129.992 665.46 129.646 664.621 129.336C663.783 129.008 662.607 128.68 661.094 128.352C659.654 128.042 658.296 127.632 657.02 127.121C655.762 126.611 654.659 125.991 653.711 125.262C652.763 124.533 652.016 123.667 651.469 122.664C650.94 121.661 650.676 120.513 650.676 119.219C650.676 117.961 650.94 116.776 651.469 115.664C652.016 114.534 652.809 113.54 653.848 112.684C654.905 111.809 656.19 111.125 657.703 110.633C659.216 110.122 660.939 109.867 662.871 109.867C665.533 109.867 667.829 110.277 669.762 111.098C671.694 111.9 673.18 113.03 674.219 114.488C675.276 115.928 675.805 117.596 675.805 119.492H666.59C666.59 118.745 666.462 118.107 666.207 117.578C665.97 117.049 665.578 116.648 665.031 116.375C664.484 116.083 663.755 115.938 662.844 115.938C662.206 115.938 661.622 116.056 661.094 116.293C660.583 116.53 660.173 116.858 659.863 117.277C659.553 117.697 659.398 118.189 659.398 118.754C659.398 119.155 659.49 119.52 659.672 119.848C659.872 120.158 660.173 120.449 660.574 120.723C660.975 120.978 661.486 121.215 662.105 121.434C662.725 121.634 663.473 121.816 664.348 121.98C666.335 122.345 668.194 122.865 669.926 123.539C671.658 124.214 673.061 125.171 674.137 126.41C675.23 127.65 675.777 129.318 675.777 131.414C675.777 132.727 675.477 133.939 674.875 135.051C674.273 136.145 673.408 137.111 672.277 137.949C671.147 138.77 669.789 139.408 668.203 139.863C666.617 140.319 664.831 140.547 662.844 140.547C660.018 140.547 657.63 140.046 655.68 139.043C653.729 138.022 652.253 136.746 651.25 135.215C650.266 133.665 649.773 132.098 649.773 130.512H658.359C658.396 131.423 658.615 132.171 659.016 132.754C659.435 133.337 659.991 133.766 660.684 134.039C661.376 134.312 662.178 134.449 663.09 134.449C663.928 134.449 664.621 134.331 665.168 134.094C665.733 133.857 666.161 133.538 666.453 133.137C666.745 132.717 666.891 132.234 666.891 131.688ZM689.832 110.414V140H680.59V110.414H689.832ZM680.043 102.785C680.043 101.473 680.517 100.397 681.465 99.5586C682.413 98.7201 683.643 98.3008 685.156 98.3008C686.669 98.3008 687.9 98.7201 688.848 99.5586C689.796 100.397 690.27 101.473 690.27 102.785C690.27 104.098 689.796 105.173 688.848 106.012C687.9 106.85 686.669 107.27 685.156 107.27C683.643 107.27 682.413 106.85 681.465 106.012C680.517 105.173 680.043 104.098 680.043 102.785ZM711.023 131.688C711.023 131.177 710.85 130.74 710.504 130.375C710.176 129.992 709.592 129.646 708.754 129.336C707.915 129.008 706.74 128.68 705.227 128.352C703.786 128.042 702.428 127.632 701.152 127.121C699.895 126.611 698.792 125.991 697.844 125.262C696.896 124.533 696.148 123.667 695.602 122.664C695.073 121.661 694.809 120.513 694.809 119.219C694.809 117.961 695.073 116.776 695.602 115.664C696.148 114.534 696.941 113.54 697.98 112.684C699.038 111.809 700.323 111.125 701.836 110.633C703.349 110.122 705.072 109.867 707.004 109.867C709.665 109.867 711.962 110.277 713.895 111.098C715.827 111.9 717.312 113.03 718.352 114.488C719.409 115.928 719.938 117.596 719.938 119.492H710.723C710.723 118.745 710.595 118.107 710.34 117.578C710.103 117.049 709.711 116.648 709.164 116.375C708.617 116.083 707.888 115.938 706.977 115.938C706.339 115.938 705.755 116.056 705.227 116.293C704.716 116.53 704.306 116.858 703.996 117.277C703.686 117.697 703.531 118.189 703.531 118.754C703.531 119.155 703.622 119.52 703.805 119.848C704.005 120.158 704.306 120.449 704.707 120.723C705.108 120.978 705.618 121.215 706.238 121.434C706.858 121.634 707.605 121.816 708.48 121.98C710.467 122.345 712.327 122.865 714.059 123.539C715.79 124.214 717.194 125.171 718.27 126.41C719.363 127.65 719.91 129.318 719.91 131.414C719.91 132.727 719.609 133.939 719.008 135.051C718.406 136.145 717.54 137.111 716.41 137.949C715.28 138.77 713.922 139.408 712.336 139.863C710.75 140.319 708.964 140.547 706.977 140.547C704.151 140.547 701.763 140.046 699.812 139.043C697.862 138.022 696.385 136.746 695.383 135.215C694.398 133.665 693.906 132.098 693.906 130.512H702.492C702.529 131.423 702.747 132.171 703.148 132.754C703.568 133.337 704.124 133.766 704.816 134.039C705.509 134.312 706.311 134.449 707.223 134.449C708.061 134.449 708.754 134.331 709.301 134.094C709.866 133.857 710.294 133.538 710.586 133.137C710.878 132.717 711.023 132.234 711.023 131.688Z" fill="black"/>
<rect x="93" y="178" width="1214" height="77" rx="10" fill="#D3D3D3"/>
<rect x="111" y="196" width="102" height="41" rx="3" fill="#424242"/>
<rect x="111" y="196" width="102" height="41" rx="3" stroke="#424242" stroke-width="4"/>
<path d="M139.166 218.658H135.984V216.276H139.166C139.6 216.276 139.951 216.203 140.221 216.057C140.49 215.91 140.687 215.708 140.81 215.45C140.938 215.187 141.003 214.891 141.003 214.562C141.003 214.211 140.938 213.886 140.81 213.587C140.687 213.288 140.49 213.048 140.221 212.866C139.951 212.679 139.6 212.585 139.166 212.585H137.145V223H134.06V210.203H139.166C140.191 210.203 141.073 210.391 141.812 210.766C142.556 211.141 143.127 211.656 143.525 212.312C143.924 212.963 144.123 213.707 144.123 214.545C144.123 215.371 143.924 216.092 143.525 216.707C143.127 217.322 142.556 217.803 141.812 218.148C141.073 218.488 140.191 218.658 139.166 218.658ZM148.702 221.884L151.163 213.49H154.345L150.521 224.415C150.439 224.655 150.331 224.913 150.196 225.188C150.062 225.47 149.877 225.736 149.643 225.988C149.408 226.24 149.106 226.445 148.737 226.604C148.374 226.762 147.923 226.841 147.384 226.841C147.097 226.841 146.886 226.826 146.751 226.797C146.622 226.773 146.423 226.729 146.153 226.665V224.547C146.229 224.547 146.294 224.547 146.347 224.547C146.405 224.547 146.47 224.547 146.54 224.547C146.856 224.547 147.108 224.515 147.296 224.45C147.489 224.386 147.636 224.292 147.735 224.169C147.841 224.046 147.923 223.896 147.981 223.721L148.702 221.884ZM148.078 213.49L149.95 220.144L150.275 223.281H148.289L144.905 213.49H148.078ZM160.128 213.49V215.547H154.397V213.49H160.128ZM155.602 211.126H158.563V219.897C158.563 220.149 158.593 220.346 158.651 220.486C158.71 220.621 158.81 220.718 158.95 220.776C159.097 220.829 159.29 220.855 159.53 220.855C159.7 220.855 159.841 220.853 159.952 220.847C160.063 220.835 160.169 220.82 160.269 220.803V222.921C160.017 223.003 159.753 223.064 159.478 223.105C159.202 223.152 158.909 223.176 158.599 223.176C157.966 223.176 157.424 223.076 156.973 222.877C156.527 222.678 156.188 222.364 155.953 221.937C155.719 221.509 155.602 220.952 155.602 220.267V211.126ZM164.206 209.5V223H161.244V209.5H164.206ZM163.854 217.92L163.16 217.938C163.16 217.27 163.242 216.654 163.406 216.092C163.57 215.529 163.805 215.04 164.109 214.624C164.414 214.208 164.78 213.886 165.208 213.657C165.636 213.429 166.11 213.314 166.632 213.314C167.101 213.314 167.528 213.382 167.915 213.517C168.308 213.651 168.645 213.868 168.926 214.167C169.213 214.466 169.433 214.855 169.585 215.336C169.743 215.816 169.822 216.402 169.822 217.094V223H166.843V217.076C166.843 216.689 166.787 216.391 166.676 216.18C166.57 215.963 166.418 215.813 166.219 215.731C166.02 215.644 165.776 215.6 165.489 215.6C165.144 215.6 164.862 215.658 164.646 215.775C164.429 215.893 164.262 216.057 164.145 216.268C164.033 216.473 163.957 216.716 163.916 216.997C163.875 217.278 163.854 217.586 163.854 217.92ZM171.097 218.342V218.157C171.097 217.46 171.196 216.818 171.396 216.232C171.595 215.641 171.888 215.128 172.274 214.694C172.661 214.261 173.139 213.924 173.707 213.684C174.275 213.438 174.932 213.314 175.676 213.314C176.426 213.314 177.085 213.438 177.653 213.684C178.228 213.924 178.708 214.261 179.095 214.694C179.481 215.128 179.774 215.641 179.974 216.232C180.173 216.818 180.272 217.46 180.272 218.157V218.342C180.272 219.033 180.173 219.675 179.974 220.267C179.774 220.853 179.481 221.365 179.095 221.805C178.708 222.238 178.23 222.575 177.662 222.815C177.094 223.056 176.438 223.176 175.693 223.176C174.949 223.176 174.29 223.056 173.716 222.815C173.142 222.575 172.661 222.238 172.274 221.805C171.888 221.365 171.595 220.853 171.396 220.267C171.196 219.675 171.097 219.033 171.097 218.342ZM174.059 218.157V218.342C174.059 218.699 174.085 219.033 174.138 219.344C174.19 219.654 174.278 219.927 174.401 220.161C174.524 220.39 174.691 220.568 174.902 220.697C175.113 220.826 175.377 220.891 175.693 220.891C176.004 220.891 176.262 220.826 176.467 220.697C176.678 220.568 176.845 220.39 176.968 220.161C177.091 219.927 177.179 219.654 177.231 219.344C177.284 219.033 177.311 218.699 177.311 218.342V218.157C177.311 217.812 177.284 217.486 177.231 217.182C177.179 216.871 177.091 216.599 176.968 216.364C176.845 216.124 176.678 215.937 176.467 215.802C176.256 215.667 175.992 215.6 175.676 215.6C175.365 215.6 175.104 215.667 174.894 215.802C174.688 215.937 174.524 216.124 174.401 216.364C174.278 216.599 174.19 216.871 174.138 217.182C174.085 217.486 174.059 217.812 174.059 218.157ZM184.5 215.521V223H181.538V213.49H184.315L184.5 215.521ZM184.148 217.92L183.454 217.938C183.454 217.211 183.542 216.563 183.718 215.995C183.894 215.421 184.143 214.935 184.465 214.536C184.787 214.138 185.171 213.836 185.616 213.631C186.067 213.42 186.568 213.314 187.119 213.314C187.559 213.314 187.96 213.379 188.323 213.508C188.692 213.637 189.009 213.845 189.272 214.132C189.542 214.419 189.747 214.8 189.888 215.274C190.034 215.743 190.107 216.323 190.107 217.015V223H187.128V217.006C187.128 216.625 187.075 216.335 186.97 216.136C186.864 215.931 186.712 215.79 186.513 215.714C186.313 215.638 186.07 215.6 185.783 215.6C185.479 215.6 185.221 215.658 185.01 215.775C184.799 215.893 184.629 216.057 184.5 216.268C184.377 216.473 184.286 216.716 184.228 216.997C184.175 217.278 184.148 217.586 184.148 217.92Z" fill="white"/>
<rect x="233" y="196" width="78" height="41" rx="3" fill="#424242"/>
<rect x="233" y="196" width="78" height="41" rx="3" stroke="#424242" stroke-width="4"/>
<path d="M262.842 219.599C262.842 219.399 262.812 219.221 262.754 219.062C262.695 218.898 262.587 218.746 262.429 218.605C262.271 218.465 262.042 218.324 261.743 218.184C261.45 218.037 261.063 217.885 260.583 217.727C260.021 217.539 259.479 217.328 258.957 217.094C258.436 216.854 257.97 216.575 257.56 216.259C257.149 215.937 256.824 215.562 256.584 215.134C256.344 214.7 256.224 214.196 256.224 213.622C256.224 213.071 256.347 212.576 256.593 212.137C256.839 211.691 257.182 211.313 257.621 211.003C258.066 210.687 258.588 210.446 259.186 210.282C259.783 210.112 260.437 210.027 261.146 210.027C262.083 210.027 262.909 210.191 263.624 210.52C264.345 210.842 264.907 211.302 265.312 211.899C265.722 212.491 265.927 213.191 265.927 214H262.859C262.859 213.678 262.792 213.394 262.657 213.147C262.528 212.901 262.332 212.708 262.068 212.567C261.805 212.427 261.474 212.356 261.075 212.356C260.688 212.356 260.363 212.415 260.1 212.532C259.836 212.649 259.637 212.808 259.502 213.007C259.367 213.2 259.3 213.414 259.3 213.648C259.3 213.842 259.353 214.018 259.458 214.176C259.569 214.328 259.725 214.472 259.924 214.606C260.129 214.741 260.375 214.87 260.662 214.993C260.955 215.116 261.283 215.236 261.646 215.354C262.326 215.57 262.93 215.813 263.457 216.083C263.99 216.347 264.438 216.648 264.802 216.988C265.171 217.322 265.449 217.703 265.637 218.131C265.83 218.559 265.927 219.042 265.927 219.581C265.927 220.155 265.815 220.665 265.593 221.11C265.37 221.556 265.051 221.934 264.635 222.244C264.219 222.549 263.721 222.78 263.141 222.938C262.561 223.097 261.913 223.176 261.198 223.176C260.542 223.176 259.895 223.094 259.256 222.93C258.623 222.76 258.049 222.502 257.533 222.156C257.018 221.805 256.604 221.356 256.294 220.812C255.989 220.261 255.837 219.607 255.837 218.852H258.931C258.931 219.227 258.98 219.543 259.08 219.801C259.18 220.059 259.326 220.267 259.52 220.425C259.713 220.577 259.95 220.688 260.231 220.759C260.513 220.823 260.835 220.855 261.198 220.855C261.591 220.855 261.907 220.8 262.147 220.688C262.388 220.571 262.563 220.419 262.675 220.231C262.786 220.038 262.842 219.827 262.842 219.599ZM274.654 220.891L278.223 223.721L276.307 225.338L272.8 222.508L274.654 220.891ZM278.372 216.347V216.865C278.372 217.844 278.234 218.723 277.959 219.502C277.689 220.275 277.303 220.938 276.799 221.488C276.301 222.033 275.712 222.452 275.032 222.745C274.353 223.032 273.603 223.176 272.782 223.176C271.956 223.176 271.2 223.032 270.515 222.745C269.835 222.452 269.243 222.033 268.739 221.488C268.241 220.938 267.854 220.275 267.579 219.502C267.31 218.723 267.175 217.844 267.175 216.865V216.347C267.175 215.368 267.31 214.489 267.579 213.71C267.854 212.931 268.238 212.269 268.73 211.724C269.229 211.173 269.817 210.754 270.497 210.467C271.183 210.174 271.938 210.027 272.765 210.027C273.585 210.027 274.335 210.174 275.015 210.467C275.7 210.754 276.292 211.173 276.79 211.724C277.294 212.269 277.684 212.931 277.959 213.71C278.234 214.489 278.372 215.368 278.372 216.347ZM275.234 216.865V216.329C275.234 215.696 275.179 215.14 275.067 214.659C274.962 214.173 274.804 213.766 274.593 213.438C274.382 213.109 274.121 212.863 273.811 212.699C273.506 212.529 273.157 212.444 272.765 212.444C272.354 212.444 271.997 212.529 271.692 212.699C271.388 212.863 271.133 213.109 270.928 213.438C270.723 213.766 270.567 214.173 270.462 214.659C270.362 215.14 270.312 215.696 270.312 216.329V216.865C270.312 217.492 270.362 218.049 270.462 218.535C270.567 219.016 270.723 219.423 270.928 219.757C271.139 220.091 271.396 220.343 271.701 220.513C272.012 220.683 272.372 220.768 272.782 220.768C273.175 220.768 273.523 220.683 273.828 220.513C274.133 220.343 274.388 220.091 274.593 219.757C274.804 219.423 274.962 219.016 275.067 218.535C275.179 218.049 275.234 217.492 275.234 216.865ZM288.4 220.627V223H281.932V220.627H288.4ZM283.03 210.203V223H279.945V210.203H283.03Z" fill="white"/>
<rect x="331" y="196" width="113" height="41" rx="3" fill="#424242"/>
<rect x="331" y="196" width="113" height="41" rx="3" stroke="#424242" stroke-width="4"/>
<path d="M359.331 218.658H356.149V216.276H359.331C359.765 216.276 360.116 216.203 360.386 216.057C360.655 215.91 360.852 215.708 360.975 215.45C361.104 215.187 361.168 214.891 361.168 214.562C361.168 214.211 361.104 213.886 360.975 213.587C360.852 213.288 360.655 213.048 360.386 212.866C360.116 212.679 359.765 212.585 359.331 212.585H357.31V223H354.225V210.203H359.331C360.356 210.203 361.238 210.391 361.977 210.766C362.721 211.141 363.292 211.656 363.69 212.312C364.089 212.963 364.288 213.707 364.288 214.545C364.288 215.371 364.089 216.092 363.69 216.707C363.292 217.322 362.721 217.803 361.977 218.148C361.238 218.488 360.356 218.658 359.331 218.658ZM365.316 218.342V218.157C365.316 217.46 365.416 216.818 365.615 216.232C365.814 215.641 366.107 215.128 366.494 214.694C366.881 214.261 367.358 213.924 367.927 213.684C368.495 213.438 369.151 213.314 369.896 213.314C370.646 213.314 371.305 213.438 371.873 213.684C372.447 213.924 372.928 214.261 373.314 214.694C373.701 215.128 373.994 215.641 374.193 216.232C374.393 216.818 374.492 217.46 374.492 218.157V218.342C374.492 219.033 374.393 219.675 374.193 220.267C373.994 220.853 373.701 221.365 373.314 221.805C372.928 222.238 372.45 222.575 371.882 222.815C371.313 223.056 370.657 223.176 369.913 223.176C369.169 223.176 368.51 223.056 367.936 222.815C367.361 222.575 366.881 222.238 366.494 221.805C366.107 221.365 365.814 220.853 365.615 220.267C365.416 219.675 365.316 219.033 365.316 218.342ZM368.278 218.157V218.342C368.278 218.699 368.305 219.033 368.357 219.344C368.41 219.654 368.498 219.927 368.621 220.161C368.744 220.39 368.911 220.568 369.122 220.697C369.333 220.826 369.597 220.891 369.913 220.891C370.224 220.891 370.481 220.826 370.687 220.697C370.897 220.568 371.064 220.39 371.188 220.161C371.311 219.927 371.398 219.654 371.451 219.344C371.504 219.033 371.53 218.699 371.53 218.342V218.157C371.53 217.812 371.504 217.486 371.451 217.182C371.398 216.871 371.311 216.599 371.188 216.364C371.064 216.124 370.897 215.937 370.687 215.802C370.476 215.667 370.212 215.6 369.896 215.6C369.585 215.6 369.324 215.667 369.113 215.802C368.908 215.937 368.744 216.124 368.621 216.364C368.498 216.599 368.41 216.871 368.357 217.182C368.305 217.486 368.278 217.812 368.278 218.157ZM378.702 220.17L380.46 213.49H382.314L381.655 216.839L379.915 223H378.43L378.702 220.17ZM378.008 213.49L379.098 220.117L379.221 223H377.419L375.169 213.49H378.008ZM383.879 219.977L384.978 213.49H387.816L385.584 223H383.782L383.879 219.977ZM382.525 213.49L384.301 220.152L384.573 223H383.07L381.365 216.856L380.732 213.49H382.525ZM393.494 223.176C392.721 223.176 392.029 223.056 391.42 222.815C390.811 222.569 390.295 222.232 389.873 221.805C389.457 221.377 389.138 220.885 388.915 220.328C388.698 219.771 388.59 219.183 388.59 218.562V218.228C388.59 217.53 388.687 216.886 388.88 216.294C389.073 215.696 389.36 215.175 389.741 214.729C390.122 214.284 390.6 213.938 391.174 213.692C391.748 213.44 392.416 213.314 393.178 213.314C393.852 213.314 394.455 213.423 394.988 213.64C395.521 213.856 395.973 214.167 396.342 214.571C396.717 214.976 397.001 215.465 397.194 216.039C397.394 216.613 397.493 217.258 397.493 217.973V219.177H389.724V217.322H394.602V217.094C394.607 216.777 394.552 216.508 394.435 216.285C394.323 216.062 394.159 215.893 393.942 215.775C393.726 215.658 393.462 215.6 393.151 215.6C392.829 215.6 392.562 215.67 392.352 215.811C392.146 215.951 391.985 216.145 391.868 216.391C391.757 216.631 391.678 216.909 391.631 217.226C391.584 217.542 391.561 217.876 391.561 218.228V218.562C391.561 218.913 391.607 219.232 391.701 219.52C391.801 219.807 391.941 220.053 392.123 220.258C392.311 220.457 392.533 220.612 392.791 220.724C393.055 220.835 393.354 220.891 393.688 220.891C394.092 220.891 394.49 220.814 394.883 220.662C395.275 220.51 395.612 220.258 395.894 219.906L397.238 221.506C397.045 221.781 396.77 222.048 396.412 222.306C396.061 222.563 395.639 222.774 395.146 222.938C394.654 223.097 394.104 223.176 393.494 223.176ZM401.686 215.846V223H398.724V213.49H401.492L401.686 215.846ZM404.498 213.42L404.445 216.171C404.328 216.159 404.17 216.145 403.971 216.127C403.771 216.109 403.604 216.101 403.47 216.101C403.124 216.101 402.825 216.142 402.573 216.224C402.327 216.3 402.122 216.417 401.958 216.575C401.8 216.728 401.683 216.921 401.606 217.155C401.536 217.39 401.504 217.662 401.51 217.973L400.974 217.621C400.974 216.982 401.035 216.402 401.158 215.881C401.287 215.354 401.469 214.899 401.703 214.519C401.938 214.132 402.222 213.836 402.556 213.631C402.89 213.42 403.265 213.314 403.681 213.314C403.827 213.314 403.971 213.323 404.111 213.341C404.258 213.358 404.387 213.385 404.498 213.42ZM410.879 217.56H407.583L407.565 215.538H410.237C410.718 215.538 411.102 215.485 411.389 215.38C411.676 215.269 411.884 215.107 412.013 214.896C412.147 214.686 412.215 214.422 412.215 214.105C412.215 213.742 412.147 213.449 412.013 213.227C411.878 213.004 411.664 212.843 411.371 212.743C411.084 212.638 410.712 212.585 410.255 212.585H408.743V223H405.658V210.203H410.255C411.046 210.203 411.752 210.276 412.373 210.423C412.994 210.563 413.521 210.78 413.955 211.073C414.395 211.366 414.729 211.735 414.957 212.181C415.186 212.62 415.3 213.139 415.3 213.736C415.3 214.258 415.188 214.747 414.966 215.204C414.743 215.661 414.371 216.033 413.85 216.32C413.334 216.602 412.628 216.748 411.731 216.76L410.879 217.56ZM410.756 223H406.836L407.891 220.627H410.756C411.178 220.627 411.515 220.562 411.767 220.434C412.024 220.299 412.209 220.123 412.32 219.906C412.438 219.684 412.496 219.438 412.496 219.168C412.496 218.84 412.44 218.556 412.329 218.315C412.224 218.075 412.054 217.891 411.819 217.762C411.585 217.627 411.271 217.56 410.879 217.56H408.286L408.304 215.538H411.406L412.127 216.347C412.982 216.312 413.659 216.432 414.157 216.707C414.661 216.982 415.021 217.346 415.238 217.797C415.455 218.248 415.563 218.72 415.563 219.212C415.563 220.05 415.382 220.75 415.019 221.312C414.661 221.875 414.125 222.297 413.41 222.578C412.695 222.859 411.811 223 410.756 223ZM420.556 210.203V223H417.479V210.203H420.556Z" fill="white"/>
<rect x="464" y="196" width="80" height="41" rx="3" fill="#424242"/>
<rect x="464" y="196" width="80" height="41" rx="3" stroke="#424242" stroke-width="4"/>
<path d="M491.52 223H488.681L488.698 220.627H491.52C492.105 220.627 492.601 220.486 493.005 220.205C493.415 219.924 493.726 219.505 493.937 218.948C494.153 218.386 494.262 217.694 494.262 216.874V216.32C494.262 215.705 494.2 215.166 494.077 214.703C493.96 214.234 493.784 213.845 493.55 213.534C493.315 213.218 493.022 212.98 492.671 212.822C492.325 212.664 491.927 212.585 491.476 212.585H488.628V210.203H491.476C492.343 210.203 493.137 210.353 493.857 210.651C494.584 210.944 495.211 211.366 495.738 211.917C496.271 212.462 496.682 213.109 496.969 213.859C497.262 214.604 497.408 215.43 497.408 216.338V216.874C497.408 217.776 497.262 218.603 496.969 219.353C496.682 220.103 496.274 220.75 495.747 221.295C495.22 221.84 494.596 222.262 493.875 222.561C493.16 222.854 492.375 223 491.52 223ZM490.447 210.203V223H487.362V210.203H490.447ZM504.246 212.893L501.126 223H497.812L502.515 210.203H504.615L504.246 212.893ZM506.83 223L503.701 212.893L503.297 210.203H505.424L510.152 223H506.83ZM506.707 218.228V220.609H500.142V218.228H506.707ZM513.773 210.203L515.865 214.457L517.957 210.203H521.473L517.904 216.549L521.569 223H518.019L515.865 218.667L513.712 223H510.152L513.826 216.549L510.249 210.203H513.773Z" fill="white"/>
<rect x="564" y="196" width="105" height="41" rx="3" fill="#424242"/>
<rect x="564" y="196" width="105" height="41" rx="3" stroke="#424242" stroke-width="4"/>
<path d="M592.453 218.658H589.271V216.276H592.453C592.887 216.276 593.238 216.203 593.508 216.057C593.777 215.91 593.974 215.708 594.097 215.45C594.226 215.187 594.29 214.891 594.29 214.562C594.29 214.211 594.226 213.886 594.097 213.587C593.974 213.288 593.777 213.048 593.508 212.866C593.238 212.679 592.887 212.585 592.453 212.585H590.432V223H587.347V210.203H592.453C593.479 210.203 594.36 210.391 595.099 210.766C595.843 211.141 596.414 211.656 596.812 212.312C597.211 212.963 597.41 213.707 597.41 214.545C597.41 215.371 597.211 216.092 596.812 216.707C596.414 217.322 595.843 217.803 595.099 218.148C594.36 218.488 593.479 218.658 592.453 218.658ZM603.765 220.609V216.689C603.765 216.42 603.727 216.188 603.65 215.995C603.574 215.802 603.454 215.652 603.29 215.547C603.126 215.436 602.906 215.38 602.631 215.38C602.408 215.38 602.218 215.418 602.06 215.494C601.901 215.57 601.781 215.685 601.699 215.837C601.617 215.989 601.576 216.183 601.576 216.417H598.614C598.614 215.978 598.711 215.57 598.904 215.195C599.104 214.814 599.385 214.483 599.748 214.202C600.117 213.921 600.557 213.704 601.066 213.552C601.582 213.394 602.156 213.314 602.789 213.314C603.545 213.314 604.219 213.44 604.811 213.692C605.408 213.944 605.88 214.322 606.226 214.826C606.571 215.324 606.744 215.951 606.744 216.707V220.601C606.744 221.222 606.779 221.693 606.85 222.016C606.92 222.332 607.02 222.61 607.148 222.851V223H604.178C604.037 222.707 603.932 222.35 603.861 221.928C603.797 221.5 603.765 221.061 603.765 220.609ZM604.125 217.19L604.143 218.772H602.833C602.558 218.772 602.323 218.811 602.13 218.887C601.942 218.963 601.79 219.068 601.673 219.203C601.562 219.332 601.479 219.479 601.427 219.643C601.38 219.807 601.356 219.979 601.356 220.161C601.356 220.337 601.397 220.495 601.479 220.636C601.567 220.771 601.685 220.876 601.831 220.952C601.978 221.028 602.142 221.066 602.323 221.066C602.651 221.066 602.93 221.005 603.158 220.882C603.393 220.753 603.571 220.598 603.694 220.416C603.817 220.234 603.879 220.064 603.879 219.906L604.529 221.119C604.412 221.354 604.277 221.591 604.125 221.831C603.979 222.071 603.794 222.294 603.571 222.499C603.354 222.698 603.088 222.862 602.771 222.991C602.455 223.114 602.071 223.176 601.62 223.176C601.034 223.176 600.495 223.056 600.003 222.815C599.517 222.575 599.127 222.241 598.834 221.813C598.541 221.38 598.395 220.882 598.395 220.319C598.395 219.827 598.482 219.388 598.658 219.001C598.84 218.614 599.112 218.286 599.476 218.017C599.839 217.747 600.302 217.542 600.864 217.401C601.427 217.261 602.089 217.19 602.851 217.19H604.125ZM611.297 215.521V223H608.335V213.49H611.112L611.297 215.521ZM610.945 217.92L610.251 217.938C610.251 217.211 610.339 216.563 610.515 215.995C610.69 215.421 610.939 214.935 611.262 214.536C611.584 214.138 611.968 213.836 612.413 213.631C612.864 213.42 613.365 213.314 613.916 213.314C614.355 213.314 614.757 213.379 615.12 213.508C615.489 213.637 615.806 213.845 616.069 214.132C616.339 214.419 616.544 214.8 616.685 215.274C616.831 215.743 616.904 216.323 616.904 217.015V223H613.925V217.006C613.925 216.625 613.872 216.335 613.767 216.136C613.661 215.931 613.509 215.79 613.31 215.714C613.11 215.638 612.867 215.6 612.58 215.6C612.275 215.6 612.018 215.658 611.807 215.775C611.596 215.893 611.426 216.057 611.297 216.268C611.174 216.473 611.083 216.716 611.024 216.997C610.972 217.278 610.945 217.586 610.945 217.92ZM624.015 220.82V209.5H626.994V223H624.322L624.015 220.82ZM618.179 218.359V218.175C618.179 217.454 618.258 216.798 618.416 216.206C618.574 215.608 618.809 215.096 619.119 214.668C619.43 214.234 619.816 213.9 620.279 213.666C620.742 213.432 621.275 213.314 621.879 213.314C622.418 213.314 622.89 213.44 623.294 213.692C623.698 213.938 624.044 214.284 624.331 214.729C624.618 215.175 624.853 215.696 625.034 216.294C625.216 216.886 625.354 217.524 625.447 218.21V218.43C625.354 219.074 625.216 219.684 625.034 220.258C624.853 220.826 624.618 221.33 624.331 221.77C624.044 222.209 623.695 222.555 623.285 222.807C622.881 223.053 622.406 223.176 621.861 223.176C621.258 223.176 620.725 223.056 620.262 222.815C619.805 222.575 619.421 222.238 619.11 221.805C618.806 221.371 618.574 220.861 618.416 220.275C618.258 219.689 618.179 219.051 618.179 218.359ZM621.141 218.175V218.359C621.141 218.717 621.164 219.048 621.211 219.353C621.258 219.657 621.337 219.927 621.448 220.161C621.565 220.39 621.718 220.568 621.905 220.697C622.099 220.826 622.336 220.891 622.617 220.891C622.998 220.891 623.312 220.8 623.558 220.618C623.81 220.437 623.994 220.179 624.111 219.845C624.234 219.511 624.287 219.118 624.27 218.667V217.973C624.281 217.586 624.255 217.246 624.19 216.953C624.126 216.654 624.023 216.405 623.883 216.206C623.748 216.007 623.575 215.857 623.364 215.758C623.159 215.652 622.916 215.6 622.635 215.6C622.359 215.6 622.125 215.664 621.932 215.793C621.744 215.922 621.592 216.104 621.475 216.338C621.357 216.566 621.272 216.839 621.22 217.155C621.167 217.466 621.141 217.806 621.141 218.175ZM633.612 220.609V216.689C633.612 216.42 633.574 216.188 633.498 215.995C633.422 215.802 633.302 215.652 633.138 215.547C632.974 215.436 632.754 215.38 632.479 215.38C632.256 215.38 632.065 215.418 631.907 215.494C631.749 215.57 631.629 215.685 631.547 215.837C631.465 215.989 631.424 216.183 631.424 216.417H628.462C628.462 215.978 628.559 215.57 628.752 215.195C628.951 214.814 629.232 214.483 629.596 214.202C629.965 213.921 630.404 213.704 630.914 213.552C631.43 213.394 632.004 213.314 632.637 213.314C633.393 213.314 634.066 213.44 634.658 213.692C635.256 213.944 635.728 214.322 636.073 214.826C636.419 215.324 636.592 215.951 636.592 216.707V220.601C636.592 221.222 636.627 221.693 636.697 222.016C636.768 222.332 636.867 222.61 636.996 222.851V223H634.025C633.885 222.707 633.779 222.35 633.709 221.928C633.645 221.5 633.612 221.061 633.612 220.609ZM633.973 217.19L633.99 218.772H632.681C632.405 218.772 632.171 218.811 631.978 218.887C631.79 218.963 631.638 219.068 631.521 219.203C631.409 219.332 631.327 219.479 631.274 219.643C631.228 219.807 631.204 219.979 631.204 220.161C631.204 220.337 631.245 220.495 631.327 220.636C631.415 220.771 631.532 220.876 631.679 220.952C631.825 221.028 631.989 221.066 632.171 221.066C632.499 221.066 632.777 221.005 633.006 220.882C633.24 220.753 633.419 220.598 633.542 220.416C633.665 220.234 633.727 220.064 633.727 219.906L634.377 221.119C634.26 221.354 634.125 221.591 633.973 221.831C633.826 222.071 633.642 222.294 633.419 222.499C633.202 222.698 632.936 222.862 632.619 222.991C632.303 223.114 631.919 223.176 631.468 223.176C630.882 223.176 630.343 223.056 629.851 222.815C629.364 222.575 628.975 222.241 628.682 221.813C628.389 221.38 628.242 220.882 628.242 220.319C628.242 219.827 628.33 219.388 628.506 219.001C628.688 218.614 628.96 218.286 629.323 218.017C629.687 217.747 630.149 217.542 630.712 217.401C631.274 217.261 631.937 217.19 632.698 217.19H633.973ZM643.219 220.328C643.219 220.164 643.163 220.023 643.052 219.906C642.946 219.783 642.759 219.672 642.489 219.572C642.22 219.467 641.842 219.361 641.355 219.256C640.893 219.156 640.456 219.024 640.046 218.86C639.642 218.696 639.287 218.497 638.982 218.263C638.678 218.028 638.438 217.75 638.262 217.428C638.092 217.105 638.007 216.736 638.007 216.32C638.007 215.916 638.092 215.535 638.262 215.178C638.438 214.814 638.692 214.495 639.026 214.22C639.366 213.938 639.779 213.719 640.266 213.561C640.752 213.396 641.306 213.314 641.927 213.314C642.782 213.314 643.521 213.446 644.142 213.71C644.763 213.968 645.24 214.331 645.574 214.8C645.914 215.263 646.084 215.799 646.084 216.408H643.122C643.122 216.168 643.081 215.963 642.999 215.793C642.923 215.623 642.797 215.494 642.621 215.406C642.445 215.312 642.211 215.266 641.918 215.266C641.713 215.266 641.525 215.304 641.355 215.38C641.191 215.456 641.06 215.562 640.96 215.696C640.86 215.831 640.811 215.989 640.811 216.171C640.811 216.3 640.84 216.417 640.898 216.522C640.963 216.622 641.06 216.716 641.188 216.804C641.317 216.886 641.481 216.962 641.681 217.032C641.88 217.097 642.12 217.155 642.401 217.208C643.04 217.325 643.638 217.492 644.194 217.709C644.751 217.926 645.202 218.233 645.548 218.632C645.899 219.03 646.075 219.566 646.075 220.24C646.075 220.662 645.979 221.052 645.785 221.409C645.592 221.761 645.313 222.071 644.95 222.341C644.587 222.604 644.15 222.81 643.641 222.956C643.131 223.103 642.557 223.176 641.918 223.176C641.01 223.176 640.242 223.015 639.615 222.692C638.988 222.364 638.514 221.954 638.191 221.462C637.875 220.964 637.717 220.46 637.717 219.95H640.477C640.488 220.243 640.559 220.483 640.688 220.671C640.822 220.858 641.001 220.996 641.224 221.084C641.446 221.172 641.704 221.216 641.997 221.216C642.267 221.216 642.489 221.178 642.665 221.102C642.847 221.025 642.984 220.923 643.078 220.794C643.172 220.659 643.219 220.504 643.219 220.328Z" fill="white"/>
</svg>
