<svg width="1363" height="163" viewBox="0 0 1363 163" fill="none" xmlns="http://www.w3.org/2000/svg">
<path d="M0 15C0 6.71573 6.71573 0 15 0H37V163H15C6.71573 163 0 156.284 0 148V15Z" fill="#424242"/>
<rect width="1097" height="163" transform="translate(37)" fill="#F0F0F0"/>
<path d="M101.906 53.9219L94.3945 51.2383V48.0859L104.602 52.375V54.6367L101.906 53.9219ZM94.3945 56.1719L101.918 53.4297L104.602 52.7852V55.0352L94.3945 59.3242V56.1719ZM121.781 56.5352C121.781 56.2305 121.734 55.957 121.641 55.7148C121.555 55.4648 121.391 55.2383 121.148 55.0352C120.906 54.8242 120.566 54.6172 120.129 54.4141C119.691 54.2109 119.125 54 118.43 53.7812C117.656 53.5312 116.922 53.25 116.227 52.9375C115.539 52.625 114.93 52.2617 114.398 51.8477C113.875 51.4258 113.461 50.9375 113.156 50.3828C112.859 49.8281 112.711 49.1836 112.711 48.4492C112.711 47.7383 112.867 47.0938 113.18 46.5156C113.492 45.9297 113.93 45.4297 114.492 45.0156C115.055 44.5938 115.719 44.2695 116.484 44.043C117.258 43.8164 118.105 43.7031 119.027 43.7031C120.285 43.7031 121.383 43.9297 122.32 44.3828C123.258 44.8359 123.984 45.457 124.5 46.2461C125.023 47.0352 125.285 47.9375 125.285 48.9531H121.793C121.793 48.4531 121.688 48.0156 121.477 47.6406C121.273 47.2578 120.961 46.957 120.539 46.7383C120.125 46.5195 119.602 46.4102 118.969 46.4102C118.359 46.4102 117.852 46.5039 117.445 46.6914C117.039 46.8711 116.734 47.1172 116.531 47.4297C116.328 47.7344 116.227 48.0781 116.227 48.4609C116.227 48.75 116.297 49.0117 116.438 49.2461C116.586 49.4805 116.805 49.6992 117.094 49.9023C117.383 50.1055 117.738 50.2969 118.16 50.4766C118.582 50.6562 119.07 50.832 119.625 51.0039C120.555 51.2852 121.371 51.6016 122.074 51.9531C122.785 52.3047 123.379 52.6992 123.855 53.1367C124.332 53.5742 124.691 54.0703 124.934 54.625C125.176 55.1797 125.297 55.8086 125.297 56.5117C125.297 57.2539 125.152 57.918 124.863 58.5039C124.574 59.0898 124.156 59.5859 123.609 59.9922C123.062 60.3984 122.41 60.707 121.652 60.918C120.895 61.1289 120.047 61.2344 119.109 61.2344C118.266 61.2344 117.434 61.125 116.613 60.9062C115.793 60.6797 115.047 60.3398 114.375 59.8867C113.711 59.4336 113.18 58.8555 112.781 58.1523C112.383 57.4492 112.184 56.6172 112.184 55.6562H115.711C115.711 56.1875 115.793 56.6367 115.957 57.0039C116.121 57.3711 116.352 57.668 116.648 57.8945C116.953 58.1211 117.312 58.2852 117.727 58.3867C118.148 58.4883 118.609 58.5391 119.109 58.5391C119.719 58.5391 120.219 58.4531 120.609 58.2812C121.008 58.1094 121.301 57.8711 121.488 57.5664C121.684 57.2617 121.781 56.918 121.781 56.5352ZM130.852 50.7578V65.875H127.477V48.3203H130.605L130.852 50.7578ZM138.879 54.5195V54.7656C138.879 55.6875 138.77 56.543 138.551 57.332C138.34 58.1211 138.027 58.8086 137.613 59.3945C137.199 59.9727 136.684 60.4258 136.066 60.7539C135.457 61.0742 134.754 61.2344 133.957 61.2344C133.184 61.2344 132.512 61.0781 131.941 60.7656C131.371 60.4531 130.891 60.0156 130.5 59.4531C130.117 58.8828 129.809 58.2227 129.574 57.4727C129.34 56.7227 129.16 55.918 129.035 55.0586V54.4141C129.16 53.4922 129.34 52.6484 129.574 51.8828C129.809 51.1094 130.117 50.4414 130.5 49.8789C130.891 49.3086 131.367 48.8672 131.93 48.5547C132.5 48.2422 133.168 48.0859 133.934 48.0859C134.738 48.0859 135.445 48.2383 136.055 48.543C136.672 48.8477 137.188 49.2852 137.602 49.8555C138.023 50.4258 138.34 51.1055 138.551 51.8945C138.77 52.6836 138.879 53.5586 138.879 54.5195ZM135.492 54.7656V54.5195C135.492 53.9805 135.445 53.4844 135.352 53.0312C135.266 52.5703 135.125 52.168 134.93 51.8242C134.742 51.4805 134.492 51.2148 134.18 51.0273C133.875 50.832 133.504 50.7344 133.066 50.7344C132.605 50.7344 132.211 50.8086 131.883 50.957C131.562 51.1055 131.301 51.3203 131.098 51.6016C130.895 51.8828 130.742 52.2188 130.641 52.6094C130.539 53 130.477 53.4414 130.453 53.9336V55.5625C130.492 56.1406 130.602 56.6602 130.781 57.1211C130.961 57.5742 131.238 57.9336 131.613 58.1992C131.988 58.4648 132.48 58.5977 133.09 58.5977C133.535 58.5977 133.91 58.5 134.215 58.3047C134.52 58.1016 134.766 57.8242 134.953 57.4727C135.148 57.1211 135.285 56.7148 135.363 56.2539C135.449 55.793 135.492 55.2969 135.492 54.7656ZM147.82 58.1406V52.4922C147.82 52.0859 147.754 51.7383 147.621 51.4492C147.488 51.1523 147.281 50.9219 147 50.7578C146.727 50.5938 146.371 50.5117 145.934 50.5117C145.559 50.5117 145.234 50.5781 144.961 50.7109C144.688 50.8359 144.477 51.0195 144.328 51.2617C144.18 51.4961 144.105 51.7734 144.105 52.0938H140.73C140.73 51.5547 140.855 51.043 141.105 50.5586C141.355 50.0742 141.719 49.6484 142.195 49.2812C142.672 48.9062 143.238 48.6133 143.895 48.4023C144.559 48.1914 145.301 48.0859 146.121 48.0859C147.105 48.0859 147.98 48.25 148.746 48.5781C149.512 48.9062 150.113 49.3984 150.551 50.0547C150.996 50.7109 151.219 51.5312 151.219 52.5156V57.9414C151.219 58.6367 151.262 59.207 151.348 59.6523C151.434 60.0898 151.559 60.4727 151.723 60.8008V61H148.312C148.148 60.6562 148.023 60.2266 147.938 59.7109C147.859 59.1875 147.82 58.6641 147.82 58.1406ZM148.266 53.2773L148.289 55.1875H146.402C145.957 55.1875 145.57 55.2383 145.242 55.3398C144.914 55.4414 144.645 55.5859 144.434 55.7734C144.223 55.9531 144.066 56.1641 143.965 56.4062C143.871 56.6484 143.824 56.9141 143.824 57.2031C143.824 57.4922 143.891 57.7539 144.023 57.9883C144.156 58.2148 144.348 58.3945 144.598 58.5273C144.848 58.6523 145.141 58.7148 145.477 58.7148C145.984 58.7148 146.426 58.6133 146.801 58.4102C147.176 58.207 147.465 57.957 147.668 57.6602C147.879 57.3633 147.988 57.082 147.996 56.8164L148.887 58.2461C148.762 58.5664 148.59 58.8984 148.371 59.2422C148.16 59.5859 147.891 59.9102 147.562 60.2148C147.234 60.5117 146.84 60.7578 146.379 60.9531C145.918 61.1406 145.371 61.2344 144.738 61.2344C143.934 61.2344 143.203 61.0742 142.547 60.7539C141.898 60.4258 141.383 59.9766 141 59.4062C140.625 58.8281 140.438 58.1719 140.438 57.4375C140.438 56.7734 140.562 56.1836 140.812 55.668C141.062 55.1523 141.43 54.7188 141.914 54.3672C142.406 54.0078 143.02 53.7383 143.754 53.5586C144.488 53.3711 145.34 53.2773 146.309 53.2773H148.266ZM159.059 58.5977C159.473 58.5977 159.84 58.5195 160.16 58.3633C160.48 58.1992 160.73 57.9727 160.91 57.6836C161.098 57.3867 161.195 57.0391 161.203 56.6406H164.379C164.371 57.5312 164.133 58.3242 163.664 59.0195C163.195 59.707 162.566 60.25 161.777 60.6484C160.988 61.0391 160.105 61.2344 159.129 61.2344C158.145 61.2344 157.285 61.0703 156.551 60.7422C155.824 60.4141 155.219 59.9609 154.734 59.3828C154.25 58.7969 153.887 58.1172 153.645 57.3438C153.402 56.5625 153.281 55.7266 153.281 54.8359V54.4961C153.281 53.5977 153.402 52.7617 153.645 51.9883C153.887 51.207 154.25 50.5273 154.734 49.9492C155.219 49.3633 155.824 48.9062 156.551 48.5781C157.277 48.25 158.129 48.0859 159.105 48.0859C160.145 48.0859 161.055 48.2852 161.836 48.6836C162.625 49.082 163.242 49.6523 163.688 50.3945C164.141 51.1289 164.371 52 164.379 53.0078H161.203C161.195 52.5859 161.105 52.2031 160.934 51.8594C160.77 51.5156 160.527 51.2422 160.207 51.0391C159.895 50.8281 159.508 50.7227 159.047 50.7227C158.555 50.7227 158.152 50.8281 157.84 51.0391C157.527 51.2422 157.285 51.5234 157.113 51.8828C156.941 52.2344 156.82 52.6367 156.75 53.0898C156.688 53.5352 156.656 54.0039 156.656 54.4961V54.8359C156.656 55.3281 156.688 55.8008 156.75 56.2539C156.812 56.707 156.93 57.1094 157.102 57.4609C157.281 57.8125 157.527 58.0898 157.84 58.293C158.152 58.4961 158.559 58.5977 159.059 58.5977ZM172.172 61.2344C171.188 61.2344 170.305 61.0781 169.523 60.7656C168.742 60.4453 168.078 60.0039 167.531 59.4414C166.992 58.8789 166.578 58.2266 166.289 57.4844C166 56.7344 165.855 55.9375 165.855 55.0938V54.625C165.855 53.6641 165.992 52.7852 166.266 51.9883C166.539 51.1914 166.93 50.5 167.438 49.9141C167.953 49.3281 168.578 48.8789 169.312 48.5664C170.047 48.2461 170.875 48.0859 171.797 48.0859C172.695 48.0859 173.492 48.2344 174.188 48.5312C174.883 48.8281 175.465 49.25 175.934 49.7969C176.41 50.3438 176.77 51 177.012 51.7656C177.254 52.5234 177.375 53.3672 177.375 54.2969V55.7031H167.297V53.4531H174.059V53.1953C174.059 52.7266 173.973 52.3086 173.801 51.9414C173.637 51.5664 173.387 51.2695 173.051 51.0508C172.715 50.832 172.285 50.7227 171.762 50.7227C171.316 50.7227 170.934 50.8203 170.613 51.0156C170.293 51.2109 170.031 51.4844 169.828 51.8359C169.633 52.1875 169.484 52.6016 169.383 53.0781C169.289 53.5469 169.242 54.0625 169.242 54.625V55.0938C169.242 55.6016 169.312 56.0703 169.453 56.5C169.602 56.9297 169.809 57.3008 170.074 57.6133C170.348 57.9258 170.676 58.168 171.059 58.3398C171.449 58.5117 171.891 58.5977 172.383 58.5977C172.992 58.5977 173.559 58.4805 174.082 58.2461C174.613 58.0039 175.07 57.6406 175.453 57.1562L177.094 58.9375C176.828 59.3203 176.465 59.6875 176.004 60.0391C175.551 60.3906 175.004 60.6797 174.363 60.9062C173.723 61.125 172.992 61.2344 172.172 61.2344ZM193.066 43.9375H196.043L200.426 56.4648L204.809 43.9375H207.785L201.621 61H199.23L193.066 43.9375ZM191.461 43.9375H194.426L194.965 56.1484V61H191.461V43.9375ZM206.426 43.9375H209.402V61H205.887V56.1484L206.426 43.9375ZM215.836 48.3203V61H212.449V48.3203H215.836ZM212.238 45.0156C212.238 44.5234 212.41 44.1172 212.754 43.7969C213.098 43.4766 213.559 43.3164 214.137 43.3164C214.707 43.3164 215.164 43.4766 215.508 43.7969C215.859 44.1172 216.035 44.5234 216.035 45.0156C216.035 45.5078 215.859 45.9141 215.508 46.2344C215.164 46.5547 214.707 46.7148 214.137 46.7148C213.559 46.7148 213.098 46.5547 212.754 46.2344C212.41 45.9141 212.238 45.5078 212.238 45.0156ZM225.48 57.4961C225.48 57.2539 225.41 57.0352 225.27 56.8398C225.129 56.6445 224.867 56.4648 224.484 56.3008C224.109 56.1289 223.566 55.9727 222.855 55.832C222.215 55.6914 221.617 55.5156 221.062 55.3047C220.516 55.0859 220.039 54.8242 219.633 54.5195C219.234 54.2148 218.922 53.8555 218.695 53.4414C218.469 53.0195 218.355 52.5391 218.355 52C218.355 51.4688 218.469 50.9688 218.695 50.5C218.93 50.0312 219.262 49.6172 219.691 49.2578C220.129 48.8906 220.66 48.6055 221.285 48.4023C221.918 48.1914 222.629 48.0859 223.418 48.0859C224.52 48.0859 225.465 48.2617 226.254 48.6133C227.051 48.9648 227.66 49.4492 228.082 50.0664C228.512 50.6758 228.727 51.3711 228.727 52.1523H225.352C225.352 51.8242 225.281 51.5312 225.141 51.2734C225.008 51.0078 224.797 50.8008 224.508 50.6523C224.227 50.4961 223.859 50.418 223.406 50.418C223.031 50.418 222.707 50.4844 222.434 50.6172C222.16 50.7422 221.949 50.9141 221.801 51.1328C221.66 51.3438 221.59 51.5781 221.59 51.8359C221.59 52.0312 221.629 52.207 221.707 52.3633C221.793 52.5117 221.93 52.6484 222.117 52.7734C222.305 52.8984 222.547 53.0156 222.844 53.125C223.148 53.2266 223.523 53.3203 223.969 53.4062C224.883 53.5938 225.699 53.8398 226.418 54.1445C227.137 54.4414 227.707 54.8477 228.129 55.3633C228.551 55.8711 228.762 56.5391 228.762 57.3672C228.762 57.9297 228.637 58.4453 228.387 58.9141C228.137 59.3828 227.777 59.793 227.309 60.1445C226.84 60.4883 226.277 60.7578 225.621 60.9531C224.973 61.1406 224.242 61.2344 223.43 61.2344C222.25 61.2344 221.25 61.0234 220.43 60.6016C219.617 60.1797 219 59.6445 218.578 58.9961C218.164 58.3398 217.957 57.668 217.957 56.9805H221.156C221.172 57.4414 221.289 57.8125 221.508 58.0938C221.734 58.375 222.02 58.5781 222.363 58.7031C222.715 58.8281 223.094 58.8906 223.5 58.8906C223.938 58.8906 224.301 58.832 224.59 58.7148C224.879 58.5898 225.098 58.4258 225.246 58.2227C225.402 58.0117 225.48 57.7695 225.48 57.4961ZM237.809 57.4961C237.809 57.2539 237.738 57.0352 237.598 56.8398C237.457 56.6445 237.195 56.4648 236.812 56.3008C236.438 56.1289 235.895 55.9727 235.184 55.832C234.543 55.6914 233.945 55.5156 233.391 55.3047C232.844 55.0859 232.367 54.8242 231.961 54.5195C231.562 54.2148 231.25 53.8555 231.023 53.4414C230.797 53.0195 230.684 52.5391 230.684 52C230.684 51.4688 230.797 50.9688 231.023 50.5C231.258 50.0312 231.59 49.6172 232.02 49.2578C232.457 48.8906 232.988 48.6055 233.613 48.4023C234.246 48.1914 234.957 48.0859 235.746 48.0859C236.848 48.0859 237.793 48.2617 238.582 48.6133C239.379 48.9648 239.988 49.4492 240.41 50.0664C240.84 50.6758 241.055 51.3711 241.055 52.1523H237.68C237.68 51.8242 237.609 51.5312 237.469 51.2734C237.336 51.0078 237.125 50.8008 236.836 50.6523C236.555 50.4961 236.188 50.418 235.734 50.418C235.359 50.418 235.035 50.4844 234.762 50.6172C234.488 50.7422 234.277 50.9141 234.129 51.1328C233.988 51.3438 233.918 51.5781 233.918 51.8359C233.918 52.0312 233.957 52.207 234.035 52.3633C234.121 52.5117 234.258 52.6484 234.445 52.7734C234.633 52.8984 234.875 53.0156 235.172 53.125C235.477 53.2266 235.852 53.3203 236.297 53.4062C237.211 53.5938 238.027 53.8398 238.746 54.1445C239.465 54.4414 240.035 54.8477 240.457 55.3633C240.879 55.8711 241.09 56.5391 241.09 57.3672C241.09 57.9297 240.965 58.4453 240.715 58.9141C240.465 59.3828 240.105 59.793 239.637 60.1445C239.168 60.4883 238.605 60.7578 237.949 60.9531C237.301 61.1406 236.57 61.2344 235.758 61.2344C234.578 61.2344 233.578 61.0234 232.758 60.6016C231.945 60.1797 231.328 59.6445 230.906 58.9961C230.492 58.3398 230.285 57.668 230.285 56.9805H233.484C233.5 57.4414 233.617 57.8125 233.836 58.0938C234.062 58.375 234.348 58.5781 234.691 58.7031C235.043 58.8281 235.422 58.8906 235.828 58.8906C236.266 58.8906 236.629 58.832 236.918 58.7148C237.207 58.5898 237.426 58.4258 237.574 58.2227C237.73 58.0117 237.809 57.7695 237.809 57.4961ZM246.844 48.3203V61H243.457V48.3203H246.844ZM243.246 45.0156C243.246 44.5234 243.418 44.1172 243.762 43.7969C244.105 43.4766 244.566 43.3164 245.145 43.3164C245.715 43.3164 246.172 43.4766 246.516 43.7969C246.867 44.1172 247.043 44.5234 247.043 45.0156C247.043 45.5078 246.867 45.9141 246.516 46.2344C246.172 46.5547 245.715 46.7148 245.145 46.7148C244.566 46.7148 244.105 46.5547 243.762 46.2344C243.418 45.9141 243.246 45.5078 243.246 45.0156ZM249.094 54.7891V54.543C249.094 53.6133 249.227 52.7578 249.492 51.9766C249.758 51.1875 250.145 50.5039 250.652 49.9258C251.16 49.3477 251.785 48.8984 252.527 48.5781C253.27 48.25 254.121 48.0859 255.082 48.0859C256.043 48.0859 256.898 48.25 257.648 48.5781C258.398 48.8984 259.027 49.3477 259.535 49.9258C260.051 50.5039 260.441 51.1875 260.707 51.9766C260.973 52.7578 261.105 53.6133 261.105 54.543V54.7891C261.105 55.7109 260.973 56.5664 260.707 57.3555C260.441 58.1367 260.051 58.8203 259.535 59.4062C259.027 59.9844 258.402 60.4336 257.66 60.7539C256.918 61.0742 256.066 61.2344 255.105 61.2344C254.145 61.2344 253.289 61.0742 252.539 60.7539C251.797 60.4336 251.168 59.9844 250.652 59.4062C250.145 58.8203 249.758 58.1367 249.492 57.3555C249.227 56.5664 249.094 55.7109 249.094 54.7891ZM252.469 54.543V54.7891C252.469 55.3203 252.516 55.8164 252.609 56.2773C252.703 56.7383 252.852 57.1445 253.055 57.4961C253.266 57.8398 253.539 58.1094 253.875 58.3047C254.211 58.5 254.621 58.5977 255.105 58.5977C255.574 58.5977 255.977 58.5 256.312 58.3047C256.648 58.1094 256.918 57.8398 257.121 57.4961C257.324 57.1445 257.473 56.7383 257.566 56.2773C257.668 55.8164 257.719 55.3203 257.719 54.7891V54.543C257.719 54.0273 257.668 53.543 257.566 53.0898C257.473 52.6289 257.32 52.2227 257.109 51.8711C256.906 51.5117 256.637 51.2305 256.301 51.0273C255.965 50.8242 255.559 50.7227 255.082 50.7227C254.605 50.7227 254.199 50.8242 253.863 51.0273C253.535 51.2305 253.266 51.5117 253.055 51.8711C252.852 52.2227 252.703 52.6289 252.609 53.0898C252.516 53.543 252.469 54.0273 252.469 54.543ZM266.484 51.0273V61H263.109V48.3203H266.273L266.484 51.0273ZM265.992 54.2148H265.078C265.078 53.2773 265.199 52.4336 265.441 51.6836C265.684 50.9258 266.023 50.2812 266.461 49.75C266.898 49.2109 267.418 48.8008 268.02 48.5195C268.629 48.2305 269.309 48.0859 270.059 48.0859C270.652 48.0859 271.195 48.1719 271.688 48.3438C272.18 48.5156 272.602 48.7891 272.953 49.1641C273.312 49.5391 273.586 50.0352 273.773 50.6523C273.969 51.2695 274.066 52.0234 274.066 52.9141V61H270.668V52.9023C270.668 52.3398 270.59 51.9023 270.434 51.5898C270.277 51.2773 270.047 51.0586 269.742 50.9336C269.445 50.8008 269.078 50.7344 268.641 50.7344C268.188 50.7344 267.793 50.8242 267.457 51.0039C267.129 51.1836 266.855 51.4336 266.637 51.7539C266.426 52.0664 266.266 52.4336 266.156 52.8555C266.047 53.2773 265.992 53.7305 265.992 54.2148ZM283.488 57.4961C283.488 57.2539 283.418 57.0352 283.277 56.8398C283.137 56.6445 282.875 56.4648 282.492 56.3008C282.117 56.1289 281.574 55.9727 280.863 55.832C280.223 55.6914 279.625 55.5156 279.07 55.3047C278.523 55.0859 278.047 54.8242 277.641 54.5195C277.242 54.2148 276.93 53.8555 276.703 53.4414C276.477 53.0195 276.363 52.5391 276.363 52C276.363 51.4688 276.477 50.9688 276.703 50.5C276.938 50.0312 277.27 49.6172 277.699 49.2578C278.137 48.8906 278.668 48.6055 279.293 48.4023C279.926 48.1914 280.637 48.0859 281.426 48.0859C282.527 48.0859 283.473 48.2617 284.262 48.6133C285.059 48.9648 285.668 49.4492 286.09 50.0664C286.52 50.6758 286.734 51.3711 286.734 52.1523H283.359C283.359 51.8242 283.289 51.5312 283.148 51.2734C283.016 51.0078 282.805 50.8008 282.516 50.6523C282.234 50.4961 281.867 50.418 281.414 50.418C281.039 50.418 280.715 50.4844 280.441 50.6172C280.168 50.7422 279.957 50.9141 279.809 51.1328C279.668 51.3438 279.598 51.5781 279.598 51.8359C279.598 52.0312 279.637 52.207 279.715 52.3633C279.801 52.5117 279.938 52.6484 280.125 52.7734C280.312 52.8984 280.555 53.0156 280.852 53.125C281.156 53.2266 281.531 53.3203 281.977 53.4062C282.891 53.5938 283.707 53.8398 284.426 54.1445C285.145 54.4414 285.715 54.8477 286.137 55.3633C286.559 55.8711 286.77 56.5391 286.77 57.3672C286.77 57.9297 286.645 58.4453 286.395 58.9141C286.145 59.3828 285.785 59.793 285.316 60.1445C284.848 60.4883 284.285 60.7578 283.629 60.9531C282.98 61.1406 282.25 61.2344 281.438 61.2344C280.258 61.2344 279.258 61.0234 278.438 60.6016C277.625 60.1797 277.008 59.6445 276.586 58.9961C276.172 58.3398 275.965 57.668 275.965 56.9805H279.164C279.18 57.4414 279.297 57.8125 279.516 58.0938C279.742 58.375 280.027 58.5781 280.371 58.7031C280.723 58.8281 281.102 58.8906 281.508 58.8906C281.945 58.8906 282.309 58.832 282.598 58.7148C282.887 58.5898 283.105 58.4258 283.254 58.2227C283.41 58.0117 283.488 57.7695 283.488 57.4961ZM302.086 46.8555L297.445 61H293.707L300.047 43.9375H302.426L302.086 46.8555ZM305.941 61L301.289 46.8555L300.914 43.9375H303.316L309.691 61H305.941ZM305.73 54.6484V57.4023H296.719V54.6484H305.73ZM313.992 51.0273V61H310.617V48.3203H313.781L313.992 51.0273ZM313.5 54.2148H312.586C312.586 53.2773 312.707 52.4336 312.949 51.6836C313.191 50.9258 313.531 50.2812 313.969 49.75C314.406 49.2109 314.926 48.8008 315.527 48.5195C316.137 48.2305 316.816 48.0859 317.566 48.0859C318.16 48.0859 318.703 48.1719 319.195 48.3438C319.688 48.5156 320.109 48.7891 320.461 49.1641C320.82 49.5391 321.094 50.0352 321.281 50.6523C321.477 51.2695 321.574 52.0234 321.574 52.9141V61H318.176V52.9023C318.176 52.3398 318.098 51.9023 317.941 51.5898C317.785 51.2773 317.555 51.0586 317.25 50.9336C316.953 50.8008 316.586 50.7344 316.148 50.7344C315.695 50.7344 315.301 50.8242 314.965 51.0039C314.637 51.1836 314.363 51.4336 314.145 51.7539C313.934 52.0664 313.773 52.4336 313.664 52.8555C313.555 53.2773 313.5 53.7305 313.5 54.2148ZM330.984 58.1406V52.4922C330.984 52.0859 330.918 51.7383 330.785 51.4492C330.652 51.1523 330.445 50.9219 330.164 50.7578C329.891 50.5938 329.535 50.5117 329.098 50.5117C328.723 50.5117 328.398 50.5781 328.125 50.7109C327.852 50.8359 327.641 51.0195 327.492 51.2617C327.344 51.4961 327.27 51.7734 327.27 52.0938H323.895C323.895 51.5547 324.02 51.043 324.27 50.5586C324.52 50.0742 324.883 49.6484 325.359 49.2812C325.836 48.9062 326.402 48.6133 327.059 48.4023C327.723 48.1914 328.465 48.0859 329.285 48.0859C330.27 48.0859 331.145 48.25 331.91 48.5781C332.676 48.9062 333.277 49.3984 333.715 50.0547C334.16 50.7109 334.383 51.5312 334.383 52.5156V57.9414C334.383 58.6367 334.426 59.207 334.512 59.6523C334.598 60.0898 334.723 60.4727 334.887 60.8008V61H331.477C331.312 60.6562 331.188 60.2266 331.102 59.7109C331.023 59.1875 330.984 58.6641 330.984 58.1406ZM331.43 53.2773L331.453 55.1875H329.566C329.121 55.1875 328.734 55.2383 328.406 55.3398C328.078 55.4414 327.809 55.5859 327.598 55.7734C327.387 55.9531 327.23 56.1641 327.129 56.4062C327.035 56.6484 326.988 56.9141 326.988 57.2031C326.988 57.4922 327.055 57.7539 327.188 57.9883C327.32 58.2148 327.512 58.3945 327.762 58.5273C328.012 58.6523 328.305 58.7148 328.641 58.7148C329.148 58.7148 329.59 58.6133 329.965 58.4102C330.34 58.207 330.629 57.957 330.832 57.6602C331.043 57.3633 331.152 57.082 331.16 56.8164L332.051 58.2461C331.926 58.5664 331.754 58.8984 331.535 59.2422C331.324 59.5859 331.055 59.9102 330.727 60.2148C330.398 60.5117 330.004 60.7578 329.543 60.9531C329.082 61.1406 328.535 61.2344 327.902 61.2344C327.098 61.2344 326.367 61.0742 325.711 60.7539C325.062 60.4258 324.547 59.9766 324.164 59.4062C323.789 58.8281 323.602 58.1719 323.602 57.4375C323.602 56.7734 323.727 56.1836 323.977 55.668C324.227 55.1523 324.594 54.7188 325.078 54.3672C325.57 54.0078 326.184 53.7383 326.918 53.5586C327.652 53.3711 328.504 53.2773 329.473 53.2773H331.43ZM340.547 43V61H337.16V43H340.547ZM347.098 59.5703L350.461 48.3203H354.082L348.984 62.9102C348.875 63.2305 348.727 63.5742 348.539 63.9414C348.359 64.3086 348.113 64.6562 347.801 64.9844C347.496 65.3203 347.109 65.5938 346.641 65.8047C346.18 66.0156 345.613 66.1211 344.941 66.1211C344.621 66.1211 344.359 66.1016 344.156 66.0625C343.953 66.0234 343.711 65.9688 343.43 65.8984V63.4258C343.516 63.4258 343.605 63.4258 343.699 63.4258C343.793 63.4336 343.883 63.4375 343.969 63.4375C344.414 63.4375 344.777 63.3867 345.059 63.2852C345.34 63.1836 345.566 63.0273 345.738 62.8164C345.91 62.6133 346.047 62.3477 346.148 62.0195L347.098 59.5703ZM345.691 48.3203L348.445 57.5078L348.926 61.082L346.629 61.3281L342.07 48.3203H345.691ZM362.285 57.4961C362.285 57.2539 362.215 57.0352 362.074 56.8398C361.934 56.6445 361.672 56.4648 361.289 56.3008C360.914 56.1289 360.371 55.9727 359.66 55.832C359.02 55.6914 358.422 55.5156 357.867 55.3047C357.32 55.0859 356.844 54.8242 356.438 54.5195C356.039 54.2148 355.727 53.8555 355.5 53.4414C355.273 53.0195 355.16 52.5391 355.16 52C355.16 51.4688 355.273 50.9688 355.5 50.5C355.734 50.0312 356.066 49.6172 356.496 49.2578C356.934 48.8906 357.465 48.6055 358.09 48.4023C358.723 48.1914 359.434 48.0859 360.223 48.0859C361.324 48.0859 362.27 48.2617 363.059 48.6133C363.855 48.9648 364.465 49.4492 364.887 50.0664C365.316 50.6758 365.531 51.3711 365.531 52.1523H362.156C362.156 51.8242 362.086 51.5312 361.945 51.2734C361.812 51.0078 361.602 50.8008 361.312 50.6523C361.031 50.4961 360.664 50.418 360.211 50.418C359.836 50.418 359.512 50.4844 359.238 50.6172C358.965 50.7422 358.754 50.9141 358.605 51.1328C358.465 51.3438 358.395 51.5781 358.395 51.8359C358.395 52.0312 358.434 52.207 358.512 52.3633C358.598 52.5117 358.734 52.6484 358.922 52.7734C359.109 52.8984 359.352 53.0156 359.648 53.125C359.953 53.2266 360.328 53.3203 360.773 53.4062C361.688 53.5938 362.504 53.8398 363.223 54.1445C363.941 54.4414 364.512 54.8477 364.934 55.3633C365.355 55.8711 365.566 56.5391 365.566 57.3672C365.566 57.9297 365.441 58.4453 365.191 58.9141C364.941 59.3828 364.582 59.793 364.113 60.1445C363.645 60.4883 363.082 60.7578 362.426 60.9531C361.777 61.1406 361.047 61.2344 360.234 61.2344C359.055 61.2344 358.055 61.0234 357.234 60.6016C356.422 60.1797 355.805 59.6445 355.383 58.9961C354.969 58.3398 354.762 57.668 354.762 56.9805H357.961C357.977 57.4414 358.094 57.8125 358.312 58.0938C358.539 58.375 358.824 58.5781 359.168 58.7031C359.52 58.8281 359.898 58.8906 360.305 58.8906C360.742 58.8906 361.105 58.832 361.395 58.7148C361.684 58.5898 361.902 58.4258 362.051 58.2227C362.207 58.0117 362.285 57.7695 362.285 57.4961ZM371.32 48.3203V61H367.934V48.3203H371.32ZM367.723 45.0156C367.723 44.5234 367.895 44.1172 368.238 43.7969C368.582 43.4766 369.043 43.3164 369.621 43.3164C370.191 43.3164 370.648 43.4766 370.992 43.7969C371.344 44.1172 371.52 44.5234 371.52 45.0156C371.52 45.5078 371.344 45.9141 370.992 46.2344C370.648 46.5547 370.191 46.7148 369.621 46.7148C369.043 46.7148 368.582 46.5547 368.238 46.2344C367.895 45.9141 367.723 45.5078 367.723 45.0156ZM380.965 57.4961C380.965 57.2539 380.895 57.0352 380.754 56.8398C380.613 56.6445 380.352 56.4648 379.969 56.3008C379.594 56.1289 379.051 55.9727 378.34 55.832C377.699 55.6914 377.102 55.5156 376.547 55.3047C376 55.0859 375.523 54.8242 375.117 54.5195C374.719 54.2148 374.406 53.8555 374.18 53.4414C373.953 53.0195 373.84 52.5391 373.84 52C373.84 51.4688 373.953 50.9688 374.18 50.5C374.414 50.0312 374.746 49.6172 375.176 49.2578C375.613 48.8906 376.145 48.6055 376.77 48.4023C377.402 48.1914 378.113 48.0859 378.902 48.0859C380.004 48.0859 380.949 48.2617 381.738 48.6133C382.535 48.9648 383.145 49.4492 383.566 50.0664C383.996 50.6758 384.211 51.3711 384.211 52.1523H380.836C380.836 51.8242 380.766 51.5312 380.625 51.2734C380.492 51.0078 380.281 50.8008 379.992 50.6523C379.711 50.4961 379.344 50.418 378.891 50.418C378.516 50.418 378.191 50.4844 377.918 50.6172C377.645 50.7422 377.434 50.9141 377.285 51.1328C377.145 51.3438 377.074 51.5781 377.074 51.8359C377.074 52.0312 377.113 52.207 377.191 52.3633C377.277 52.5117 377.414 52.6484 377.602 52.7734C377.789 52.8984 378.031 53.0156 378.328 53.125C378.633 53.2266 379.008 53.3203 379.453 53.4062C380.367 53.5938 381.184 53.8398 381.902 54.1445C382.621 54.4414 383.191 54.8477 383.613 55.3633C384.035 55.8711 384.246 56.5391 384.246 57.3672C384.246 57.9297 384.121 58.4453 383.871 58.9141C383.621 59.3828 383.262 59.793 382.793 60.1445C382.324 60.4883 381.762 60.7578 381.105 60.9531C380.457 61.1406 379.727 61.2344 378.914 61.2344C377.734 61.2344 376.734 61.0234 375.914 60.6016C375.102 60.1797 374.484 59.6445 374.062 58.9961C373.648 58.3398 373.441 57.668 373.441 56.9805H376.641C376.656 57.4414 376.773 57.8125 376.992 58.0938C377.219 58.375 377.504 58.5781 377.848 58.7031C378.199 58.8281 378.578 58.8906 378.984 58.8906C379.422 58.8906 379.785 58.832 380.074 58.7148C380.363 58.5898 380.582 58.4258 380.73 58.2227C380.887 58.0117 380.965 57.7695 380.965 57.4961Z" fill="#888888"/>
<path d="M104.344 84.875V119H96.1406V84.875H104.344ZM117.727 99.0078V119H109.828V93.6406H117.234L117.727 99.0078ZM116.766 105.453L114.961 105.5C114.961 103.719 115.172 102.078 115.594 100.578C116.016 99.0781 116.641 97.7734 117.469 96.6641C118.297 95.5547 119.312 94.6953 120.516 94.0859C121.734 93.4766 123.141 93.1719 124.734 93.1719C125.844 93.1719 126.852 93.3438 127.758 93.6875C128.664 94.0156 129.445 94.5391 130.102 95.2578C130.758 95.9609 131.258 96.8828 131.602 98.0234C131.961 99.1484 132.141 100.5 132.141 102.078V119H124.242V103.086C124.242 102.008 124.117 101.195 123.867 100.648C123.633 100.102 123.289 99.7344 122.836 99.5469C122.383 99.3594 121.828 99.2656 121.172 99.2656C120.484 99.2656 119.867 99.4219 119.32 99.7344C118.773 100.047 118.305 100.484 117.914 101.047C117.539 101.594 117.25 102.242 117.047 102.992C116.859 103.742 116.766 104.562 116.766 105.453ZM131.25 105.453L129.047 105.5C129.047 103.719 129.242 102.078 129.633 100.578C130.039 99.0781 130.641 97.7734 131.438 96.6641C132.25 95.5547 133.258 94.6953 134.461 94.0859C135.664 93.4766 137.062 93.1719 138.656 93.1719C139.812 93.1719 140.875 93.3438 141.844 93.6875C142.812 94.0312 143.648 94.5859 144.352 95.3516C145.055 96.1172 145.602 97.1328 145.992 98.3984C146.383 99.6484 146.578 101.195 146.578 103.039V119H138.656V103.039C138.656 101.992 138.531 101.203 138.281 100.672C138.047 100.125 137.703 99.7578 137.25 99.5703C136.797 99.3672 136.258 99.2656 135.633 99.2656C134.883 99.2656 134.234 99.4219 133.688 99.7344C133.141 100.047 132.68 100.484 132.305 101.047C131.945 101.594 131.68 102.242 131.508 102.992C131.336 103.742 131.25 104.562 131.25 105.453ZM159.07 98.5156V128.75H151.172V93.6406H158.531L159.07 98.5156ZM174.633 106.016V106.508C174.633 108.352 174.422 110.062 174 111.641C173.578 113.219 172.953 114.594 172.125 115.766C171.297 116.938 170.266 117.852 169.031 118.508C167.812 119.148 166.398 119.469 164.789 119.469C163.273 119.469 161.969 119.133 160.875 118.461C159.781 117.789 158.867 116.859 158.133 115.672C157.398 114.484 156.805 113.125 156.352 111.594C155.898 110.062 155.539 108.445 155.273 106.742V106.109C155.539 104.281 155.898 102.586 156.352 101.023C156.805 99.4453 157.398 98.0703 158.133 96.8984C158.867 95.7266 159.773 94.8125 160.852 94.1562C161.945 93.5 163.25 93.1719 164.766 93.1719C166.375 93.1719 167.789 93.4766 169.008 94.0859C170.242 94.6953 171.273 95.5703 172.102 96.7109C172.945 97.8359 173.578 99.1875 174 100.766C174.422 102.344 174.633 104.094 174.633 106.016ZM166.734 106.508V106.016C166.734 105.031 166.664 104.133 166.523 103.32C166.383 102.492 166.156 101.773 165.844 101.164C165.547 100.555 165.148 100.086 164.648 99.7578C164.148 99.4297 163.531 99.2656 162.797 99.2656C161.953 99.2656 161.242 99.3984 160.664 99.6641C160.102 99.9141 159.648 100.305 159.305 100.836C158.977 101.352 158.742 102 158.602 102.781C158.477 103.547 158.422 104.445 158.438 105.477V107.398C158.406 108.586 158.523 109.633 158.789 110.539C159.055 111.43 159.516 112.125 160.172 112.625C160.828 113.125 161.719 113.375 162.844 113.375C163.594 113.375 164.219 113.203 164.719 112.859C165.219 112.5 165.617 112.008 165.914 111.383C166.211 110.742 166.422 110.008 166.547 109.18C166.672 108.352 166.734 107.461 166.734 106.508ZM186.492 83V119H178.57V83H186.492ZM203.648 119.469C201.586 119.469 199.742 119.148 198.117 118.508C196.492 117.852 195.117 116.953 193.992 115.812C192.883 114.672 192.031 113.359 191.438 111.875C190.859 110.391 190.57 108.82 190.57 107.164V106.273C190.57 104.414 190.828 102.695 191.344 101.117C191.859 99.5234 192.625 98.1328 193.641 96.9453C194.656 95.7578 195.93 94.8359 197.461 94.1797C198.992 93.5078 200.773 93.1719 202.805 93.1719C204.602 93.1719 206.211 93.4609 207.633 94.0391C209.055 94.6172 210.258 95.4453 211.242 96.5234C212.242 97.6016 213 98.9062 213.516 100.438C214.047 101.969 214.312 103.688 214.312 105.594V108.805H193.594V103.859H206.602V103.25C206.617 102.406 206.469 101.688 206.156 101.094C205.859 100.5 205.422 100.047 204.844 99.7344C204.266 99.4219 203.562 99.2656 202.734 99.2656C201.875 99.2656 201.164 99.4531 200.602 99.8281C200.055 100.203 199.625 100.719 199.312 101.375C199.016 102.016 198.805 102.758 198.68 103.602C198.555 104.445 198.492 105.336 198.492 106.273V107.164C198.492 108.102 198.617 108.953 198.867 109.719C199.133 110.484 199.508 111.141 199.992 111.688C200.492 112.219 201.086 112.633 201.773 112.93C202.477 113.227 203.273 113.375 204.164 113.375C205.242 113.375 206.305 113.172 207.352 112.766C208.398 112.359 209.297 111.688 210.047 110.75L213.633 115.016C213.117 115.75 212.383 116.461 211.43 117.148C210.492 117.836 209.367 118.398 208.055 118.836C206.742 119.258 205.273 119.469 203.648 119.469ZM225.492 99.0078V119H217.594V93.6406H225L225.492 99.0078ZM224.531 105.453L222.727 105.5C222.727 103.719 222.938 102.078 223.359 100.578C223.781 99.0781 224.406 97.7734 225.234 96.6641C226.062 95.5547 227.078 94.6953 228.281 94.0859C229.5 93.4766 230.906 93.1719 232.5 93.1719C233.609 93.1719 234.617 93.3438 235.523 93.6875C236.43 94.0156 237.211 94.5391 237.867 95.2578C238.523 95.9609 239.023 96.8828 239.367 98.0234C239.727 99.1484 239.906 100.5 239.906 102.078V119H232.008V103.086C232.008 102.008 231.883 101.195 231.633 100.648C231.398 100.102 231.055 99.7344 230.602 99.5469C230.148 99.3594 229.594 99.2656 228.938 99.2656C228.25 99.2656 227.633 99.4219 227.086 99.7344C226.539 100.047 226.07 100.484 225.68 101.047C225.305 101.594 225.016 102.242 224.812 102.992C224.625 103.742 224.531 104.562 224.531 105.453ZM239.016 105.453L236.812 105.5C236.812 103.719 237.008 102.078 237.398 100.578C237.805 99.0781 238.406 97.7734 239.203 96.6641C240.016 95.5547 241.023 94.6953 242.227 94.0859C243.43 93.4766 244.828 93.1719 246.422 93.1719C247.578 93.1719 248.641 93.3438 249.609 93.6875C250.578 94.0312 251.414 94.5859 252.117 95.3516C252.82 96.1172 253.367 97.1328 253.758 98.3984C254.148 99.6484 254.344 101.195 254.344 103.039V119H246.422V103.039C246.422 101.992 246.297 101.203 246.047 100.672C245.812 100.125 245.469 99.7578 245.016 99.5703C244.562 99.3672 244.023 99.2656 243.398 99.2656C242.648 99.2656 242 99.4219 241.453 99.7344C240.906 100.047 240.445 100.484 240.07 101.047C239.711 101.594 239.445 102.242 239.273 102.992C239.102 103.742 239.016 104.562 239.016 105.453ZM271.148 119.469C269.086 119.469 267.242 119.148 265.617 118.508C263.992 117.852 262.617 116.953 261.492 115.812C260.383 114.672 259.531 113.359 258.938 111.875C258.359 110.391 258.07 108.82 258.07 107.164V106.273C258.07 104.414 258.328 102.695 258.844 101.117C259.359 99.5234 260.125 98.1328 261.141 96.9453C262.156 95.7578 263.43 94.8359 264.961 94.1797C266.492 93.5078 268.273 93.1719 270.305 93.1719C272.102 93.1719 273.711 93.4609 275.133 94.0391C276.555 94.6172 277.758 95.4453 278.742 96.5234C279.742 97.6016 280.5 98.9062 281.016 100.438C281.547 101.969 281.812 103.688 281.812 105.594V108.805H261.094V103.859H274.102V103.25C274.117 102.406 273.969 101.688 273.656 101.094C273.359 100.5 272.922 100.047 272.344 99.7344C271.766 99.4219 271.062 99.2656 270.234 99.2656C269.375 99.2656 268.664 99.4531 268.102 99.8281C267.555 100.203 267.125 100.719 266.812 101.375C266.516 102.016 266.305 102.758 266.18 103.602C266.055 104.445 265.992 105.336 265.992 106.273V107.164C265.992 108.102 266.117 108.953 266.367 109.719C266.633 110.484 267.008 111.141 267.492 111.688C267.992 112.219 268.586 112.633 269.273 112.93C269.977 113.227 270.773 113.375 271.664 113.375C272.742 113.375 273.805 113.172 274.852 112.766C275.898 112.359 276.797 111.688 277.547 110.75L281.133 115.016C280.617 115.75 279.883 116.461 278.93 117.148C277.992 117.836 276.867 118.398 275.555 118.836C274.242 119.258 272.773 119.469 271.148 119.469ZM292.781 99.0547V119H284.883V93.6406H292.289L292.781 99.0547ZM291.844 105.453L289.992 105.5C289.992 103.562 290.227 101.836 290.695 100.32C291.164 98.7891 291.828 97.4922 292.688 96.4297C293.547 95.3672 294.57 94.5625 295.758 94.0156C296.961 93.4531 298.297 93.1719 299.766 93.1719C300.938 93.1719 302.008 93.3438 302.977 93.6875C303.961 94.0312 304.805 94.5859 305.508 95.3516C306.227 96.1172 306.773 97.1328 307.148 98.3984C307.539 99.6484 307.734 101.195 307.734 103.039V119H299.789V103.016C299.789 102 299.648 101.227 299.367 100.695C299.086 100.148 298.68 99.7734 298.148 99.5703C297.617 99.3672 296.969 99.2656 296.203 99.2656C295.391 99.2656 294.703 99.4219 294.141 99.7344C293.578 100.047 293.125 100.484 292.781 101.047C292.453 101.594 292.211 102.242 292.055 102.992C291.914 103.742 291.844 104.562 291.844 105.453ZM325.477 93.6406V99.125H310.195V93.6406H325.477ZM313.406 87.3359H321.305V110.727C321.305 111.398 321.383 111.922 321.539 112.297C321.695 112.656 321.961 112.914 322.336 113.07C322.727 113.211 323.242 113.281 323.883 113.281C324.336 113.281 324.711 113.273 325.008 113.258C325.305 113.227 325.586 113.188 325.852 113.141V118.789C325.18 119.008 324.477 119.172 323.742 119.281C323.008 119.406 322.227 119.469 321.398 119.469C319.711 119.469 318.266 119.203 317.062 118.672C315.875 118.141 314.969 117.305 314.344 116.164C313.719 115.023 313.406 113.539 313.406 111.711V87.3359ZM341.789 112.625V102.172C341.789 101.453 341.688 100.836 341.484 100.32C341.281 99.8047 340.961 99.4062 340.523 99.125C340.086 98.8281 339.5 98.6797 338.766 98.6797C338.172 98.6797 337.664 98.7812 337.242 98.9844C336.82 99.1875 336.5 99.4922 336.281 99.8984C336.062 100.305 335.953 100.82 335.953 101.445H328.055C328.055 100.273 328.312 99.1875 328.828 98.1875C329.359 97.1719 330.109 96.2891 331.078 95.5391C332.062 94.7891 333.234 94.2109 334.594 93.8047C335.969 93.3828 337.5 93.1719 339.188 93.1719C341.203 93.1719 343 93.5078 344.578 94.1797C346.172 94.8516 347.43 95.8594 348.352 97.2031C349.273 98.5312 349.734 100.203 349.734 102.219V112.602C349.734 114.258 349.828 115.516 350.016 116.375C350.203 117.219 350.469 117.961 350.812 118.602V119H342.891C342.516 118.219 342.234 117.266 342.047 116.141C341.875 115 341.789 113.828 341.789 112.625ZM342.75 103.508L342.797 107.727H339.305C338.57 107.727 337.945 107.828 337.43 108.031C336.93 108.234 336.523 108.516 336.211 108.875C335.914 109.219 335.695 109.609 335.555 110.047C335.43 110.484 335.367 110.945 335.367 111.43C335.367 111.898 335.477 112.32 335.695 112.695C335.93 113.055 336.242 113.336 336.633 113.539C337.023 113.742 337.461 113.844 337.945 113.844C338.82 113.844 339.562 113.68 340.172 113.352C340.797 113.008 341.273 112.594 341.602 112.109C341.93 111.625 342.094 111.172 342.094 110.75L343.828 113.984C343.516 114.609 343.156 115.242 342.75 115.883C342.359 116.523 341.867 117.117 341.273 117.664C340.695 118.195 339.984 118.633 339.141 118.977C338.297 119.305 337.273 119.469 336.07 119.469C334.508 119.469 333.07 119.148 331.758 118.508C330.461 117.867 329.422 116.977 328.641 115.836C327.859 114.68 327.469 113.352 327.469 111.852C327.469 110.539 327.703 109.367 328.172 108.336C328.656 107.305 329.383 106.43 330.352 105.711C331.32 104.992 332.555 104.445 334.055 104.07C335.555 103.695 337.32 103.508 339.352 103.508H342.75ZM367.477 93.6406V99.125H352.195V93.6406H367.477ZM355.406 87.3359H363.305V110.727C363.305 111.398 363.383 111.922 363.539 112.297C363.695 112.656 363.961 112.914 364.336 113.07C364.727 113.211 365.242 113.281 365.883 113.281C366.336 113.281 366.711 113.273 367.008 113.258C367.305 113.227 367.586 113.188 367.852 113.141V118.789C367.18 119.008 366.477 119.172 365.742 119.281C365.008 119.406 364.227 119.469 363.398 119.469C361.711 119.469 360.266 119.203 359.062 118.672C357.875 118.141 356.969 117.305 356.344 116.164C355.719 115.023 355.406 113.539 355.406 111.711V87.3359ZM378.961 93.6406V119H371.039V93.6406H378.961ZM370.57 87.1016C370.57 85.9766 370.977 85.0547 371.789 84.3359C372.602 83.6172 373.656 83.2578 374.953 83.2578C376.25 83.2578 377.305 83.6172 378.117 84.3359C378.93 85.0547 379.336 85.9766 379.336 87.1016C379.336 88.2266 378.93 89.1484 378.117 89.8672C377.305 90.5859 376.25 90.9453 374.953 90.9453C373.656 90.9453 372.602 90.5859 371.789 89.8672C370.977 89.1484 370.57 88.2266 370.57 87.1016ZM382.852 106.578V106.086C382.852 104.227 383.117 102.516 383.648 100.953C384.18 99.375 384.961 98.0078 385.992 96.8516C387.023 95.6953 388.297 94.7969 389.812 94.1562C391.328 93.5 393.078 93.1719 395.062 93.1719C397.062 93.1719 398.82 93.5 400.336 94.1562C401.867 94.7969 403.148 95.6953 404.18 96.8516C405.211 98.0078 405.992 99.375 406.523 100.953C407.055 102.516 407.32 104.227 407.32 106.086V106.578C407.32 108.422 407.055 110.133 406.523 111.711C405.992 113.273 405.211 114.641 404.18 115.812C403.148 116.969 401.875 117.867 400.359 118.508C398.844 119.148 397.094 119.469 395.109 119.469C393.125 119.469 391.367 119.148 389.836 118.508C388.305 117.867 387.023 116.969 385.992 115.812C384.961 114.641 384.18 113.273 383.648 111.711C383.117 110.133 382.852 108.422 382.852 106.578ZM390.75 106.086V106.578C390.75 107.531 390.82 108.422 390.961 109.25C391.102 110.078 391.336 110.805 391.664 111.43C391.992 112.039 392.438 112.516 393 112.859C393.562 113.203 394.266 113.375 395.109 113.375C395.938 113.375 396.625 113.203 397.172 112.859C397.734 112.516 398.18 112.039 398.508 111.43C398.836 110.805 399.07 110.078 399.211 109.25C399.352 108.422 399.422 107.531 399.422 106.578V106.086C399.422 105.164 399.352 104.297 399.211 103.484C399.07 102.656 398.836 101.93 398.508 101.305C398.18 100.664 397.734 100.164 397.172 99.8047C396.609 99.4453 395.906 99.2656 395.062 99.2656C394.234 99.2656 393.539 99.4453 392.977 99.8047C392.43 100.164 391.992 100.664 391.664 101.305C391.336 101.93 391.102 102.656 390.961 103.484C390.82 104.297 390.75 105.164 390.75 106.086ZM418.594 99.0547V119H410.695V93.6406H418.102L418.594 99.0547ZM417.656 105.453L415.805 105.5C415.805 103.562 416.039 101.836 416.508 100.32C416.977 98.7891 417.641 97.4922 418.5 96.4297C419.359 95.3672 420.383 94.5625 421.57 94.0156C422.773 93.4531 424.109 93.1719 425.578 93.1719C426.75 93.1719 427.82 93.3438 428.789 93.6875C429.773 94.0312 430.617 94.5859 431.32 95.3516C432.039 96.1172 432.586 97.1328 432.961 98.3984C433.352 99.6484 433.547 101.195 433.547 103.039V119H425.602V103.016C425.602 102 425.461 101.227 425.18 100.695C424.898 100.148 424.492 99.7734 423.961 99.5703C423.43 99.3672 422.781 99.2656 422.016 99.2656C421.203 99.2656 420.516 99.4219 419.953 99.7344C419.391 100.047 418.938 100.484 418.594 101.047C418.266 101.594 418.023 102.242 417.867 102.992C417.727 103.742 417.656 104.562 417.656 105.453Z" fill="black"/>
<path d="M1134 0H1348C1356.28 0 1363 6.71573 1363 15V148C1363 156.284 1356.28 163 1348 163H1134V0Z" fill="#914B9D"/>
<path d="M1280.07 47.5H1216.93L1214.5 49.9286V113.071L1216.93 115.5H1280.07L1282.5 113.071V49.9286L1280.07 47.5ZM1277.64 110.643H1233.93V100.929H1245.1C1246.56 103.843 1249.96 105.786 1253.36 105.786C1258.7 105.786 1263.07 101.414 1263.07 96.0714C1263.07 90.7286 1258.7 86.3571 1253.36 86.3571C1248.01 86.3571 1243.64 90.7286 1243.64 96.0714H1229.07V110.643H1219.36V52.3571H1229.07V63.5286C1226.16 64.9857 1224.21 68.3857 1224.21 71.7857C1224.21 77.1286 1228.59 81.5 1233.93 81.5C1239.27 81.5 1243.64 77.1286 1243.64 71.7857H1253.36C1253.36 77.1286 1257.73 81.5 1263.07 81.5C1268.41 81.5 1272.79 77.1286 1272.79 71.7857C1272.79 66.4429 1268.41 62.0714 1263.07 62.0714C1259.67 62.0714 1256.27 64.0143 1254.81 66.9286H1242.19C1240.73 64.0143 1237.33 62.0714 1233.93 62.0714V52.3571H1277.64V110.643ZM1248.5 96.0714C1248.5 93.1571 1250.44 91.2143 1253.36 91.2143C1256.27 91.2143 1258.21 93.1571 1258.21 96.0714C1258.21 98.9857 1256.27 100.929 1253.36 100.929C1250.44 100.929 1248.5 98.9857 1248.5 96.0714ZM1233.93 66.9286C1236.84 66.9286 1238.79 68.8714 1238.79 71.7857C1238.79 74.7 1236.84 76.6429 1233.93 76.6429C1231.01 76.6429 1229.07 74.7 1229.07 71.7857C1229.07 68.8714 1231.01 66.9286 1233.93 66.9286ZM1263.07 66.9286C1265.99 66.9286 1267.93 68.8714 1267.93 71.7857C1267.93 74.7 1265.99 76.6429 1263.07 76.6429C1260.16 76.6429 1258.21 74.7 1258.21 71.7857C1258.21 68.8714 1260.16 66.9286 1263.07 66.9286Z" fill="white"/>
</svg>
