<svg width="1363" height="163" viewBox="0 0 1363 163" fill="none" xmlns="http://www.w3.org/2000/svg">
<path d="M0 15C0 6.71573 6.71573 0 15 0H37V163H15C6.71573 163 0 156.284 0 148V15Z" fill="#424242"/>
<rect width="1097" height="163" transform="translate(37)" fill="#F0F0F0"/>
<path d="M101.906 53.9219L94.3945 51.2383V48.0859L104.602 52.375V54.6367L101.906 53.9219ZM94.3945 56.1719L101.918 53.4297L104.602 52.7852V55.0352L94.3945 59.3242V56.1719ZM121.781 56.5352C121.781 56.2305 121.734 55.957 121.641 55.7148C121.555 55.4648 121.391 55.2383 121.148 55.0352C120.906 54.8242 120.566 54.6172 120.129 54.4141C119.691 54.2109 119.125 54 118.43 53.7812C117.656 53.5312 116.922 53.25 116.227 52.9375C115.539 52.625 114.93 52.2617 114.398 51.8477C113.875 51.4258 113.461 50.9375 113.156 50.3828C112.859 49.8281 112.711 49.1836 112.711 48.4492C112.711 47.7383 112.867 47.0938 113.18 46.5156C113.492 45.9297 113.93 45.4297 114.492 45.0156C115.055 44.5938 115.719 44.2695 116.484 44.043C117.258 43.8164 118.105 43.7031 119.027 43.7031C120.285 43.7031 121.383 43.9297 122.32 44.3828C123.258 44.8359 123.984 45.457 124.5 46.2461C125.023 47.0352 125.285 47.9375 125.285 48.9531H121.793C121.793 48.4531 121.688 48.0156 121.477 47.6406C121.273 47.2578 120.961 46.957 120.539 46.7383C120.125 46.5195 119.602 46.4102 118.969 46.4102C118.359 46.4102 117.852 46.5039 117.445 46.6914C117.039 46.8711 116.734 47.1172 116.531 47.4297C116.328 47.7344 116.227 48.0781 116.227 48.4609C116.227 48.75 116.297 49.0117 116.438 49.2461C116.586 49.4805 116.805 49.6992 117.094 49.9023C117.383 50.1055 117.738 50.2969 118.16 50.4766C118.582 50.6562 119.07 50.832 119.625 51.0039C120.555 51.2852 121.371 51.6016 122.074 51.9531C122.785 52.3047 123.379 52.6992 123.855 53.1367C124.332 53.5742 124.691 54.0703 124.934 54.625C125.176 55.1797 125.297 55.8086 125.297 56.5117C125.297 57.2539 125.152 57.918 124.863 58.5039C124.574 59.0898 124.156 59.5859 123.609 59.9922C123.062 60.3984 122.41 60.707 121.652 60.918C120.895 61.1289 120.047 61.2344 119.109 61.2344C118.266 61.2344 117.434 61.125 116.613 60.9062C115.793 60.6797 115.047 60.3398 114.375 59.8867C113.711 59.4336 113.18 58.8555 112.781 58.1523C112.383 57.4492 112.184 56.6172 112.184 55.6562H115.711C115.711 56.1875 115.793 56.6367 115.957 57.0039C116.121 57.3711 116.352 57.668 116.648 57.8945C116.953 58.1211 117.312 58.2852 117.727 58.3867C118.148 58.4883 118.609 58.5391 119.109 58.5391C119.719 58.5391 120.219 58.4531 120.609 58.2812C121.008 58.1094 121.301 57.8711 121.488 57.5664C121.684 57.2617 121.781 56.918 121.781 56.5352ZM130.852 50.7578V65.875H127.477V48.3203H130.605L130.852 50.7578ZM138.879 54.5195V54.7656C138.879 55.6875 138.77 56.543 138.551 57.332C138.34 58.1211 138.027 58.8086 137.613 59.3945C137.199 59.9727 136.684 60.4258 136.066 60.7539C135.457 61.0742 134.754 61.2344 133.957 61.2344C133.184 61.2344 132.512 61.0781 131.941 60.7656C131.371 60.4531 130.891 60.0156 130.5 59.4531C130.117 58.8828 129.809 58.2227 129.574 57.4727C129.34 56.7227 129.16 55.918 129.035 55.0586V54.4141C129.16 53.4922 129.34 52.6484 129.574 51.8828C129.809 51.1094 130.117 50.4414 130.5 49.8789C130.891 49.3086 131.367 48.8672 131.93 48.5547C132.5 48.2422 133.168 48.0859 133.934 48.0859C134.738 48.0859 135.445 48.2383 136.055 48.543C136.672 48.8477 137.188 49.2852 137.602 49.8555C138.023 50.4258 138.34 51.1055 138.551 51.8945C138.77 52.6836 138.879 53.5586 138.879 54.5195ZM135.492 54.7656V54.5195C135.492 53.9805 135.445 53.4844 135.352 53.0312C135.266 52.5703 135.125 52.168 134.93 51.8242C134.742 51.4805 134.492 51.2148 134.18 51.0273C133.875 50.832 133.504 50.7344 133.066 50.7344C132.605 50.7344 132.211 50.8086 131.883 50.957C131.562 51.1055 131.301 51.3203 131.098 51.6016C130.895 51.8828 130.742 52.2188 130.641 52.6094C130.539 53 130.477 53.4414 130.453 53.9336V55.5625C130.492 56.1406 130.602 56.6602 130.781 57.1211C130.961 57.5742 131.238 57.9336 131.613 58.1992C131.988 58.4648 132.48 58.5977 133.09 58.5977C133.535 58.5977 133.91 58.5 134.215 58.3047C134.52 58.1016 134.766 57.8242 134.953 57.4727C135.148 57.1211 135.285 56.7148 135.363 56.2539C135.449 55.793 135.492 55.2969 135.492 54.7656ZM147.82 58.1406V52.4922C147.82 52.0859 147.754 51.7383 147.621 51.4492C147.488 51.1523 147.281 50.9219 147 50.7578C146.727 50.5938 146.371 50.5117 145.934 50.5117C145.559 50.5117 145.234 50.5781 144.961 50.7109C144.688 50.8359 144.477 51.0195 144.328 51.2617C144.18 51.4961 144.105 51.7734 144.105 52.0938H140.73C140.73 51.5547 140.855 51.043 141.105 50.5586C141.355 50.0742 141.719 49.6484 142.195 49.2812C142.672 48.9062 143.238 48.6133 143.895 48.4023C144.559 48.1914 145.301 48.0859 146.121 48.0859C147.105 48.0859 147.98 48.25 148.746 48.5781C149.512 48.9062 150.113 49.3984 150.551 50.0547C150.996 50.7109 151.219 51.5312 151.219 52.5156V57.9414C151.219 58.6367 151.262 59.207 151.348 59.6523C151.434 60.0898 151.559 60.4727 151.723 60.8008V61H148.312C148.148 60.6562 148.023 60.2266 147.938 59.7109C147.859 59.1875 147.82 58.6641 147.82 58.1406ZM148.266 53.2773L148.289 55.1875H146.402C145.957 55.1875 145.57 55.2383 145.242 55.3398C144.914 55.4414 144.645 55.5859 144.434 55.7734C144.223 55.9531 144.066 56.1641 143.965 56.4062C143.871 56.6484 143.824 56.9141 143.824 57.2031C143.824 57.4922 143.891 57.7539 144.023 57.9883C144.156 58.2148 144.348 58.3945 144.598 58.5273C144.848 58.6523 145.141 58.7148 145.477 58.7148C145.984 58.7148 146.426 58.6133 146.801 58.4102C147.176 58.207 147.465 57.957 147.668 57.6602C147.879 57.3633 147.988 57.082 147.996 56.8164L148.887 58.2461C148.762 58.5664 148.59 58.8984 148.371 59.2422C148.16 59.5859 147.891 59.9102 147.562 60.2148C147.234 60.5117 146.84 60.7578 146.379 60.9531C145.918 61.1406 145.371 61.2344 144.738 61.2344C143.934 61.2344 143.203 61.0742 142.547 60.7539C141.898 60.4258 141.383 59.9766 141 59.4062C140.625 58.8281 140.438 58.1719 140.438 57.4375C140.438 56.7734 140.562 56.1836 140.812 55.668C141.062 55.1523 141.43 54.7188 141.914 54.3672C142.406 54.0078 143.02 53.7383 143.754 53.5586C144.488 53.3711 145.34 53.2773 146.309 53.2773H148.266ZM159.059 58.5977C159.473 58.5977 159.84 58.5195 160.16 58.3633C160.48 58.1992 160.73 57.9727 160.91 57.6836C161.098 57.3867 161.195 57.0391 161.203 56.6406H164.379C164.371 57.5312 164.133 58.3242 163.664 59.0195C163.195 59.707 162.566 60.25 161.777 60.6484C160.988 61.0391 160.105 61.2344 159.129 61.2344C158.145 61.2344 157.285 61.0703 156.551 60.7422C155.824 60.4141 155.219 59.9609 154.734 59.3828C154.25 58.7969 153.887 58.1172 153.645 57.3438C153.402 56.5625 153.281 55.7266 153.281 54.8359V54.4961C153.281 53.5977 153.402 52.7617 153.645 51.9883C153.887 51.207 154.25 50.5273 154.734 49.9492C155.219 49.3633 155.824 48.9062 156.551 48.5781C157.277 48.25 158.129 48.0859 159.105 48.0859C160.145 48.0859 161.055 48.2852 161.836 48.6836C162.625 49.082 163.242 49.6523 163.688 50.3945C164.141 51.1289 164.371 52 164.379 53.0078H161.203C161.195 52.5859 161.105 52.2031 160.934 51.8594C160.77 51.5156 160.527 51.2422 160.207 51.0391C159.895 50.8281 159.508 50.7227 159.047 50.7227C158.555 50.7227 158.152 50.8281 157.84 51.0391C157.527 51.2422 157.285 51.5234 157.113 51.8828C156.941 52.2344 156.82 52.6367 156.75 53.0898C156.688 53.5352 156.656 54.0039 156.656 54.4961V54.8359C156.656 55.3281 156.688 55.8008 156.75 56.2539C156.812 56.707 156.93 57.1094 157.102 57.4609C157.281 57.8125 157.527 58.0898 157.84 58.293C158.152 58.4961 158.559 58.5977 159.059 58.5977ZM172.172 61.2344C171.188 61.2344 170.305 61.0781 169.523 60.7656C168.742 60.4453 168.078 60.0039 167.531 59.4414C166.992 58.8789 166.578 58.2266 166.289 57.4844C166 56.7344 165.855 55.9375 165.855 55.0938V54.625C165.855 53.6641 165.992 52.7852 166.266 51.9883C166.539 51.1914 166.93 50.5 167.438 49.9141C167.953 49.3281 168.578 48.8789 169.312 48.5664C170.047 48.2461 170.875 48.0859 171.797 48.0859C172.695 48.0859 173.492 48.2344 174.188 48.5312C174.883 48.8281 175.465 49.25 175.934 49.7969C176.41 50.3438 176.77 51 177.012 51.7656C177.254 52.5234 177.375 53.3672 177.375 54.2969V55.7031H167.297V53.4531H174.059V53.1953C174.059 52.7266 173.973 52.3086 173.801 51.9414C173.637 51.5664 173.387 51.2695 173.051 51.0508C172.715 50.832 172.285 50.7227 171.762 50.7227C171.316 50.7227 170.934 50.8203 170.613 51.0156C170.293 51.2109 170.031 51.4844 169.828 51.8359C169.633 52.1875 169.484 52.6016 169.383 53.0781C169.289 53.5469 169.242 54.0625 169.242 54.625V55.0938C169.242 55.6016 169.312 56.0703 169.453 56.5C169.602 56.9297 169.809 57.3008 170.074 57.6133C170.348 57.9258 170.676 58.168 171.059 58.3398C171.449 58.5117 171.891 58.5977 172.383 58.5977C172.992 58.5977 173.559 58.4805 174.082 58.2461C174.613 58.0039 175.07 57.6406 175.453 57.1562L177.094 58.9375C176.828 59.3203 176.465 59.6875 176.004 60.0391C175.551 60.3906 175.004 60.6797 174.363 60.9062C173.723 61.125 172.992 61.2344 172.172 61.2344ZM193.066 43.9375H196.043L200.426 56.4648L204.809 43.9375H207.785L201.621 61H199.23L193.066 43.9375ZM191.461 43.9375H194.426L194.965 56.1484V61H191.461V43.9375ZM206.426 43.9375H209.402V61H205.887V56.1484L206.426 43.9375ZM215.836 48.3203V61H212.449V48.3203H215.836ZM212.238 45.0156C212.238 44.5234 212.41 44.1172 212.754 43.7969C213.098 43.4766 213.559 43.3164 214.137 43.3164C214.707 43.3164 215.164 43.4766 215.508 43.7969C215.859 44.1172 216.035 44.5234 216.035 45.0156C216.035 45.5078 215.859 45.9141 215.508 46.2344C215.164 46.5547 214.707 46.7148 214.137 46.7148C213.559 46.7148 213.098 46.5547 212.754 46.2344C212.41 45.9141 212.238 45.5078 212.238 45.0156ZM225.48 57.4961C225.48 57.2539 225.41 57.0352 225.27 56.8398C225.129 56.6445 224.867 56.4648 224.484 56.3008C224.109 56.1289 223.566 55.9727 222.855 55.832C222.215 55.6914 221.617 55.5156 221.062 55.3047C220.516 55.0859 220.039 54.8242 219.633 54.5195C219.234 54.2148 218.922 53.8555 218.695 53.4414C218.469 53.0195 218.355 52.5391 218.355 52C218.355 51.4688 218.469 50.9688 218.695 50.5C218.93 50.0312 219.262 49.6172 219.691 49.2578C220.129 48.8906 220.66 48.6055 221.285 48.4023C221.918 48.1914 222.629 48.0859 223.418 48.0859C224.52 48.0859 225.465 48.2617 226.254 48.6133C227.051 48.9648 227.66 49.4492 228.082 50.0664C228.512 50.6758 228.727 51.3711 228.727 52.1523H225.352C225.352 51.8242 225.281 51.5312 225.141 51.2734C225.008 51.0078 224.797 50.8008 224.508 50.6523C224.227 50.4961 223.859 50.418 223.406 50.418C223.031 50.418 222.707 50.4844 222.434 50.6172C222.16 50.7422 221.949 50.9141 221.801 51.1328C221.66 51.3438 221.59 51.5781 221.59 51.8359C221.59 52.0312 221.629 52.207 221.707 52.3633C221.793 52.5117 221.93 52.6484 222.117 52.7734C222.305 52.8984 222.547 53.0156 222.844 53.125C223.148 53.2266 223.523 53.3203 223.969 53.4062C224.883 53.5938 225.699 53.8398 226.418 54.1445C227.137 54.4414 227.707 54.8477 228.129 55.3633C228.551 55.8711 228.762 56.5391 228.762 57.3672C228.762 57.9297 228.637 58.4453 228.387 58.9141C228.137 59.3828 227.777 59.793 227.309 60.1445C226.84 60.4883 226.277 60.7578 225.621 60.9531C224.973 61.1406 224.242 61.2344 223.43 61.2344C222.25 61.2344 221.25 61.0234 220.43 60.6016C219.617 60.1797 219 59.6445 218.578 58.9961C218.164 58.3398 217.957 57.668 217.957 56.9805H221.156C221.172 57.4414 221.289 57.8125 221.508 58.0938C221.734 58.375 222.02 58.5781 222.363 58.7031C222.715 58.8281 223.094 58.8906 223.5 58.8906C223.938 58.8906 224.301 58.832 224.59 58.7148C224.879 58.5898 225.098 58.4258 225.246 58.2227C225.402 58.0117 225.48 57.7695 225.48 57.4961ZM237.809 57.4961C237.809 57.2539 237.738 57.0352 237.598 56.8398C237.457 56.6445 237.195 56.4648 236.812 56.3008C236.438 56.1289 235.895 55.9727 235.184 55.832C234.543 55.6914 233.945 55.5156 233.391 55.3047C232.844 55.0859 232.367 54.8242 231.961 54.5195C231.562 54.2148 231.25 53.8555 231.023 53.4414C230.797 53.0195 230.684 52.5391 230.684 52C230.684 51.4688 230.797 50.9688 231.023 50.5C231.258 50.0312 231.59 49.6172 232.02 49.2578C232.457 48.8906 232.988 48.6055 233.613 48.4023C234.246 48.1914 234.957 48.0859 235.746 48.0859C236.848 48.0859 237.793 48.2617 238.582 48.6133C239.379 48.9648 239.988 49.4492 240.41 50.0664C240.84 50.6758 241.055 51.3711 241.055 52.1523H237.68C237.68 51.8242 237.609 51.5312 237.469 51.2734C237.336 51.0078 237.125 50.8008 236.836 50.6523C236.555 50.4961 236.188 50.418 235.734 50.418C235.359 50.418 235.035 50.4844 234.762 50.6172C234.488 50.7422 234.277 50.9141 234.129 51.1328C233.988 51.3438 233.918 51.5781 233.918 51.8359C233.918 52.0312 233.957 52.207 234.035 52.3633C234.121 52.5117 234.258 52.6484 234.445 52.7734C234.633 52.8984 234.875 53.0156 235.172 53.125C235.477 53.2266 235.852 53.3203 236.297 53.4062C237.211 53.5938 238.027 53.8398 238.746 54.1445C239.465 54.4414 240.035 54.8477 240.457 55.3633C240.879 55.8711 241.09 56.5391 241.09 57.3672C241.09 57.9297 240.965 58.4453 240.715 58.9141C240.465 59.3828 240.105 59.793 239.637 60.1445C239.168 60.4883 238.605 60.7578 237.949 60.9531C237.301 61.1406 236.57 61.2344 235.758 61.2344C234.578 61.2344 233.578 61.0234 232.758 60.6016C231.945 60.1797 231.328 59.6445 230.906 58.9961C230.492 58.3398 230.285 57.668 230.285 56.9805H233.484C233.5 57.4414 233.617 57.8125 233.836 58.0938C234.062 58.375 234.348 58.5781 234.691 58.7031C235.043 58.8281 235.422 58.8906 235.828 58.8906C236.266 58.8906 236.629 58.832 236.918 58.7148C237.207 58.5898 237.426 58.4258 237.574 58.2227C237.73 58.0117 237.809 57.7695 237.809 57.4961ZM246.844 48.3203V61H243.457V48.3203H246.844ZM243.246 45.0156C243.246 44.5234 243.418 44.1172 243.762 43.7969C244.105 43.4766 244.566 43.3164 245.145 43.3164C245.715 43.3164 246.172 43.4766 246.516 43.7969C246.867 44.1172 247.043 44.5234 247.043 45.0156C247.043 45.5078 246.867 45.9141 246.516 46.2344C246.172 46.5547 245.715 46.7148 245.145 46.7148C244.566 46.7148 244.105 46.5547 243.762 46.2344C243.418 45.9141 243.246 45.5078 243.246 45.0156ZM249.094 54.7891V54.543C249.094 53.6133 249.227 52.7578 249.492 51.9766C249.758 51.1875 250.145 50.5039 250.652 49.9258C251.16 49.3477 251.785 48.8984 252.527 48.5781C253.27 48.25 254.121 48.0859 255.082 48.0859C256.043 48.0859 256.898 48.25 257.648 48.5781C258.398 48.8984 259.027 49.3477 259.535 49.9258C260.051 50.5039 260.441 51.1875 260.707 51.9766C260.973 52.7578 261.105 53.6133 261.105 54.543V54.7891C261.105 55.7109 260.973 56.5664 260.707 57.3555C260.441 58.1367 260.051 58.8203 259.535 59.4062C259.027 59.9844 258.402 60.4336 257.66 60.7539C256.918 61.0742 256.066 61.2344 255.105 61.2344C254.145 61.2344 253.289 61.0742 252.539 60.7539C251.797 60.4336 251.168 59.9844 250.652 59.4062C250.145 58.8203 249.758 58.1367 249.492 57.3555C249.227 56.5664 249.094 55.7109 249.094 54.7891ZM252.469 54.543V54.7891C252.469 55.3203 252.516 55.8164 252.609 56.2773C252.703 56.7383 252.852 57.1445 253.055 57.4961C253.266 57.8398 253.539 58.1094 253.875 58.3047C254.211 58.5 254.621 58.5977 255.105 58.5977C255.574 58.5977 255.977 58.5 256.312 58.3047C256.648 58.1094 256.918 57.8398 257.121 57.4961C257.324 57.1445 257.473 56.7383 257.566 56.2773C257.668 55.8164 257.719 55.3203 257.719 54.7891V54.543C257.719 54.0273 257.668 53.543 257.566 53.0898C257.473 52.6289 257.32 52.2227 257.109 51.8711C256.906 51.5117 256.637 51.2305 256.301 51.0273C255.965 50.8242 255.559 50.7227 255.082 50.7227C254.605 50.7227 254.199 50.8242 253.863 51.0273C253.535 51.2305 253.266 51.5117 253.055 51.8711C252.852 52.2227 252.703 52.6289 252.609 53.0898C252.516 53.543 252.469 54.0273 252.469 54.543ZM266.484 51.0273V61H263.109V48.3203H266.273L266.484 51.0273ZM265.992 54.2148H265.078C265.078 53.2773 265.199 52.4336 265.441 51.6836C265.684 50.9258 266.023 50.2812 266.461 49.75C266.898 49.2109 267.418 48.8008 268.02 48.5195C268.629 48.2305 269.309 48.0859 270.059 48.0859C270.652 48.0859 271.195 48.1719 271.688 48.3438C272.18 48.5156 272.602 48.7891 272.953 49.1641C273.312 49.5391 273.586 50.0352 273.773 50.6523C273.969 51.2695 274.066 52.0234 274.066 52.9141V61H270.668V52.9023C270.668 52.3398 270.59 51.9023 270.434 51.5898C270.277 51.2773 270.047 51.0586 269.742 50.9336C269.445 50.8008 269.078 50.7344 268.641 50.7344C268.188 50.7344 267.793 50.8242 267.457 51.0039C267.129 51.1836 266.855 51.4336 266.637 51.7539C266.426 52.0664 266.266 52.4336 266.156 52.8555C266.047 53.2773 265.992 53.7305 265.992 54.2148ZM283.488 57.4961C283.488 57.2539 283.418 57.0352 283.277 56.8398C283.137 56.6445 282.875 56.4648 282.492 56.3008C282.117 56.1289 281.574 55.9727 280.863 55.832C280.223 55.6914 279.625 55.5156 279.07 55.3047C278.523 55.0859 278.047 54.8242 277.641 54.5195C277.242 54.2148 276.93 53.8555 276.703 53.4414C276.477 53.0195 276.363 52.5391 276.363 52C276.363 51.4688 276.477 50.9688 276.703 50.5C276.938 50.0312 277.27 49.6172 277.699 49.2578C278.137 48.8906 278.668 48.6055 279.293 48.4023C279.926 48.1914 280.637 48.0859 281.426 48.0859C282.527 48.0859 283.473 48.2617 284.262 48.6133C285.059 48.9648 285.668 49.4492 286.09 50.0664C286.52 50.6758 286.734 51.3711 286.734 52.1523H283.359C283.359 51.8242 283.289 51.5312 283.148 51.2734C283.016 51.0078 282.805 50.8008 282.516 50.6523C282.234 50.4961 281.867 50.418 281.414 50.418C281.039 50.418 280.715 50.4844 280.441 50.6172C280.168 50.7422 279.957 50.9141 279.809 51.1328C279.668 51.3438 279.598 51.5781 279.598 51.8359C279.598 52.0312 279.637 52.207 279.715 52.3633C279.801 52.5117 279.938 52.6484 280.125 52.7734C280.312 52.8984 280.555 53.0156 280.852 53.125C281.156 53.2266 281.531 53.3203 281.977 53.4062C282.891 53.5938 283.707 53.8398 284.426 54.1445C285.145 54.4414 285.715 54.8477 286.137 55.3633C286.559 55.8711 286.77 56.5391 286.77 57.3672C286.77 57.9297 286.645 58.4453 286.395 58.9141C286.145 59.3828 285.785 59.793 285.316 60.1445C284.848 60.4883 284.285 60.7578 283.629 60.9531C282.98 61.1406 282.25 61.2344 281.438 61.2344C280.258 61.2344 279.258 61.0234 278.438 60.6016C277.625 60.1797 277.008 59.6445 276.586 58.9961C276.172 58.3398 275.965 57.668 275.965 56.9805H279.164C279.18 57.4414 279.297 57.8125 279.516 58.0938C279.742 58.375 280.027 58.5781 280.371 58.7031C280.723 58.8281 281.102 58.8906 281.508 58.8906C281.945 58.8906 282.309 58.832 282.598 58.7148C282.887 58.5898 283.105 58.4258 283.254 58.2227C283.41 58.0117 283.488 57.7695 283.488 57.4961ZM302.086 46.8555L297.445 61H293.707L300.047 43.9375H302.426L302.086 46.8555ZM305.941 61L301.289 46.8555L300.914 43.9375H303.316L309.691 61H305.941ZM305.73 54.6484V57.4023H296.719V54.6484H305.73ZM313.992 51.0273V61H310.617V48.3203H313.781L313.992 51.0273ZM313.5 54.2148H312.586C312.586 53.2773 312.707 52.4336 312.949 51.6836C313.191 50.9258 313.531 50.2812 313.969 49.75C314.406 49.2109 314.926 48.8008 315.527 48.5195C316.137 48.2305 316.816 48.0859 317.566 48.0859C318.16 48.0859 318.703 48.1719 319.195 48.3438C319.688 48.5156 320.109 48.7891 320.461 49.1641C320.82 49.5391 321.094 50.0352 321.281 50.6523C321.477 51.2695 321.574 52.0234 321.574 52.9141V61H318.176V52.9023C318.176 52.3398 318.098 51.9023 317.941 51.5898C317.785 51.2773 317.555 51.0586 317.25 50.9336C316.953 50.8008 316.586 50.7344 316.148 50.7344C315.695 50.7344 315.301 50.8242 314.965 51.0039C314.637 51.1836 314.363 51.4336 314.145 51.7539C313.934 52.0664 313.773 52.4336 313.664 52.8555C313.555 53.2773 313.5 53.7305 313.5 54.2148ZM330.984 58.1406V52.4922C330.984 52.0859 330.918 51.7383 330.785 51.4492C330.652 51.1523 330.445 50.9219 330.164 50.7578C329.891 50.5938 329.535 50.5117 329.098 50.5117C328.723 50.5117 328.398 50.5781 328.125 50.7109C327.852 50.8359 327.641 51.0195 327.492 51.2617C327.344 51.4961 327.27 51.7734 327.27 52.0938H323.895C323.895 51.5547 324.02 51.043 324.27 50.5586C324.52 50.0742 324.883 49.6484 325.359 49.2812C325.836 48.9062 326.402 48.6133 327.059 48.4023C327.723 48.1914 328.465 48.0859 329.285 48.0859C330.27 48.0859 331.145 48.25 331.91 48.5781C332.676 48.9062 333.277 49.3984 333.715 50.0547C334.16 50.7109 334.383 51.5312 334.383 52.5156V57.9414C334.383 58.6367 334.426 59.207 334.512 59.6523C334.598 60.0898 334.723 60.4727 334.887 60.8008V61H331.477C331.312 60.6562 331.188 60.2266 331.102 59.7109C331.023 59.1875 330.984 58.6641 330.984 58.1406ZM331.43 53.2773L331.453 55.1875H329.566C329.121 55.1875 328.734 55.2383 328.406 55.3398C328.078 55.4414 327.809 55.5859 327.598 55.7734C327.387 55.9531 327.23 56.1641 327.129 56.4062C327.035 56.6484 326.988 56.9141 326.988 57.2031C326.988 57.4922 327.055 57.7539 327.188 57.9883C327.32 58.2148 327.512 58.3945 327.762 58.5273C328.012 58.6523 328.305 58.7148 328.641 58.7148C329.148 58.7148 329.59 58.6133 329.965 58.4102C330.34 58.207 330.629 57.957 330.832 57.6602C331.043 57.3633 331.152 57.082 331.16 56.8164L332.051 58.2461C331.926 58.5664 331.754 58.8984 331.535 59.2422C331.324 59.5859 331.055 59.9102 330.727 60.2148C330.398 60.5117 330.004 60.7578 329.543 60.9531C329.082 61.1406 328.535 61.2344 327.902 61.2344C327.098 61.2344 326.367 61.0742 325.711 60.7539C325.062 60.4258 324.547 59.9766 324.164 59.4062C323.789 58.8281 323.602 58.1719 323.602 57.4375C323.602 56.7734 323.727 56.1836 323.977 55.668C324.227 55.1523 324.594 54.7188 325.078 54.3672C325.57 54.0078 326.184 53.7383 326.918 53.5586C327.652 53.3711 328.504 53.2773 329.473 53.2773H331.43ZM340.547 43V61H337.16V43H340.547ZM347.098 59.5703L350.461 48.3203H354.082L348.984 62.9102C348.875 63.2305 348.727 63.5742 348.539 63.9414C348.359 64.3086 348.113 64.6562 347.801 64.9844C347.496 65.3203 347.109 65.5938 346.641 65.8047C346.18 66.0156 345.613 66.1211 344.941 66.1211C344.621 66.1211 344.359 66.1016 344.156 66.0625C343.953 66.0234 343.711 65.9688 343.43 65.8984V63.4258C343.516 63.4258 343.605 63.4258 343.699 63.4258C343.793 63.4336 343.883 63.4375 343.969 63.4375C344.414 63.4375 344.777 63.3867 345.059 63.2852C345.34 63.1836 345.566 63.0273 345.738 62.8164C345.91 62.6133 346.047 62.3477 346.148 62.0195L347.098 59.5703ZM345.691 48.3203L348.445 57.5078L348.926 61.082L346.629 61.3281L342.07 48.3203H345.691ZM362.285 57.4961C362.285 57.2539 362.215 57.0352 362.074 56.8398C361.934 56.6445 361.672 56.4648 361.289 56.3008C360.914 56.1289 360.371 55.9727 359.66 55.832C359.02 55.6914 358.422 55.5156 357.867 55.3047C357.32 55.0859 356.844 54.8242 356.438 54.5195C356.039 54.2148 355.727 53.8555 355.5 53.4414C355.273 53.0195 355.16 52.5391 355.16 52C355.16 51.4688 355.273 50.9688 355.5 50.5C355.734 50.0312 356.066 49.6172 356.496 49.2578C356.934 48.8906 357.465 48.6055 358.09 48.4023C358.723 48.1914 359.434 48.0859 360.223 48.0859C361.324 48.0859 362.27 48.2617 363.059 48.6133C363.855 48.9648 364.465 49.4492 364.887 50.0664C365.316 50.6758 365.531 51.3711 365.531 52.1523H362.156C362.156 51.8242 362.086 51.5312 361.945 51.2734C361.812 51.0078 361.602 50.8008 361.312 50.6523C361.031 50.4961 360.664 50.418 360.211 50.418C359.836 50.418 359.512 50.4844 359.238 50.6172C358.965 50.7422 358.754 50.9141 358.605 51.1328C358.465 51.3438 358.395 51.5781 358.395 51.8359C358.395 52.0312 358.434 52.207 358.512 52.3633C358.598 52.5117 358.734 52.6484 358.922 52.7734C359.109 52.8984 359.352 53.0156 359.648 53.125C359.953 53.2266 360.328 53.3203 360.773 53.4062C361.688 53.5938 362.504 53.8398 363.223 54.1445C363.941 54.4414 364.512 54.8477 364.934 55.3633C365.355 55.8711 365.566 56.5391 365.566 57.3672C365.566 57.9297 365.441 58.4453 365.191 58.9141C364.941 59.3828 364.582 59.793 364.113 60.1445C363.645 60.4883 363.082 60.7578 362.426 60.9531C361.777 61.1406 361.047 61.2344 360.234 61.2344C359.055 61.2344 358.055 61.0234 357.234 60.6016C356.422 60.1797 355.805 59.6445 355.383 58.9961C354.969 58.3398 354.762 57.668 354.762 56.9805H357.961C357.977 57.4414 358.094 57.8125 358.312 58.0938C358.539 58.375 358.824 58.5781 359.168 58.7031C359.52 58.8281 359.898 58.8906 360.305 58.8906C360.742 58.8906 361.105 58.832 361.395 58.7148C361.684 58.5898 361.902 58.4258 362.051 58.2227C362.207 58.0117 362.285 57.7695 362.285 57.4961ZM371.32 48.3203V61H367.934V48.3203H371.32ZM367.723 45.0156C367.723 44.5234 367.895 44.1172 368.238 43.7969C368.582 43.4766 369.043 43.3164 369.621 43.3164C370.191 43.3164 370.648 43.4766 370.992 43.7969C371.344 44.1172 371.52 44.5234 371.52 45.0156C371.52 45.5078 371.344 45.9141 370.992 46.2344C370.648 46.5547 370.191 46.7148 369.621 46.7148C369.043 46.7148 368.582 46.5547 368.238 46.2344C367.895 45.9141 367.723 45.5078 367.723 45.0156ZM380.965 57.4961C380.965 57.2539 380.895 57.0352 380.754 56.8398C380.613 56.6445 380.352 56.4648 379.969 56.3008C379.594 56.1289 379.051 55.9727 378.34 55.832C377.699 55.6914 377.102 55.5156 376.547 55.3047C376 55.0859 375.523 54.8242 375.117 54.5195C374.719 54.2148 374.406 53.8555 374.18 53.4414C373.953 53.0195 373.84 52.5391 373.84 52C373.84 51.4688 373.953 50.9688 374.18 50.5C374.414 50.0312 374.746 49.6172 375.176 49.2578C375.613 48.8906 376.145 48.6055 376.77 48.4023C377.402 48.1914 378.113 48.0859 378.902 48.0859C380.004 48.0859 380.949 48.2617 381.738 48.6133C382.535 48.9648 383.145 49.4492 383.566 50.0664C383.996 50.6758 384.211 51.3711 384.211 52.1523H380.836C380.836 51.8242 380.766 51.5312 380.625 51.2734C380.492 51.0078 380.281 50.8008 379.992 50.6523C379.711 50.4961 379.344 50.418 378.891 50.418C378.516 50.418 378.191 50.4844 377.918 50.6172C377.645 50.7422 377.434 50.9141 377.285 51.1328C377.145 51.3438 377.074 51.5781 377.074 51.8359C377.074 52.0312 377.113 52.207 377.191 52.3633C377.277 52.5117 377.414 52.6484 377.602 52.7734C377.789 52.8984 378.031 53.0156 378.328 53.125C378.633 53.2266 379.008 53.3203 379.453 53.4062C380.367 53.5938 381.184 53.8398 381.902 54.1445C382.621 54.4414 383.191 54.8477 383.613 55.3633C384.035 55.8711 384.246 56.5391 384.246 57.3672C384.246 57.9297 384.121 58.4453 383.871 58.9141C383.621 59.3828 383.262 59.793 382.793 60.1445C382.324 60.4883 381.762 60.7578 381.105 60.9531C380.457 61.1406 379.727 61.2344 378.914 61.2344C377.734 61.2344 376.734 61.0234 375.914 60.6016C375.102 60.1797 374.484 59.6445 374.062 58.9961C373.648 58.3398 373.441 57.668 373.441 56.9805H376.641C376.656 57.4414 376.773 57.8125 376.992 58.0938C377.219 58.375 377.504 58.5781 377.848 58.7031C378.199 58.8281 378.578 58.8906 378.984 58.8906C379.422 58.8906 379.785 58.832 380.074 58.7148C380.363 58.5898 380.582 58.4258 380.73 58.2227C380.887 58.0117 380.965 57.7695 380.965 57.4961Z" fill="#888888"/>
<path d="M109.219 107.422H100.734V101.07H109.219C110.375 101.07 111.312 100.875 112.031 100.484C112.75 100.094 113.273 99.5547 113.602 98.8672C113.945 98.1641 114.117 97.375 114.117 96.5C114.117 95.5625 113.945 94.6953 113.602 93.8984C113.273 93.1016 112.75 92.4609 112.031 91.9766C111.312 91.4766 110.375 91.2266 109.219 91.2266H103.828V119H95.6016V84.875H109.219C111.953 84.875 114.305 85.375 116.273 86.375C118.258 87.375 119.781 88.75 120.844 90.5C121.906 92.2344 122.438 94.2188 122.438 96.4531C122.438 98.6562 121.906 100.578 120.844 102.219C119.781 103.859 118.258 105.141 116.273 106.062C114.305 106.969 111.953 107.422 109.219 107.422ZM134.461 99.9219V119H126.562V93.6406H133.945L134.461 99.9219ZM141.961 93.4531L141.82 100.789C141.508 100.758 141.086 100.719 140.555 100.672C140.023 100.625 139.578 100.602 139.219 100.602C138.297 100.602 137.5 100.711 136.828 100.93C136.172 101.133 135.625 101.445 135.188 101.867C134.766 102.273 134.453 102.789 134.25 103.414C134.062 104.039 133.977 104.766 133.992 105.594L132.562 104.656C132.562 102.953 132.727 101.406 133.055 100.016C133.398 98.6094 133.883 97.3984 134.508 96.3828C135.133 95.3516 135.891 94.5625 136.781 94.0156C137.672 93.4531 138.672 93.1719 139.781 93.1719C140.172 93.1719 140.555 93.1953 140.93 93.2422C141.32 93.2891 141.664 93.3594 141.961 93.4531ZM142.852 106.578V106.086C142.852 104.227 143.117 102.516 143.648 100.953C144.18 99.375 144.961 98.0078 145.992 96.8516C147.023 95.6953 148.297 94.7969 149.812 94.1562C151.328 93.5 153.078 93.1719 155.062 93.1719C157.062 93.1719 158.82 93.5 160.336 94.1562C161.867 94.7969 163.148 95.6953 164.18 96.8516C165.211 98.0078 165.992 99.375 166.523 100.953C167.055 102.516 167.32 104.227 167.32 106.086V106.578C167.32 108.422 167.055 110.133 166.523 111.711C165.992 113.273 165.211 114.641 164.18 115.812C163.148 116.969 161.875 117.867 160.359 118.508C158.844 119.148 157.094 119.469 155.109 119.469C153.125 119.469 151.367 119.148 149.836 118.508C148.305 117.867 147.023 116.969 145.992 115.812C144.961 114.641 144.18 113.273 143.648 111.711C143.117 110.133 142.852 108.422 142.852 106.578ZM150.75 106.086V106.578C150.75 107.531 150.82 108.422 150.961 109.25C151.102 110.078 151.336 110.805 151.664 111.43C151.992 112.039 152.438 112.516 153 112.859C153.562 113.203 154.266 113.375 155.109 113.375C155.938 113.375 156.625 113.203 157.172 112.859C157.734 112.516 158.18 112.039 158.508 111.43C158.836 110.805 159.07 110.078 159.211 109.25C159.352 108.422 159.422 107.531 159.422 106.578V106.086C159.422 105.164 159.352 104.297 159.211 103.484C159.07 102.656 158.836 101.93 158.508 101.305C158.18 100.664 157.734 100.164 157.172 99.8047C156.609 99.4453 155.906 99.2656 155.062 99.2656C154.234 99.2656 153.539 99.4453 152.977 99.8047C152.43 100.164 151.992 100.664 151.664 101.305C151.336 101.93 151.102 102.656 150.961 103.484C150.82 104.297 150.75 105.164 150.75 106.086ZM171.422 93.6406H179.344V119.82C179.344 121.852 178.953 123.562 178.172 124.953C177.391 126.359 176.273 127.422 174.82 128.141C173.367 128.875 171.633 129.242 169.617 129.242C168.945 129.242 168.328 129.211 167.766 129.148C167.188 129.102 166.555 129 165.867 128.844V122.867C166.273 122.93 166.648 122.977 166.992 123.008C167.336 123.055 167.711 123.078 168.117 123.078C168.836 123.078 169.438 122.961 169.922 122.727C170.406 122.492 170.773 122.133 171.023 121.648C171.289 121.164 171.422 120.555 171.422 119.82V93.6406ZM170.836 87.1016C170.836 85.9766 171.242 85.0547 172.055 84.3359C172.867 83.6172 173.922 83.2578 175.219 83.2578C176.516 83.2578 177.57 83.6172 178.383 84.3359C179.195 85.0547 179.602 85.9766 179.602 87.1016C179.602 88.2266 179.195 89.1484 178.383 89.8672C177.57 90.5859 176.516 90.9453 175.219 90.9453C173.922 90.9453 172.867 90.5859 172.055 89.8672C171.242 89.1484 170.836 88.2266 170.836 87.1016ZM196.102 119.469C194.039 119.469 192.195 119.148 190.57 118.508C188.945 117.852 187.57 116.953 186.445 115.812C185.336 114.672 184.484 113.359 183.891 111.875C183.312 110.391 183.023 108.82 183.023 107.164V106.273C183.023 104.414 183.281 102.695 183.797 101.117C184.312 99.5234 185.078 98.1328 186.094 96.9453C187.109 95.7578 188.383 94.8359 189.914 94.1797C191.445 93.5078 193.227 93.1719 195.258 93.1719C197.055 93.1719 198.664 93.4609 200.086 94.0391C201.508 94.6172 202.711 95.4453 203.695 96.5234C204.695 97.6016 205.453 98.9062 205.969 100.438C206.5 101.969 206.766 103.688 206.766 105.594V108.805H186.047V103.859H199.055V103.25C199.07 102.406 198.922 101.688 198.609 101.094C198.312 100.5 197.875 100.047 197.297 99.7344C196.719 99.4219 196.016 99.2656 195.188 99.2656C194.328 99.2656 193.617 99.4531 193.055 99.8281C192.508 100.203 192.078 100.719 191.766 101.375C191.469 102.016 191.258 102.758 191.133 103.602C191.008 104.445 190.945 105.336 190.945 106.273V107.164C190.945 108.102 191.07 108.953 191.32 109.719C191.586 110.484 191.961 111.141 192.445 111.688C192.945 112.219 193.539 112.633 194.227 112.93C194.93 113.227 195.727 113.375 196.617 113.375C197.695 113.375 198.758 113.172 199.805 112.766C200.852 112.359 201.75 111.688 202.5 110.75L206.086 115.016C205.57 115.75 204.836 116.461 203.883 117.148C202.945 117.836 201.82 118.398 200.508 118.836C199.195 119.258 197.727 119.469 196.102 119.469ZM220.688 113.375C221.422 113.375 222.047 113.242 222.562 112.977C223.094 112.695 223.492 112.305 223.758 111.805C224.039 111.289 224.172 110.672 224.156 109.953H231.586C231.602 111.859 231.133 113.531 230.18 114.969C229.242 116.391 227.961 117.5 226.336 118.297C224.727 119.078 222.906 119.469 220.875 119.469C218.891 119.469 217.156 119.148 215.672 118.508C214.188 117.852 212.945 116.945 211.945 115.789C210.961 114.617 210.219 113.25 209.719 111.688C209.234 110.125 208.992 108.43 208.992 106.602V106.062C208.992 104.234 209.234 102.539 209.719 100.977C210.219 99.3984 210.961 98.0312 211.945 96.875C212.945 95.7031 214.18 94.7969 215.648 94.1562C217.133 93.5 218.859 93.1719 220.828 93.1719C222.938 93.1719 224.797 93.5703 226.406 94.3672C228.031 95.1641 229.305 96.3203 230.227 97.8359C231.148 99.3516 231.602 101.188 231.586 103.344H224.156C224.172 102.578 224.055 101.891 223.805 101.281C223.555 100.672 223.164 100.188 222.633 99.8281C222.117 99.4531 221.453 99.2656 220.641 99.2656C219.828 99.2656 219.172 99.4453 218.672 99.8047C218.172 100.164 217.789 100.664 217.523 101.305C217.273 101.93 217.102 102.648 217.008 103.461C216.93 104.273 216.891 105.141 216.891 106.062V106.602C216.891 107.539 216.93 108.422 217.008 109.25C217.102 110.062 217.281 110.781 217.547 111.406C217.812 112.016 218.195 112.5 218.695 112.859C219.195 113.203 219.859 113.375 220.688 113.375ZM248.32 93.6406V99.125H233.039V93.6406H248.32ZM236.25 87.3359H244.148V110.727C244.148 111.398 244.227 111.922 244.383 112.297C244.539 112.656 244.805 112.914 245.18 113.07C245.57 113.211 246.086 113.281 246.727 113.281C247.18 113.281 247.555 113.273 247.852 113.258C248.148 113.227 248.43 113.188 248.695 113.141V118.789C248.023 119.008 247.32 119.172 246.586 119.281C245.852 119.406 245.07 119.469 244.242 119.469C242.555 119.469 241.109 119.203 239.906 118.672C238.719 118.141 237.812 117.305 237.188 116.164C236.562 115.023 236.25 113.539 236.25 111.711V87.3359ZM277.406 107.422H268.922V101.07H277.406C278.562 101.07 279.5 100.875 280.219 100.484C280.938 100.094 281.461 99.5547 281.789 98.8672C282.133 98.1641 282.305 97.375 282.305 96.5C282.305 95.5625 282.133 94.6953 281.789 93.8984C281.461 93.1016 280.938 92.4609 280.219 91.9766C279.5 91.4766 278.562 91.2266 277.406 91.2266H272.016V119H263.789V84.875H277.406C280.141 84.875 282.492 85.375 284.461 86.375C286.445 87.375 287.969 88.75 289.031 90.5C290.094 92.2344 290.625 94.2188 290.625 96.4531C290.625 98.6562 290.094 100.578 289.031 102.219C287.969 103.859 286.445 105.141 284.461 106.062C282.492 106.969 280.141 107.422 277.406 107.422ZM302.414 83V119H294.516V83H302.414ZM301.477 105.453L299.625 105.5C299.625 103.719 299.844 102.078 300.281 100.578C300.719 99.0781 301.344 97.7734 302.156 96.6641C302.969 95.5547 303.945 94.6953 305.086 94.0859C306.227 93.4766 307.492 93.1719 308.883 93.1719C310.133 93.1719 311.273 93.3516 312.305 93.7109C313.352 94.0703 314.25 94.6484 315 95.4453C315.766 96.2422 316.352 97.2812 316.758 98.5625C317.18 99.8438 317.391 101.406 317.391 103.25V119H309.445V103.203C309.445 102.172 309.297 101.375 309 100.812C308.719 100.234 308.312 99.8359 307.781 99.6172C307.25 99.3828 306.602 99.2656 305.836 99.2656C304.914 99.2656 304.164 99.4219 303.586 99.7344C303.008 100.047 302.562 100.484 302.25 101.047C301.953 101.594 301.75 102.242 301.641 102.992C301.531 103.742 301.477 104.562 301.477 105.453ZM330.117 93.6406V119H322.195V93.6406H330.117ZM321.727 87.1016C321.727 85.9766 322.133 85.0547 322.945 84.3359C323.758 83.6172 324.812 83.2578 326.109 83.2578C327.406 83.2578 328.461 83.6172 329.273 84.3359C330.086 85.0547 330.492 85.9766 330.492 87.1016C330.492 88.2266 330.086 89.1484 329.273 89.8672C328.461 90.5859 327.406 90.9453 326.109 90.9453C324.812 90.9453 323.758 90.5859 322.945 89.8672C322.133 89.1484 321.727 88.2266 321.727 87.1016ZM343.336 83V119H335.414V83H343.336ZM347.227 106.578V106.086C347.227 104.227 347.492 102.516 348.023 100.953C348.555 99.375 349.336 98.0078 350.367 96.8516C351.398 95.6953 352.672 94.7969 354.188 94.1562C355.703 93.5 357.453 93.1719 359.438 93.1719C361.438 93.1719 363.195 93.5 364.711 94.1562C366.242 94.7969 367.523 95.6953 368.555 96.8516C369.586 98.0078 370.367 99.375 370.898 100.953C371.43 102.516 371.695 104.227 371.695 106.086V106.578C371.695 108.422 371.43 110.133 370.898 111.711C370.367 113.273 369.586 114.641 368.555 115.812C367.523 116.969 366.25 117.867 364.734 118.508C363.219 119.148 361.469 119.469 359.484 119.469C357.5 119.469 355.742 119.148 354.211 118.508C352.68 117.867 351.398 116.969 350.367 115.812C349.336 114.641 348.555 113.273 348.023 111.711C347.492 110.133 347.227 108.422 347.227 106.578ZM355.125 106.086V106.578C355.125 107.531 355.195 108.422 355.336 109.25C355.477 110.078 355.711 110.805 356.039 111.43C356.367 112.039 356.812 112.516 357.375 112.859C357.938 113.203 358.641 113.375 359.484 113.375C360.312 113.375 361 113.203 361.547 112.859C362.109 112.516 362.555 112.039 362.883 111.43C363.211 110.805 363.445 110.078 363.586 109.25C363.727 108.422 363.797 107.531 363.797 106.578V106.086C363.797 105.164 363.727 104.297 363.586 103.484C363.445 102.656 363.211 101.93 362.883 101.305C362.555 100.664 362.109 100.164 361.547 99.8047C360.984 99.4453 360.281 99.2656 359.438 99.2656C358.609 99.2656 357.914 99.4453 357.352 99.8047C356.805 100.164 356.367 100.664 356.039 101.305C355.711 101.93 355.477 102.656 355.336 103.484C355.195 104.297 355.125 105.164 355.125 106.086ZM388.5 111.875C388.5 111.438 388.352 111.062 388.055 110.75C387.773 110.422 387.273 110.125 386.555 109.859C385.836 109.578 384.828 109.297 383.531 109.016C382.297 108.75 381.133 108.398 380.039 107.961C378.961 107.523 378.016 106.992 377.203 106.367C376.391 105.742 375.75 105 375.281 104.141C374.828 103.281 374.602 102.297 374.602 101.188C374.602 100.109 374.828 99.0938 375.281 98.1406C375.75 97.1719 376.43 96.3203 377.32 95.5859C378.227 94.8359 379.328 94.25 380.625 93.8281C381.922 93.3906 383.398 93.1719 385.055 93.1719C387.336 93.1719 389.305 93.5234 390.961 94.2266C392.617 94.9141 393.891 95.8828 394.781 97.1328C395.688 98.3672 396.141 99.7969 396.141 101.422H388.242C388.242 100.781 388.133 100.234 387.914 99.7812C387.711 99.3281 387.375 98.9844 386.906 98.75C386.438 98.5 385.812 98.375 385.031 98.375C384.484 98.375 383.984 98.4766 383.531 98.6797C383.094 98.8828 382.742 99.1641 382.477 99.5234C382.211 99.8828 382.078 100.305 382.078 100.789C382.078 101.133 382.156 101.445 382.312 101.727C382.484 101.992 382.742 102.242 383.086 102.477C383.43 102.695 383.867 102.898 384.398 103.086C384.93 103.258 385.57 103.414 386.32 103.555C388.023 103.867 389.617 104.312 391.102 104.891C392.586 105.469 393.789 106.289 394.711 107.352C395.648 108.414 396.117 109.844 396.117 111.641C396.117 112.766 395.859 113.805 395.344 114.758C394.828 115.695 394.086 116.523 393.117 117.242C392.148 117.945 390.984 118.492 389.625 118.883C388.266 119.273 386.734 119.469 385.031 119.469C382.609 119.469 380.562 119.039 378.891 118.18C377.219 117.305 375.953 116.211 375.094 114.898C374.25 113.57 373.828 112.227 373.828 110.867H381.188C381.219 111.648 381.406 112.289 381.75 112.789C382.109 113.289 382.586 113.656 383.18 113.891C383.773 114.125 384.461 114.242 385.242 114.242C385.961 114.242 386.555 114.141 387.023 113.938C387.508 113.734 387.875 113.461 388.125 113.117C388.375 112.758 388.5 112.344 388.5 111.875ZM398.836 106.578V106.086C398.836 104.227 399.102 102.516 399.633 100.953C400.164 99.375 400.945 98.0078 401.977 96.8516C403.008 95.6953 404.281 94.7969 405.797 94.1562C407.312 93.5 409.062 93.1719 411.047 93.1719C413.047 93.1719 414.805 93.5 416.32 94.1562C417.852 94.7969 419.133 95.6953 420.164 96.8516C421.195 98.0078 421.977 99.375 422.508 100.953C423.039 102.516 423.305 104.227 423.305 106.086V106.578C423.305 108.422 423.039 110.133 422.508 111.711C421.977 113.273 421.195 114.641 420.164 115.812C419.133 116.969 417.859 117.867 416.344 118.508C414.828 119.148 413.078 119.469 411.094 119.469C409.109 119.469 407.352 119.148 405.82 118.508C404.289 117.867 403.008 116.969 401.977 115.812C400.945 114.641 400.164 113.273 399.633 111.711C399.102 110.133 398.836 108.422 398.836 106.578ZM406.734 106.086V106.578C406.734 107.531 406.805 108.422 406.945 109.25C407.086 110.078 407.32 110.805 407.648 111.43C407.977 112.039 408.422 112.516 408.984 112.859C409.547 113.203 410.25 113.375 411.094 113.375C411.922 113.375 412.609 113.203 413.156 112.859C413.719 112.516 414.164 112.039 414.492 111.43C414.82 110.805 415.055 110.078 415.195 109.25C415.336 108.422 415.406 107.531 415.406 106.578V106.086C415.406 105.164 415.336 104.297 415.195 103.484C415.055 102.656 414.82 101.93 414.492 101.305C414.164 100.664 413.719 100.164 413.156 99.8047C412.594 99.4453 411.891 99.2656 411.047 99.2656C410.219 99.2656 409.523 99.4453 408.961 99.8047C408.414 100.164 407.977 100.664 407.648 101.305C407.32 101.93 407.086 102.656 406.945 103.484C406.805 104.297 406.734 105.164 406.734 106.086ZM434.789 98.5156V128.75H426.891V93.6406H434.25L434.789 98.5156ZM450.352 106.016V106.508C450.352 108.352 450.141 110.062 449.719 111.641C449.297 113.219 448.672 114.594 447.844 115.766C447.016 116.938 445.984 117.852 444.75 118.508C443.531 119.148 442.117 119.469 440.508 119.469C438.992 119.469 437.688 119.133 436.594 118.461C435.5 117.789 434.586 116.859 433.852 115.672C433.117 114.484 432.523 113.125 432.07 111.594C431.617 110.062 431.258 108.445 430.992 106.742V106.109C431.258 104.281 431.617 102.586 432.07 101.023C432.523 99.4453 433.117 98.0703 433.852 96.8984C434.586 95.7266 435.492 94.8125 436.57 94.1562C437.664 93.5 438.969 93.1719 440.484 93.1719C442.094 93.1719 443.508 93.4766 444.727 94.0859C445.961 94.6953 446.992 95.5703 447.82 96.7109C448.664 97.8359 449.297 99.1875 449.719 100.766C450.141 102.344 450.352 104.094 450.352 106.016ZM442.453 106.508V106.016C442.453 105.031 442.383 104.133 442.242 103.32C442.102 102.492 441.875 101.773 441.562 101.164C441.266 100.555 440.867 100.086 440.367 99.7578C439.867 99.4297 439.25 99.2656 438.516 99.2656C437.672 99.2656 436.961 99.3984 436.383 99.6641C435.82 99.9141 435.367 100.305 435.023 100.836C434.695 101.352 434.461 102 434.32 102.781C434.195 103.547 434.141 104.445 434.156 105.477V107.398C434.125 108.586 434.242 109.633 434.508 110.539C434.773 111.43 435.234 112.125 435.891 112.625C436.547 113.125 437.438 113.375 438.562 113.375C439.312 113.375 439.938 113.203 440.438 112.859C440.938 112.5 441.336 112.008 441.633 111.383C441.93 110.742 442.141 110.008 442.266 109.18C442.391 108.352 442.453 107.461 442.453 106.508ZM461.602 83V119H453.703V83H461.602ZM460.664 105.453L458.812 105.5C458.812 103.719 459.031 102.078 459.469 100.578C459.906 99.0781 460.531 97.7734 461.344 96.6641C462.156 95.5547 463.133 94.6953 464.273 94.0859C465.414 93.4766 466.68 93.1719 468.07 93.1719C469.32 93.1719 470.461 93.3516 471.492 93.7109C472.539 94.0703 473.438 94.6484 474.188 95.4453C474.953 96.2422 475.539 97.2812 475.945 98.5625C476.367 99.8438 476.578 101.406 476.578 103.25V119H468.633V103.203C468.633 102.172 468.484 101.375 468.188 100.812C467.906 100.234 467.5 99.8359 466.969 99.6172C466.438 99.3828 465.789 99.2656 465.023 99.2656C464.102 99.2656 463.352 99.4219 462.773 99.7344C462.195 100.047 461.75 100.484 461.438 101.047C461.141 101.594 460.938 102.242 460.828 102.992C460.719 103.742 460.664 104.562 460.664 105.453ZM488.742 116.023L495.305 93.6406H503.789L493.594 122.773C493.375 123.414 493.086 124.102 492.727 124.836C492.367 125.586 491.875 126.297 491.25 126.969C490.625 127.641 489.82 128.188 488.836 128.609C487.867 129.031 486.664 129.242 485.227 129.242C484.461 129.242 483.898 129.203 483.539 129.125C483.195 129.062 482.664 128.945 481.945 128.773V123.125C482.148 123.125 482.32 123.125 482.461 123.125C482.617 123.125 482.789 123.125 482.977 123.125C483.82 123.125 484.492 123.039 484.992 122.867C485.508 122.695 485.898 122.445 486.164 122.117C486.445 121.789 486.664 121.391 486.82 120.922L488.742 116.023ZM487.078 93.6406L492.07 111.383L492.938 119.75H487.641L478.617 93.6406H487.078Z" fill="black"/>
<path d="M1134 0H1348C1356.28 0 1363 6.71573 1363 15V148C1363 156.284 1356.28 163 1348 163H1134V0Z" fill="#914B9D"/>
<path d="M1234.26 103.786H1262.74V109.357H1234.26V103.786ZM1239.96 114.929H1257.04V120.5H1239.96V114.929ZM1248.5 42.5C1240.95 42.5 1233.71 45.4349 1228.37 50.6592C1223.03 55.8834 1220.03 62.969 1220.03 70.3571C1219.84 74.4057 1220.63 78.4412 1222.34 82.1315C1224.05 85.8219 1226.64 89.0616 1229.88 91.5843C1232.73 94.175 1234.26 95.6514 1234.26 98.2143H1239.96C1239.96 93.0886 1236.8 90.2193 1233.72 87.4614C1231.06 85.4676 1228.94 82.8658 1227.55 79.8838C1226.15 76.9019 1225.53 73.6308 1225.72 70.3571C1225.72 64.4466 1228.12 58.7781 1232.39 54.5988C1236.67 50.4194 1242.46 48.0714 1248.5 48.0714C1254.54 48.0714 1260.33 50.4194 1264.61 54.5988C1268.88 58.7781 1271.28 64.4466 1271.28 70.3571C1271.47 73.6333 1270.84 76.9059 1269.44 79.888C1268.04 82.8701 1265.92 85.4706 1263.25 87.4614C1260.2 90.2471 1257.04 93.0329 1257.04 98.2143H1262.74C1262.74 95.6514 1264.25 94.175 1267.12 91.5564C1270.36 89.0381 1272.94 85.8031 1274.66 82.1176C1276.37 78.4321 1277.16 74.4014 1276.97 70.3571C1276.97 66.6989 1276.24 63.0765 1274.81 59.6967C1273.37 56.3169 1271.28 53.2459 1268.63 50.6592C1265.99 48.0724 1262.85 46.0205 1259.4 44.6205C1255.94 43.2205 1252.24 42.5 1248.5 42.5Z" fill="white"/>
</svg>
