<svg width="1363" height="163" viewBox="0 0 1363 163" fill="none" xmlns="http://www.w3.org/2000/svg">
<path d="M0 15C0 6.71573 6.71573 0 15 0H37V163H15C6.71573 163 0 156.284 0 148V15Z" fill="#424242"/>
<rect width="1097" height="163" transform="translate(37)" fill="#F0F0F0"/>
<path d="M101.906 53.9219L94.3945 51.2383V48.0859L104.602 52.375V54.6367L101.906 53.9219ZM94.3945 56.1719L101.918 53.4297L104.602 52.7852V55.0352L94.3945 59.3242V56.1719ZM121.781 56.5352C121.781 56.2305 121.734 55.957 121.641 55.7148C121.555 55.4648 121.391 55.2383 121.148 55.0352C120.906 54.8242 120.566 54.6172 120.129 54.4141C119.691 54.2109 119.125 54 118.43 53.7812C117.656 53.5312 116.922 53.25 116.227 52.9375C115.539 52.625 114.93 52.2617 114.398 51.8477C113.875 51.4258 113.461 50.9375 113.156 50.3828C112.859 49.8281 112.711 49.1836 112.711 48.4492C112.711 47.7383 112.867 47.0938 113.18 46.5156C113.492 45.9297 113.93 45.4297 114.492 45.0156C115.055 44.5938 115.719 44.2695 116.484 44.043C117.258 43.8164 118.105 43.7031 119.027 43.7031C120.285 43.7031 121.383 43.9297 122.32 44.3828C123.258 44.8359 123.984 45.457 124.5 46.2461C125.023 47.0352 125.285 47.9375 125.285 48.9531H121.793C121.793 48.4531 121.688 48.0156 121.477 47.6406C121.273 47.2578 120.961 46.957 120.539 46.7383C120.125 46.5195 119.602 46.4102 118.969 46.4102C118.359 46.4102 117.852 46.5039 117.445 46.6914C117.039 46.8711 116.734 47.1172 116.531 47.4297C116.328 47.7344 116.227 48.0781 116.227 48.4609C116.227 48.75 116.297 49.0117 116.438 49.2461C116.586 49.4805 116.805 49.6992 117.094 49.9023C117.383 50.1055 117.738 50.2969 118.16 50.4766C118.582 50.6562 119.07 50.832 119.625 51.0039C120.555 51.2852 121.371 51.6016 122.074 51.9531C122.785 52.3047 123.379 52.6992 123.855 53.1367C124.332 53.5742 124.691 54.0703 124.934 54.625C125.176 55.1797 125.297 55.8086 125.297 56.5117C125.297 57.2539 125.152 57.918 124.863 58.5039C124.574 59.0898 124.156 59.5859 123.609 59.9922C123.062 60.3984 122.41 60.707 121.652 60.918C120.895 61.1289 120.047 61.2344 119.109 61.2344C118.266 61.2344 117.434 61.125 116.613 60.9062C115.793 60.6797 115.047 60.3398 114.375 59.8867C113.711 59.4336 113.18 58.8555 112.781 58.1523C112.383 57.4492 112.184 56.6172 112.184 55.6562H115.711C115.711 56.1875 115.793 56.6367 115.957 57.0039C116.121 57.3711 116.352 57.668 116.648 57.8945C116.953 58.1211 117.312 58.2852 117.727 58.3867C118.148 58.4883 118.609 58.5391 119.109 58.5391C119.719 58.5391 120.219 58.4531 120.609 58.2812C121.008 58.1094 121.301 57.8711 121.488 57.5664C121.684 57.2617 121.781 56.918 121.781 56.5352ZM130.852 50.7578V65.875H127.477V48.3203H130.605L130.852 50.7578ZM138.879 54.5195V54.7656C138.879 55.6875 138.77 56.543 138.551 57.332C138.34 58.1211 138.027 58.8086 137.613 59.3945C137.199 59.9727 136.684 60.4258 136.066 60.7539C135.457 61.0742 134.754 61.2344 133.957 61.2344C133.184 61.2344 132.512 61.0781 131.941 60.7656C131.371 60.4531 130.891 60.0156 130.5 59.4531C130.117 58.8828 129.809 58.2227 129.574 57.4727C129.34 56.7227 129.16 55.918 129.035 55.0586V54.4141C129.16 53.4922 129.34 52.6484 129.574 51.8828C129.809 51.1094 130.117 50.4414 130.5 49.8789C130.891 49.3086 131.367 48.8672 131.93 48.5547C132.5 48.2422 133.168 48.0859 133.934 48.0859C134.738 48.0859 135.445 48.2383 136.055 48.543C136.672 48.8477 137.188 49.2852 137.602 49.8555C138.023 50.4258 138.34 51.1055 138.551 51.8945C138.77 52.6836 138.879 53.5586 138.879 54.5195ZM135.492 54.7656V54.5195C135.492 53.9805 135.445 53.4844 135.352 53.0312C135.266 52.5703 135.125 52.168 134.93 51.8242C134.742 51.4805 134.492 51.2148 134.18 51.0273C133.875 50.832 133.504 50.7344 133.066 50.7344C132.605 50.7344 132.211 50.8086 131.883 50.957C131.562 51.1055 131.301 51.3203 131.098 51.6016C130.895 51.8828 130.742 52.2188 130.641 52.6094C130.539 53 130.477 53.4414 130.453 53.9336V55.5625C130.492 56.1406 130.602 56.6602 130.781 57.1211C130.961 57.5742 131.238 57.9336 131.613 58.1992C131.988 58.4648 132.48 58.5977 133.09 58.5977C133.535 58.5977 133.91 58.5 134.215 58.3047C134.52 58.1016 134.766 57.8242 134.953 57.4727C135.148 57.1211 135.285 56.7148 135.363 56.2539C135.449 55.793 135.492 55.2969 135.492 54.7656ZM147.82 58.1406V52.4922C147.82 52.0859 147.754 51.7383 147.621 51.4492C147.488 51.1523 147.281 50.9219 147 50.7578C146.727 50.5938 146.371 50.5117 145.934 50.5117C145.559 50.5117 145.234 50.5781 144.961 50.7109C144.688 50.8359 144.477 51.0195 144.328 51.2617C144.18 51.4961 144.105 51.7734 144.105 52.0938H140.73C140.73 51.5547 140.855 51.043 141.105 50.5586C141.355 50.0742 141.719 49.6484 142.195 49.2812C142.672 48.9062 143.238 48.6133 143.895 48.4023C144.559 48.1914 145.301 48.0859 146.121 48.0859C147.105 48.0859 147.98 48.25 148.746 48.5781C149.512 48.9062 150.113 49.3984 150.551 50.0547C150.996 50.7109 151.219 51.5312 151.219 52.5156V57.9414C151.219 58.6367 151.262 59.207 151.348 59.6523C151.434 60.0898 151.559 60.4727 151.723 60.8008V61H148.312C148.148 60.6562 148.023 60.2266 147.938 59.7109C147.859 59.1875 147.82 58.6641 147.82 58.1406ZM148.266 53.2773L148.289 55.1875H146.402C145.957 55.1875 145.57 55.2383 145.242 55.3398C144.914 55.4414 144.645 55.5859 144.434 55.7734C144.223 55.9531 144.066 56.1641 143.965 56.4062C143.871 56.6484 143.824 56.9141 143.824 57.2031C143.824 57.4922 143.891 57.7539 144.023 57.9883C144.156 58.2148 144.348 58.3945 144.598 58.5273C144.848 58.6523 145.141 58.7148 145.477 58.7148C145.984 58.7148 146.426 58.6133 146.801 58.4102C147.176 58.207 147.465 57.957 147.668 57.6602C147.879 57.3633 147.988 57.082 147.996 56.8164L148.887 58.2461C148.762 58.5664 148.59 58.8984 148.371 59.2422C148.16 59.5859 147.891 59.9102 147.562 60.2148C147.234 60.5117 146.84 60.7578 146.379 60.9531C145.918 61.1406 145.371 61.2344 144.738 61.2344C143.934 61.2344 143.203 61.0742 142.547 60.7539C141.898 60.4258 141.383 59.9766 141 59.4062C140.625 58.8281 140.438 58.1719 140.438 57.4375C140.438 56.7734 140.562 56.1836 140.812 55.668C141.062 55.1523 141.43 54.7188 141.914 54.3672C142.406 54.0078 143.02 53.7383 143.754 53.5586C144.488 53.3711 145.34 53.2773 146.309 53.2773H148.266ZM159.059 58.5977C159.473 58.5977 159.84 58.5195 160.16 58.3633C160.48 58.1992 160.73 57.9727 160.91 57.6836C161.098 57.3867 161.195 57.0391 161.203 56.6406H164.379C164.371 57.5312 164.133 58.3242 163.664 59.0195C163.195 59.707 162.566 60.25 161.777 60.6484C160.988 61.0391 160.105 61.2344 159.129 61.2344C158.145 61.2344 157.285 61.0703 156.551 60.7422C155.824 60.4141 155.219 59.9609 154.734 59.3828C154.25 58.7969 153.887 58.1172 153.645 57.3438C153.402 56.5625 153.281 55.7266 153.281 54.8359V54.4961C153.281 53.5977 153.402 52.7617 153.645 51.9883C153.887 51.207 154.25 50.5273 154.734 49.9492C155.219 49.3633 155.824 48.9062 156.551 48.5781C157.277 48.25 158.129 48.0859 159.105 48.0859C160.145 48.0859 161.055 48.2852 161.836 48.6836C162.625 49.082 163.242 49.6523 163.688 50.3945C164.141 51.1289 164.371 52 164.379 53.0078H161.203C161.195 52.5859 161.105 52.2031 160.934 51.8594C160.77 51.5156 160.527 51.2422 160.207 51.0391C159.895 50.8281 159.508 50.7227 159.047 50.7227C158.555 50.7227 158.152 50.8281 157.84 51.0391C157.527 51.2422 157.285 51.5234 157.113 51.8828C156.941 52.2344 156.82 52.6367 156.75 53.0898C156.688 53.5352 156.656 54.0039 156.656 54.4961V54.8359C156.656 55.3281 156.688 55.8008 156.75 56.2539C156.812 56.707 156.93 57.1094 157.102 57.4609C157.281 57.8125 157.527 58.0898 157.84 58.293C158.152 58.4961 158.559 58.5977 159.059 58.5977ZM172.172 61.2344C171.188 61.2344 170.305 61.0781 169.523 60.7656C168.742 60.4453 168.078 60.0039 167.531 59.4414C166.992 58.8789 166.578 58.2266 166.289 57.4844C166 56.7344 165.855 55.9375 165.855 55.0938V54.625C165.855 53.6641 165.992 52.7852 166.266 51.9883C166.539 51.1914 166.93 50.5 167.438 49.9141C167.953 49.3281 168.578 48.8789 169.312 48.5664C170.047 48.2461 170.875 48.0859 171.797 48.0859C172.695 48.0859 173.492 48.2344 174.188 48.5312C174.883 48.8281 175.465 49.25 175.934 49.7969C176.41 50.3438 176.77 51 177.012 51.7656C177.254 52.5234 177.375 53.3672 177.375 54.2969V55.7031H167.297V53.4531H174.059V53.1953C174.059 52.7266 173.973 52.3086 173.801 51.9414C173.637 51.5664 173.387 51.2695 173.051 51.0508C172.715 50.832 172.285 50.7227 171.762 50.7227C171.316 50.7227 170.934 50.8203 170.613 51.0156C170.293 51.2109 170.031 51.4844 169.828 51.8359C169.633 52.1875 169.484 52.6016 169.383 53.0781C169.289 53.5469 169.242 54.0625 169.242 54.625V55.0938C169.242 55.6016 169.312 56.0703 169.453 56.5C169.602 56.9297 169.809 57.3008 170.074 57.6133C170.348 57.9258 170.676 58.168 171.059 58.3398C171.449 58.5117 171.891 58.5977 172.383 58.5977C172.992 58.5977 173.559 58.4805 174.082 58.2461C174.613 58.0039 175.07 57.6406 175.453 57.1562L177.094 58.9375C176.828 59.3203 176.465 59.6875 176.004 60.0391C175.551 60.3906 175.004 60.6797 174.363 60.9062C173.723 61.125 172.992 61.2344 172.172 61.2344ZM193.066 43.9375H196.043L200.426 56.4648L204.809 43.9375H207.785L201.621 61H199.23L193.066 43.9375ZM191.461 43.9375H194.426L194.965 56.1484V61H191.461V43.9375ZM206.426 43.9375H209.402V61H205.887V56.1484L206.426 43.9375ZM215.836 48.3203V61H212.449V48.3203H215.836ZM212.238 45.0156C212.238 44.5234 212.41 44.1172 212.754 43.7969C213.098 43.4766 213.559 43.3164 214.137 43.3164C214.707 43.3164 215.164 43.4766 215.508 43.7969C215.859 44.1172 216.035 44.5234 216.035 45.0156C216.035 45.5078 215.859 45.9141 215.508 46.2344C215.164 46.5547 214.707 46.7148 214.137 46.7148C213.559 46.7148 213.098 46.5547 212.754 46.2344C212.41 45.9141 212.238 45.5078 212.238 45.0156ZM225.48 57.4961C225.48 57.2539 225.41 57.0352 225.27 56.8398C225.129 56.6445 224.867 56.4648 224.484 56.3008C224.109 56.1289 223.566 55.9727 222.855 55.832C222.215 55.6914 221.617 55.5156 221.062 55.3047C220.516 55.0859 220.039 54.8242 219.633 54.5195C219.234 54.2148 218.922 53.8555 218.695 53.4414C218.469 53.0195 218.355 52.5391 218.355 52C218.355 51.4688 218.469 50.9688 218.695 50.5C218.93 50.0312 219.262 49.6172 219.691 49.2578C220.129 48.8906 220.66 48.6055 221.285 48.4023C221.918 48.1914 222.629 48.0859 223.418 48.0859C224.52 48.0859 225.465 48.2617 226.254 48.6133C227.051 48.9648 227.66 49.4492 228.082 50.0664C228.512 50.6758 228.727 51.3711 228.727 52.1523H225.352C225.352 51.8242 225.281 51.5312 225.141 51.2734C225.008 51.0078 224.797 50.8008 224.508 50.6523C224.227 50.4961 223.859 50.418 223.406 50.418C223.031 50.418 222.707 50.4844 222.434 50.6172C222.16 50.7422 221.949 50.9141 221.801 51.1328C221.66 51.3438 221.59 51.5781 221.59 51.8359C221.59 52.0312 221.629 52.207 221.707 52.3633C221.793 52.5117 221.93 52.6484 222.117 52.7734C222.305 52.8984 222.547 53.0156 222.844 53.125C223.148 53.2266 223.523 53.3203 223.969 53.4062C224.883 53.5938 225.699 53.8398 226.418 54.1445C227.137 54.4414 227.707 54.8477 228.129 55.3633C228.551 55.8711 228.762 56.5391 228.762 57.3672C228.762 57.9297 228.637 58.4453 228.387 58.9141C228.137 59.3828 227.777 59.793 227.309 60.1445C226.84 60.4883 226.277 60.7578 225.621 60.9531C224.973 61.1406 224.242 61.2344 223.43 61.2344C222.25 61.2344 221.25 61.0234 220.43 60.6016C219.617 60.1797 219 59.6445 218.578 58.9961C218.164 58.3398 217.957 57.668 217.957 56.9805H221.156C221.172 57.4414 221.289 57.8125 221.508 58.0938C221.734 58.375 222.02 58.5781 222.363 58.7031C222.715 58.8281 223.094 58.8906 223.5 58.8906C223.938 58.8906 224.301 58.832 224.59 58.7148C224.879 58.5898 225.098 58.4258 225.246 58.2227C225.402 58.0117 225.48 57.7695 225.48 57.4961ZM237.809 57.4961C237.809 57.2539 237.738 57.0352 237.598 56.8398C237.457 56.6445 237.195 56.4648 236.812 56.3008C236.438 56.1289 235.895 55.9727 235.184 55.832C234.543 55.6914 233.945 55.5156 233.391 55.3047C232.844 55.0859 232.367 54.8242 231.961 54.5195C231.562 54.2148 231.25 53.8555 231.023 53.4414C230.797 53.0195 230.684 52.5391 230.684 52C230.684 51.4688 230.797 50.9688 231.023 50.5C231.258 50.0312 231.59 49.6172 232.02 49.2578C232.457 48.8906 232.988 48.6055 233.613 48.4023C234.246 48.1914 234.957 48.0859 235.746 48.0859C236.848 48.0859 237.793 48.2617 238.582 48.6133C239.379 48.9648 239.988 49.4492 240.41 50.0664C240.84 50.6758 241.055 51.3711 241.055 52.1523H237.68C237.68 51.8242 237.609 51.5312 237.469 51.2734C237.336 51.0078 237.125 50.8008 236.836 50.6523C236.555 50.4961 236.188 50.418 235.734 50.418C235.359 50.418 235.035 50.4844 234.762 50.6172C234.488 50.7422 234.277 50.9141 234.129 51.1328C233.988 51.3438 233.918 51.5781 233.918 51.8359C233.918 52.0312 233.957 52.207 234.035 52.3633C234.121 52.5117 234.258 52.6484 234.445 52.7734C234.633 52.8984 234.875 53.0156 235.172 53.125C235.477 53.2266 235.852 53.3203 236.297 53.4062C237.211 53.5938 238.027 53.8398 238.746 54.1445C239.465 54.4414 240.035 54.8477 240.457 55.3633C240.879 55.8711 241.09 56.5391 241.09 57.3672C241.09 57.9297 240.965 58.4453 240.715 58.9141C240.465 59.3828 240.105 59.793 239.637 60.1445C239.168 60.4883 238.605 60.7578 237.949 60.9531C237.301 61.1406 236.57 61.2344 235.758 61.2344C234.578 61.2344 233.578 61.0234 232.758 60.6016C231.945 60.1797 231.328 59.6445 230.906 58.9961C230.492 58.3398 230.285 57.668 230.285 56.9805H233.484C233.5 57.4414 233.617 57.8125 233.836 58.0938C234.062 58.375 234.348 58.5781 234.691 58.7031C235.043 58.8281 235.422 58.8906 235.828 58.8906C236.266 58.8906 236.629 58.832 236.918 58.7148C237.207 58.5898 237.426 58.4258 237.574 58.2227C237.73 58.0117 237.809 57.7695 237.809 57.4961ZM246.844 48.3203V61H243.457V48.3203H246.844ZM243.246 45.0156C243.246 44.5234 243.418 44.1172 243.762 43.7969C244.105 43.4766 244.566 43.3164 245.145 43.3164C245.715 43.3164 246.172 43.4766 246.516 43.7969C246.867 44.1172 247.043 44.5234 247.043 45.0156C247.043 45.5078 246.867 45.9141 246.516 46.2344C246.172 46.5547 245.715 46.7148 245.145 46.7148C244.566 46.7148 244.105 46.5547 243.762 46.2344C243.418 45.9141 243.246 45.5078 243.246 45.0156ZM249.094 54.7891V54.543C249.094 53.6133 249.227 52.7578 249.492 51.9766C249.758 51.1875 250.145 50.5039 250.652 49.9258C251.16 49.3477 251.785 48.8984 252.527 48.5781C253.27 48.25 254.121 48.0859 255.082 48.0859C256.043 48.0859 256.898 48.25 257.648 48.5781C258.398 48.8984 259.027 49.3477 259.535 49.9258C260.051 50.5039 260.441 51.1875 260.707 51.9766C260.973 52.7578 261.105 53.6133 261.105 54.543V54.7891C261.105 55.7109 260.973 56.5664 260.707 57.3555C260.441 58.1367 260.051 58.8203 259.535 59.4062C259.027 59.9844 258.402 60.4336 257.66 60.7539C256.918 61.0742 256.066 61.2344 255.105 61.2344C254.145 61.2344 253.289 61.0742 252.539 60.7539C251.797 60.4336 251.168 59.9844 250.652 59.4062C250.145 58.8203 249.758 58.1367 249.492 57.3555C249.227 56.5664 249.094 55.7109 249.094 54.7891ZM252.469 54.543V54.7891C252.469 55.3203 252.516 55.8164 252.609 56.2773C252.703 56.7383 252.852 57.1445 253.055 57.4961C253.266 57.8398 253.539 58.1094 253.875 58.3047C254.211 58.5 254.621 58.5977 255.105 58.5977C255.574 58.5977 255.977 58.5 256.312 58.3047C256.648 58.1094 256.918 57.8398 257.121 57.4961C257.324 57.1445 257.473 56.7383 257.566 56.2773C257.668 55.8164 257.719 55.3203 257.719 54.7891V54.543C257.719 54.0273 257.668 53.543 257.566 53.0898C257.473 52.6289 257.32 52.2227 257.109 51.8711C256.906 51.5117 256.637 51.2305 256.301 51.0273C255.965 50.8242 255.559 50.7227 255.082 50.7227C254.605 50.7227 254.199 50.8242 253.863 51.0273C253.535 51.2305 253.266 51.5117 253.055 51.8711C252.852 52.2227 252.703 52.6289 252.609 53.0898C252.516 53.543 252.469 54.0273 252.469 54.543ZM266.484 51.0273V61H263.109V48.3203H266.273L266.484 51.0273ZM265.992 54.2148H265.078C265.078 53.2773 265.199 52.4336 265.441 51.6836C265.684 50.9258 266.023 50.2812 266.461 49.75C266.898 49.2109 267.418 48.8008 268.02 48.5195C268.629 48.2305 269.309 48.0859 270.059 48.0859C270.652 48.0859 271.195 48.1719 271.688 48.3438C272.18 48.5156 272.602 48.7891 272.953 49.1641C273.312 49.5391 273.586 50.0352 273.773 50.6523C273.969 51.2695 274.066 52.0234 274.066 52.9141V61H270.668V52.9023C270.668 52.3398 270.59 51.9023 270.434 51.5898C270.277 51.2773 270.047 51.0586 269.742 50.9336C269.445 50.8008 269.078 50.7344 268.641 50.7344C268.188 50.7344 267.793 50.8242 267.457 51.0039C267.129 51.1836 266.855 51.4336 266.637 51.7539C266.426 52.0664 266.266 52.4336 266.156 52.8555C266.047 53.2773 265.992 53.7305 265.992 54.2148ZM283.488 57.4961C283.488 57.2539 283.418 57.0352 283.277 56.8398C283.137 56.6445 282.875 56.4648 282.492 56.3008C282.117 56.1289 281.574 55.9727 280.863 55.832C280.223 55.6914 279.625 55.5156 279.07 55.3047C278.523 55.0859 278.047 54.8242 277.641 54.5195C277.242 54.2148 276.93 53.8555 276.703 53.4414C276.477 53.0195 276.363 52.5391 276.363 52C276.363 51.4688 276.477 50.9688 276.703 50.5C276.938 50.0312 277.27 49.6172 277.699 49.2578C278.137 48.8906 278.668 48.6055 279.293 48.4023C279.926 48.1914 280.637 48.0859 281.426 48.0859C282.527 48.0859 283.473 48.2617 284.262 48.6133C285.059 48.9648 285.668 49.4492 286.09 50.0664C286.52 50.6758 286.734 51.3711 286.734 52.1523H283.359C283.359 51.8242 283.289 51.5312 283.148 51.2734C283.016 51.0078 282.805 50.8008 282.516 50.6523C282.234 50.4961 281.867 50.418 281.414 50.418C281.039 50.418 280.715 50.4844 280.441 50.6172C280.168 50.7422 279.957 50.9141 279.809 51.1328C279.668 51.3438 279.598 51.5781 279.598 51.8359C279.598 52.0312 279.637 52.207 279.715 52.3633C279.801 52.5117 279.938 52.6484 280.125 52.7734C280.312 52.8984 280.555 53.0156 280.852 53.125C281.156 53.2266 281.531 53.3203 281.977 53.4062C282.891 53.5938 283.707 53.8398 284.426 54.1445C285.145 54.4414 285.715 54.8477 286.137 55.3633C286.559 55.8711 286.77 56.5391 286.77 57.3672C286.77 57.9297 286.645 58.4453 286.395 58.9141C286.145 59.3828 285.785 59.793 285.316 60.1445C284.848 60.4883 284.285 60.7578 283.629 60.9531C282.98 61.1406 282.25 61.2344 281.438 61.2344C280.258 61.2344 279.258 61.0234 278.438 60.6016C277.625 60.1797 277.008 59.6445 276.586 58.9961C276.172 58.3398 275.965 57.668 275.965 56.9805H279.164C279.18 57.4414 279.297 57.8125 279.516 58.0938C279.742 58.375 280.027 58.5781 280.371 58.7031C280.723 58.8281 281.102 58.8906 281.508 58.8906C281.945 58.8906 282.309 58.832 282.598 58.7148C282.887 58.5898 283.105 58.4258 283.254 58.2227C283.41 58.0117 283.488 57.7695 283.488 57.4961ZM302.086 46.8555L297.445 61H293.707L300.047 43.9375H302.426L302.086 46.8555ZM305.941 61L301.289 46.8555L300.914 43.9375H303.316L309.691 61H305.941ZM305.73 54.6484V57.4023H296.719V54.6484H305.73ZM313.992 51.0273V61H310.617V48.3203H313.781L313.992 51.0273ZM313.5 54.2148H312.586C312.586 53.2773 312.707 52.4336 312.949 51.6836C313.191 50.9258 313.531 50.2812 313.969 49.75C314.406 49.2109 314.926 48.8008 315.527 48.5195C316.137 48.2305 316.816 48.0859 317.566 48.0859C318.16 48.0859 318.703 48.1719 319.195 48.3438C319.688 48.5156 320.109 48.7891 320.461 49.1641C320.82 49.5391 321.094 50.0352 321.281 50.6523C321.477 51.2695 321.574 52.0234 321.574 52.9141V61H318.176V52.9023C318.176 52.3398 318.098 51.9023 317.941 51.5898C317.785 51.2773 317.555 51.0586 317.25 50.9336C316.953 50.8008 316.586 50.7344 316.148 50.7344C315.695 50.7344 315.301 50.8242 314.965 51.0039C314.637 51.1836 314.363 51.4336 314.145 51.7539C313.934 52.0664 313.773 52.4336 313.664 52.8555C313.555 53.2773 313.5 53.7305 313.5 54.2148ZM330.984 58.1406V52.4922C330.984 52.0859 330.918 51.7383 330.785 51.4492C330.652 51.1523 330.445 50.9219 330.164 50.7578C329.891 50.5938 329.535 50.5117 329.098 50.5117C328.723 50.5117 328.398 50.5781 328.125 50.7109C327.852 50.8359 327.641 51.0195 327.492 51.2617C327.344 51.4961 327.27 51.7734 327.27 52.0938H323.895C323.895 51.5547 324.02 51.043 324.27 50.5586C324.52 50.0742 324.883 49.6484 325.359 49.2812C325.836 48.9062 326.402 48.6133 327.059 48.4023C327.723 48.1914 328.465 48.0859 329.285 48.0859C330.27 48.0859 331.145 48.25 331.91 48.5781C332.676 48.9062 333.277 49.3984 333.715 50.0547C334.16 50.7109 334.383 51.5312 334.383 52.5156V57.9414C334.383 58.6367 334.426 59.207 334.512 59.6523C334.598 60.0898 334.723 60.4727 334.887 60.8008V61H331.477C331.312 60.6562 331.188 60.2266 331.102 59.7109C331.023 59.1875 330.984 58.6641 330.984 58.1406ZM331.43 53.2773L331.453 55.1875H329.566C329.121 55.1875 328.734 55.2383 328.406 55.3398C328.078 55.4414 327.809 55.5859 327.598 55.7734C327.387 55.9531 327.23 56.1641 327.129 56.4062C327.035 56.6484 326.988 56.9141 326.988 57.2031C326.988 57.4922 327.055 57.7539 327.188 57.9883C327.32 58.2148 327.512 58.3945 327.762 58.5273C328.012 58.6523 328.305 58.7148 328.641 58.7148C329.148 58.7148 329.59 58.6133 329.965 58.4102C330.34 58.207 330.629 57.957 330.832 57.6602C331.043 57.3633 331.152 57.082 331.16 56.8164L332.051 58.2461C331.926 58.5664 331.754 58.8984 331.535 59.2422C331.324 59.5859 331.055 59.9102 330.727 60.2148C330.398 60.5117 330.004 60.7578 329.543 60.9531C329.082 61.1406 328.535 61.2344 327.902 61.2344C327.098 61.2344 326.367 61.0742 325.711 60.7539C325.062 60.4258 324.547 59.9766 324.164 59.4062C323.789 58.8281 323.602 58.1719 323.602 57.4375C323.602 56.7734 323.727 56.1836 323.977 55.668C324.227 55.1523 324.594 54.7188 325.078 54.3672C325.57 54.0078 326.184 53.7383 326.918 53.5586C327.652 53.3711 328.504 53.2773 329.473 53.2773H331.43ZM340.547 43V61H337.16V43H340.547ZM347.098 59.5703L350.461 48.3203H354.082L348.984 62.9102C348.875 63.2305 348.727 63.5742 348.539 63.9414C348.359 64.3086 348.113 64.6562 347.801 64.9844C347.496 65.3203 347.109 65.5938 346.641 65.8047C346.18 66.0156 345.613 66.1211 344.941 66.1211C344.621 66.1211 344.359 66.1016 344.156 66.0625C343.953 66.0234 343.711 65.9688 343.43 65.8984V63.4258C343.516 63.4258 343.605 63.4258 343.699 63.4258C343.793 63.4336 343.883 63.4375 343.969 63.4375C344.414 63.4375 344.777 63.3867 345.059 63.2852C345.34 63.1836 345.566 63.0273 345.738 62.8164C345.91 62.6133 346.047 62.3477 346.148 62.0195L347.098 59.5703ZM345.691 48.3203L348.445 57.5078L348.926 61.082L346.629 61.3281L342.07 48.3203H345.691ZM362.285 57.4961C362.285 57.2539 362.215 57.0352 362.074 56.8398C361.934 56.6445 361.672 56.4648 361.289 56.3008C360.914 56.1289 360.371 55.9727 359.66 55.832C359.02 55.6914 358.422 55.5156 357.867 55.3047C357.32 55.0859 356.844 54.8242 356.438 54.5195C356.039 54.2148 355.727 53.8555 355.5 53.4414C355.273 53.0195 355.16 52.5391 355.16 52C355.16 51.4688 355.273 50.9688 355.5 50.5C355.734 50.0312 356.066 49.6172 356.496 49.2578C356.934 48.8906 357.465 48.6055 358.09 48.4023C358.723 48.1914 359.434 48.0859 360.223 48.0859C361.324 48.0859 362.27 48.2617 363.059 48.6133C363.855 48.9648 364.465 49.4492 364.887 50.0664C365.316 50.6758 365.531 51.3711 365.531 52.1523H362.156C362.156 51.8242 362.086 51.5312 361.945 51.2734C361.812 51.0078 361.602 50.8008 361.312 50.6523C361.031 50.4961 360.664 50.418 360.211 50.418C359.836 50.418 359.512 50.4844 359.238 50.6172C358.965 50.7422 358.754 50.9141 358.605 51.1328C358.465 51.3438 358.395 51.5781 358.395 51.8359C358.395 52.0312 358.434 52.207 358.512 52.3633C358.598 52.5117 358.734 52.6484 358.922 52.7734C359.109 52.8984 359.352 53.0156 359.648 53.125C359.953 53.2266 360.328 53.3203 360.773 53.4062C361.688 53.5938 362.504 53.8398 363.223 54.1445C363.941 54.4414 364.512 54.8477 364.934 55.3633C365.355 55.8711 365.566 56.5391 365.566 57.3672C365.566 57.9297 365.441 58.4453 365.191 58.9141C364.941 59.3828 364.582 59.793 364.113 60.1445C363.645 60.4883 363.082 60.7578 362.426 60.9531C361.777 61.1406 361.047 61.2344 360.234 61.2344C359.055 61.2344 358.055 61.0234 357.234 60.6016C356.422 60.1797 355.805 59.6445 355.383 58.9961C354.969 58.3398 354.762 57.668 354.762 56.9805H357.961C357.977 57.4414 358.094 57.8125 358.312 58.0938C358.539 58.375 358.824 58.5781 359.168 58.7031C359.52 58.8281 359.898 58.8906 360.305 58.8906C360.742 58.8906 361.105 58.832 361.395 58.7148C361.684 58.5898 361.902 58.4258 362.051 58.2227C362.207 58.0117 362.285 57.7695 362.285 57.4961ZM371.32 48.3203V61H367.934V48.3203H371.32ZM367.723 45.0156C367.723 44.5234 367.895 44.1172 368.238 43.7969C368.582 43.4766 369.043 43.3164 369.621 43.3164C370.191 43.3164 370.648 43.4766 370.992 43.7969C371.344 44.1172 371.52 44.5234 371.52 45.0156C371.52 45.5078 371.344 45.9141 370.992 46.2344C370.648 46.5547 370.191 46.7148 369.621 46.7148C369.043 46.7148 368.582 46.5547 368.238 46.2344C367.895 45.9141 367.723 45.5078 367.723 45.0156ZM380.965 57.4961C380.965 57.2539 380.895 57.0352 380.754 56.8398C380.613 56.6445 380.352 56.4648 379.969 56.3008C379.594 56.1289 379.051 55.9727 378.34 55.832C377.699 55.6914 377.102 55.5156 376.547 55.3047C376 55.0859 375.523 54.8242 375.117 54.5195C374.719 54.2148 374.406 53.8555 374.18 53.4414C373.953 53.0195 373.84 52.5391 373.84 52C373.84 51.4688 373.953 50.9688 374.18 50.5C374.414 50.0312 374.746 49.6172 375.176 49.2578C375.613 48.8906 376.145 48.6055 376.77 48.4023C377.402 48.1914 378.113 48.0859 378.902 48.0859C380.004 48.0859 380.949 48.2617 381.738 48.6133C382.535 48.9648 383.145 49.4492 383.566 50.0664C383.996 50.6758 384.211 51.3711 384.211 52.1523H380.836C380.836 51.8242 380.766 51.5312 380.625 51.2734C380.492 51.0078 380.281 50.8008 379.992 50.6523C379.711 50.4961 379.344 50.418 378.891 50.418C378.516 50.418 378.191 50.4844 377.918 50.6172C377.645 50.7422 377.434 50.9141 377.285 51.1328C377.145 51.3438 377.074 51.5781 377.074 51.8359C377.074 52.0312 377.113 52.207 377.191 52.3633C377.277 52.5117 377.414 52.6484 377.602 52.7734C377.789 52.8984 378.031 53.0156 378.328 53.125C378.633 53.2266 379.008 53.3203 379.453 53.4062C380.367 53.5938 381.184 53.8398 381.902 54.1445C382.621 54.4414 383.191 54.8477 383.613 55.3633C384.035 55.8711 384.246 56.5391 384.246 57.3672C384.246 57.9297 384.121 58.4453 383.871 58.9141C383.621 59.3828 383.262 59.793 382.793 60.1445C382.324 60.4883 381.762 60.7578 381.105 60.9531C380.457 61.1406 379.727 61.2344 378.914 61.2344C377.734 61.2344 376.734 61.0234 375.914 60.6016C375.102 60.1797 374.484 59.6445 374.062 58.9961C373.648 58.3398 373.441 57.668 373.441 56.9805H376.641C376.656 57.4414 376.773 57.8125 376.992 58.0938C377.219 58.375 377.504 58.5781 377.848 58.7031C378.199 58.8281 378.578 58.8906 378.984 58.8906C379.422 58.8906 379.785 58.832 380.074 58.7148C380.363 58.5898 380.582 58.4258 380.73 58.2227C380.887 58.0117 380.965 57.7695 380.965 57.4961Z" fill="#888888"/>
<path d="M108.516 110.961L115.617 84.875H124.828L113.32 119H107.367L108.516 110.961ZM102.07 84.875L109.172 110.961L110.367 119H104.344L92.9062 84.875H102.07ZM139.055 112.625V102.172C139.055 101.453 138.953 100.836 138.75 100.32C138.547 99.8047 138.227 99.4062 137.789 99.125C137.352 98.8281 136.766 98.6797 136.031 98.6797C135.438 98.6797 134.93 98.7812 134.508 98.9844C134.086 99.1875 133.766 99.4922 133.547 99.8984C133.328 100.305 133.219 100.82 133.219 101.445H125.32C125.32 100.273 125.578 99.1875 126.094 98.1875C126.625 97.1719 127.375 96.2891 128.344 95.5391C129.328 94.7891 130.5 94.2109 131.859 93.8047C133.234 93.3828 134.766 93.1719 136.453 93.1719C138.469 93.1719 140.266 93.5078 141.844 94.1797C143.438 94.8516 144.695 95.8594 145.617 97.2031C146.539 98.5312 147 100.203 147 102.219V112.602C147 114.258 147.094 115.516 147.281 116.375C147.469 117.219 147.734 117.961 148.078 118.602V119H140.156C139.781 118.219 139.5 117.266 139.312 116.141C139.141 115 139.055 113.828 139.055 112.625ZM140.016 103.508L140.062 107.727H136.57C135.836 107.727 135.211 107.828 134.695 108.031C134.195 108.234 133.789 108.516 133.477 108.875C133.18 109.219 132.961 109.609 132.82 110.047C132.695 110.484 132.633 110.945 132.633 111.43C132.633 111.898 132.742 112.32 132.961 112.695C133.195 113.055 133.508 113.336 133.898 113.539C134.289 113.742 134.727 113.844 135.211 113.844C136.086 113.844 136.828 113.68 137.438 113.352C138.062 113.008 138.539 112.594 138.867 112.109C139.195 111.625 139.359 111.172 139.359 110.75L141.094 113.984C140.781 114.609 140.422 115.242 140.016 115.883C139.625 116.523 139.133 117.117 138.539 117.664C137.961 118.195 137.25 118.633 136.406 118.977C135.562 119.305 134.539 119.469 133.336 119.469C131.773 119.469 130.336 119.148 129.023 118.508C127.727 117.867 126.688 116.977 125.906 115.836C125.125 114.68 124.734 113.352 124.734 111.852C124.734 110.539 124.969 109.367 125.438 108.336C125.922 107.305 126.648 106.43 127.617 105.711C128.586 104.992 129.82 104.445 131.32 104.07C132.82 103.695 134.586 103.508 136.617 103.508H140.016ZM159.727 83V119H151.805V83H159.727ZM172.945 93.6406V119H165.023V93.6406H172.945ZM164.555 87.1016C164.555 85.9766 164.961 85.0547 165.773 84.3359C166.586 83.6172 167.641 83.2578 168.938 83.2578C170.234 83.2578 171.289 83.6172 172.102 84.3359C172.914 85.0547 173.32 85.9766 173.32 87.1016C173.32 88.2266 172.914 89.1484 172.102 89.8672C171.289 90.5859 170.234 90.9453 168.938 90.9453C167.641 90.9453 166.586 90.5859 165.773 89.8672C164.961 89.1484 164.555 88.2266 164.555 87.1016ZM192.398 113.188V83H200.344V119H193.219L192.398 113.188ZM176.836 106.625V106.133C176.836 104.211 177.047 102.461 177.469 100.883C177.891 99.2891 178.516 97.9219 179.344 96.7812C180.172 95.625 181.203 94.7344 182.438 94.1094C183.672 93.4844 185.094 93.1719 186.703 93.1719C188.141 93.1719 189.398 93.5078 190.477 94.1797C191.555 94.8359 192.477 95.7578 193.242 96.9453C194.008 98.1328 194.633 99.5234 195.117 101.117C195.602 102.695 195.969 104.398 196.219 106.227V106.812C195.969 108.531 195.602 110.156 195.117 111.688C194.633 113.203 194.008 114.547 193.242 115.719C192.477 116.891 191.547 117.812 190.453 118.484C189.375 119.141 188.109 119.469 186.656 119.469C185.047 119.469 183.625 119.148 182.391 118.508C181.172 117.867 180.148 116.969 179.32 115.812C178.508 114.656 177.891 113.297 177.469 111.734C177.047 110.172 176.836 108.469 176.836 106.625ZM184.734 106.133V106.625C184.734 107.578 184.797 108.461 184.922 109.273C185.047 110.086 185.258 110.805 185.555 111.43C185.867 112.039 186.273 112.516 186.773 112.859C187.289 113.203 187.922 113.375 188.672 113.375C189.688 113.375 190.523 113.133 191.18 112.648C191.852 112.164 192.344 111.477 192.656 110.586C192.984 109.695 193.125 108.648 193.078 107.445V105.594C193.109 104.562 193.039 103.656 192.867 102.875C192.695 102.078 192.422 101.414 192.047 100.883C191.688 100.352 191.227 99.9531 190.664 99.6875C190.117 99.4062 189.469 99.2656 188.719 99.2656C187.984 99.2656 187.359 99.4375 186.844 99.7812C186.344 100.125 185.938 100.609 185.625 101.234C185.312 101.844 185.086 102.57 184.945 103.414C184.805 104.242 184.734 105.148 184.734 106.133ZM217.992 112.625V102.172C217.992 101.453 217.891 100.836 217.688 100.32C217.484 99.8047 217.164 99.4062 216.727 99.125C216.289 98.8281 215.703 98.6797 214.969 98.6797C214.375 98.6797 213.867 98.7812 213.445 98.9844C213.023 99.1875 212.703 99.4922 212.484 99.8984C212.266 100.305 212.156 100.82 212.156 101.445H204.258C204.258 100.273 204.516 99.1875 205.031 98.1875C205.562 97.1719 206.312 96.2891 207.281 95.5391C208.266 94.7891 209.438 94.2109 210.797 93.8047C212.172 93.3828 213.703 93.1719 215.391 93.1719C217.406 93.1719 219.203 93.5078 220.781 94.1797C222.375 94.8516 223.633 95.8594 224.555 97.2031C225.477 98.5312 225.938 100.203 225.938 102.219V112.602C225.938 114.258 226.031 115.516 226.219 116.375C226.406 117.219 226.672 117.961 227.016 118.602V119H219.094C218.719 118.219 218.438 117.266 218.25 116.141C218.078 115 217.992 113.828 217.992 112.625ZM218.953 103.508L219 107.727H215.508C214.773 107.727 214.148 107.828 213.633 108.031C213.133 108.234 212.727 108.516 212.414 108.875C212.117 109.219 211.898 109.609 211.758 110.047C211.633 110.484 211.57 110.945 211.57 111.43C211.57 111.898 211.68 112.32 211.898 112.695C212.133 113.055 212.445 113.336 212.836 113.539C213.227 113.742 213.664 113.844 214.148 113.844C215.023 113.844 215.766 113.68 216.375 113.352C217 113.008 217.477 112.594 217.805 112.109C218.133 111.625 218.297 111.172 218.297 110.75L220.031 113.984C219.719 114.609 219.359 115.242 218.953 115.883C218.562 116.523 218.07 117.117 217.477 117.664C216.898 118.195 216.188 118.633 215.344 118.977C214.5 119.305 213.477 119.469 212.273 119.469C210.711 119.469 209.273 119.148 207.961 118.508C206.664 117.867 205.625 116.977 204.844 115.836C204.062 114.68 203.672 113.352 203.672 111.852C203.672 110.539 203.906 109.367 204.375 108.336C204.859 107.305 205.586 106.43 206.555 105.711C207.523 104.992 208.758 104.445 210.258 104.07C211.758 103.695 213.523 103.508 215.555 103.508H218.953ZM243.68 93.6406V99.125H228.398V93.6406H243.68ZM231.609 87.3359H239.508V110.727C239.508 111.398 239.586 111.922 239.742 112.297C239.898 112.656 240.164 112.914 240.539 113.07C240.93 113.211 241.445 113.281 242.086 113.281C242.539 113.281 242.914 113.273 243.211 113.258C243.508 113.227 243.789 113.188 244.055 113.141V118.789C243.383 119.008 242.68 119.172 241.945 119.281C241.211 119.406 240.43 119.469 239.602 119.469C237.914 119.469 236.469 119.203 235.266 118.672C234.078 118.141 233.172 117.305 232.547 116.164C231.922 115.023 231.609 113.539 231.609 111.711V87.3359ZM255.164 93.6406V119H247.242V93.6406H255.164ZM246.773 87.1016C246.773 85.9766 247.18 85.0547 247.992 84.3359C248.805 83.6172 249.859 83.2578 251.156 83.2578C252.453 83.2578 253.508 83.6172 254.32 84.3359C255.133 85.0547 255.539 85.9766 255.539 87.1016C255.539 88.2266 255.133 89.1484 254.32 89.8672C253.508 90.5859 252.453 90.9453 251.156 90.9453C249.859 90.9453 248.805 90.5859 247.992 89.8672C247.18 89.1484 246.773 88.2266 246.773 87.1016ZM259.055 106.578V106.086C259.055 104.227 259.32 102.516 259.852 100.953C260.383 99.375 261.164 98.0078 262.195 96.8516C263.227 95.6953 264.5 94.7969 266.016 94.1562C267.531 93.5 269.281 93.1719 271.266 93.1719C273.266 93.1719 275.023 93.5 276.539 94.1562C278.07 94.7969 279.352 95.6953 280.383 96.8516C281.414 98.0078 282.195 99.375 282.727 100.953C283.258 102.516 283.523 104.227 283.523 106.086V106.578C283.523 108.422 283.258 110.133 282.727 111.711C282.195 113.273 281.414 114.641 280.383 115.812C279.352 116.969 278.078 117.867 276.562 118.508C275.047 119.148 273.297 119.469 271.312 119.469C269.328 119.469 267.57 119.148 266.039 118.508C264.508 117.867 263.227 116.969 262.195 115.812C261.164 114.641 260.383 113.273 259.852 111.711C259.32 110.133 259.055 108.422 259.055 106.578ZM266.953 106.086V106.578C266.953 107.531 267.023 108.422 267.164 109.25C267.305 110.078 267.539 110.805 267.867 111.43C268.195 112.039 268.641 112.516 269.203 112.859C269.766 113.203 270.469 113.375 271.312 113.375C272.141 113.375 272.828 113.203 273.375 112.859C273.938 112.516 274.383 112.039 274.711 111.43C275.039 110.805 275.273 110.078 275.414 109.25C275.555 108.422 275.625 107.531 275.625 106.578V106.086C275.625 105.164 275.555 104.297 275.414 103.484C275.273 102.656 275.039 101.93 274.711 101.305C274.383 100.664 273.938 100.164 273.375 99.8047C272.812 99.4453 272.109 99.2656 271.266 99.2656C270.438 99.2656 269.742 99.4453 269.18 99.8047C268.633 100.164 268.195 100.664 267.867 101.305C267.539 101.93 267.305 102.656 267.164 103.484C267.023 104.297 266.953 105.164 266.953 106.086ZM294.797 99.0547V119H286.898V93.6406H294.305L294.797 99.0547ZM293.859 105.453L292.008 105.5C292.008 103.562 292.242 101.836 292.711 100.32C293.18 98.7891 293.844 97.4922 294.703 96.4297C295.562 95.3672 296.586 94.5625 297.773 94.0156C298.977 93.4531 300.312 93.1719 301.781 93.1719C302.953 93.1719 304.023 93.3438 304.992 93.6875C305.977 94.0312 306.82 94.5859 307.523 95.3516C308.242 96.1172 308.789 97.1328 309.164 98.3984C309.555 99.6484 309.75 101.195 309.75 103.039V119H301.805V103.016C301.805 102 301.664 101.227 301.383 100.695C301.102 100.148 300.695 99.7734 300.164 99.5703C299.633 99.3672 298.984 99.2656 298.219 99.2656C297.406 99.2656 296.719 99.4219 296.156 99.7344C295.594 100.047 295.141 100.484 294.797 101.047C294.469 101.594 294.227 102.242 294.07 102.992C293.93 103.742 293.859 104.562 293.859 105.453Z" fill="black"/>
<path d="M1134 0H1348C1356.28 0 1363 6.71573 1363 15V148C1363 156.284 1356.28 163 1348 163H1134V0Z" fill="#914B9D"/>
<mask id="path-5-outside-1_3_82" maskUnits="userSpaceOnUse" x="1212.5" y="43.5" width="72" height="76" fill="black">
<rect fill="white" x="1212.5" y="43.5" width="72" height="76"/>
<path d="M1257.78 110.795L1258.17 117.033C1258.2 117.55 1257.82 118.005 1257.3 118.082C1255.41 118.359 1253.48 118.5 1251.56 118.5C1249.65 118.5 1247.72 118.359 1245.83 118.082C1245.3 118.005 1244.93 117.55 1244.96 117.033L1245.29 111.677C1241.26 110.891 1237.48 109.371 1234.05 107.148L1230.39 111.163C1230.04 111.55 1229.44 111.612 1229.01 111.305C1225.91 109.088 1223.19 106.436 1220.9 103.423C1220.59 103.006 1220.65 102.425 1221.05 102.081L1225.18 98.5235C1222.89 95.1861 1221.33 91.5191 1220.52 87.5987L1215.01 87.921C1214.48 87.9525 1214.01 87.5844 1213.93 87.0723C1213.64 85.2408 1213.5 83.3658 1213.5 81.4989C1213.5 79.6323 1213.64 77.7573 1213.93 75.9255C1214.01 75.4134 1214.48 75.037 1215.01 75.0768L1220.52 75.3991C1221.33 71.48 1222.89 67.8127 1225.18 64.4753L1221.05 60.9166C1220.65 60.5732 1220.59 59.9915 1220.9 59.5751C1223.18 56.565 1225.91 53.9132 1229.01 51.6928C1229.44 51.3858 1230.04 51.448 1230.39 51.8344L1234.05 55.8498C1237.51 53.619 1241.42 52.0541 1245.48 51.2839L1245.04 45.9743C1245 45.4495 1245.38 44.9818 1245.92 44.9043C1249.64 44.3652 1253.49 44.3652 1257.21 44.9043C1257.75 44.9818 1258.13 45.4496 1258.09 45.9743L1257.57 52.1893C1257.52 52.7401 1257.02 53.1503 1256.46 53.105C1255.89 53.0601 1255.47 52.5776 1255.52 52.0273L1255.96 46.7572C1253.05 46.4128 1250.08 46.4128 1247.17 46.7572L1247.61 52.0268C1247.66 52.546 1247.28 53.0109 1246.75 53.0949C1242.36 53.7915 1238.12 55.4843 1234.48 57.9899C1234.05 58.2849 1233.46 58.2181 1233.11 57.8373L1229.48 53.8537C1227.1 55.6511 1224.97 57.7247 1223.12 60.034L1227.22 63.565C1227.61 63.9035 1227.68 64.4749 1227.38 64.8912C1224.81 68.4236 1223.12 72.3693 1222.38 76.6188C1222.29 77.1218 1221.82 77.4795 1221.3 77.4485L1215.84 77.1288C1215.65 78.5723 1215.56 80.0384 1215.56 81.499C1215.56 82.9599 1215.65 84.4259 1215.84 85.8692L1221.3 85.5495C1221.82 85.5157 1222.29 85.8767 1222.38 86.3793C1223.12 90.6301 1224.81 94.5761 1227.38 98.1078C1227.68 98.5242 1227.61 99.0954 1227.22 99.434L1223.12 102.964C1224.97 105.276 1227.11 107.349 1229.48 109.144L1233.11 105.161C1233.46 104.779 1234.05 104.713 1234.48 105.008C1238.11 107.508 1242.17 109.143 1246.54 109.869C1247.06 109.955 1247.43 110.406 1247.4 110.915L1247.07 116.229C1250.04 116.589 1253.09 116.589 1256.06 116.229L1255.73 110.915C1255.7 110.363 1256.13 109.89 1256.7 109.857C1257.26 109.827 1257.75 110.244 1257.78 110.795ZM1279.87 67.5195C1281.52 67.5195 1282.86 68.8234 1282.86 70.4259C1282.86 72.0285 1281.52 73.3323 1279.87 73.3323C1279.49 73.3323 1279.13 73.2564 1278.8 73.131L1276 75.947C1275.8 76.142 1275.54 76.2524 1275.26 76.2524H1260.97C1260.4 76.2524 1259.94 75.8048 1259.94 75.2524C1259.94 74.7 1260.4 74.2524 1260.97 74.2524H1274.82L1277.25 71.8052C1277.02 71.3928 1276.88 70.9277 1276.88 70.4261C1276.88 68.8232 1278.22 67.5195 1279.87 67.5195ZM1278.93 70.4259C1278.93 70.9256 1279.35 71.3321 1279.87 71.3321C1280.38 71.3321 1280.8 70.9256 1280.8 70.4259C1280.8 69.9263 1280.38 69.5197 1279.87 69.5197C1279.35 69.5196 1278.93 69.9261 1278.93 70.4259ZM1268.7 64.8892L1272.51 59.5583C1272.12 59.0691 1271.89 58.4651 1271.89 57.8029C1271.89 56.2003 1273.23 54.8965 1274.87 54.8965C1276.52 54.8965 1277.86 56.2003 1277.86 57.8029C1277.86 59.4054 1276.52 60.7092 1274.87 60.7092C1274.66 60.7092 1274.45 60.6835 1274.24 60.6403L1270.08 66.4604C1269.89 66.729 1269.57 66.8895 1269.23 66.8895H1257.92C1257.35 66.8895 1256.89 66.4419 1256.89 65.8895C1256.89 65.3371 1257.35 64.8895 1257.92 64.8895H1268.7V64.8892ZM1273.94 57.8029C1273.94 58.3025 1274.36 58.7091 1274.87 58.7091C1275.39 58.7091 1275.81 58.3025 1275.81 57.8029C1275.81 57.3032 1275.39 56.8967 1274.87 56.8967C1274.36 56.8965 1273.94 57.3031 1273.94 57.8029ZM1277.62 105.196C1277.62 106.798 1276.28 108.102 1274.63 108.102C1272.98 108.102 1271.64 106.798 1271.64 105.196C1271.64 104.412 1271.96 103.703 1272.48 103.179L1268.69 97.8852H1257.92C1257.35 97.8852 1256.89 97.4376 1256.89 96.8852C1256.89 96.3328 1257.35 95.8852 1257.92 95.8852H1269.23C1269.57 95.8852 1269.89 96.0456 1270.08 96.3143L1274.37 102.315C1274.46 102.307 1274.54 102.289 1274.63 102.289C1276.28 102.289 1277.62 103.593 1277.62 105.196ZM1275.56 105.196C1275.56 104.696 1275.14 104.289 1274.63 104.289C1274.11 104.289 1273.69 104.696 1273.69 105.196C1273.69 105.695 1274.11 106.102 1274.63 106.102C1275.14 106.102 1275.56 105.695 1275.56 105.196ZM1282.61 92.8506C1282.61 94.4532 1281.27 95.757 1279.62 95.757C1277.97 95.757 1276.63 94.4532 1276.63 92.8506C1276.63 92.2267 1276.84 91.6518 1277.18 91.1777L1274.82 88.8004H1260.97C1260.4 88.8004 1259.94 88.3528 1259.94 87.8004C1259.94 87.248 1260.4 86.8004 1260.97 86.8004H1275.26C1275.54 86.8004 1275.8 86.9109 1276 87.1058L1278.91 90.0363C1279.14 89.9817 1279.37 89.9444 1279.62 89.9444C1281.27 89.9443 1282.61 91.2479 1282.61 92.8506ZM1280.55 92.8506C1280.55 92.351 1280.13 91.9444 1279.62 91.9444C1279.11 91.9444 1278.69 92.351 1278.69 92.8506C1278.69 93.3503 1279.11 93.7569 1279.62 93.7569C1280.13 93.7569 1280.55 93.3503 1280.55 92.8506ZM1283.5 81.5261C1283.5 83.1286 1282.16 84.4324 1280.51 84.4324C1279.22 84.4324 1278.14 83.6352 1277.71 82.5258H1255.16V100.204C1255.16 103.826 1252.13 106.773 1248.41 106.773C1245.68 106.773 1243.27 105.218 1242.21 102.835C1242.17 102.836 1242.13 102.837 1242.08 102.837C1238.36 102.837 1235.33 99.8896 1235.33 96.2674C1235.33 96.0939 1235.33 95.9203 1235.35 95.7475C1233.74 95.4353 1232.22 94.6326 1230.98 93.4249C1229.39 91.8756 1228.51 89.8161 1228.51 87.6253C1228.51 85.4345 1229.39 83.3749 1230.98 81.826C1231.1 81.7098 1231.23 81.6079 1231.36 81.4992C1231.23 81.3903 1231.1 81.2884 1230.98 81.1724C1229.39 79.6232 1228.51 77.5636 1228.51 75.3731C1228.51 73.1823 1229.39 71.1227 1230.98 69.5735C1232.22 68.3658 1233.74 67.563 1235.35 67.2509C1235.33 67.078 1235.33 66.9046 1235.33 66.731C1235.33 63.1085 1238.36 60.1615 1242.08 60.1615C1242.13 60.1615 1242.17 60.1618 1242.21 60.1628C1243.27 57.7799 1245.68 56.2252 1248.41 56.2252C1252.13 56.2252 1255.16 59.1721 1255.16 62.7944V80.5259H1277.71C1278.14 79.4168 1279.22 78.62 1280.51 78.62C1282.16 78.6198 1283.5 79.9235 1283.5 81.5261ZM1232.44 79.7581C1232.72 80.0356 1233.05 80.2792 1233.39 80.499H1253.11V62.7941C1253.11 60.2745 1251 58.225 1248.41 58.225C1246.68 58.225 1245.14 59.1203 1244.32 60.5297C1245.15 60.813 1245.92 61.2544 1246.59 61.8364C1246.6 61.8432 1246.6 61.8529 1246.61 61.8598C1246.99 61.6858 1247.42 61.5815 1247.87 61.5815C1249.51 61.5815 1250.86 62.8853 1250.86 64.4874C1250.86 66.09 1249.51 67.3938 1247.87 67.3938C1246.22 67.3938 1244.88 66.09 1244.88 64.4874C1244.88 64.0541 1244.98 63.6465 1245.16 63.2768C1244.3 62.5582 1243.22 62.1612 1242.08 62.1612C1239.49 62.1612 1237.38 64.2111 1237.38 66.7307C1237.38 66.8749 1237.4 67.0183 1237.41 67.1615C1238.63 67.284 1239.8 67.6579 1240.85 68.27C1241.31 67.9875 1241.85 67.8176 1242.43 67.8176C1244.08 67.8176 1245.42 69.1214 1245.42 70.7239C1245.42 72.3262 1244.08 73.6299 1242.43 73.6299C1240.78 73.6299 1239.44 72.3261 1239.44 70.7239C1239.44 70.43 1239.5 70.1516 1239.58 69.8839C1238.66 69.388 1237.63 69.1172 1236.55 69.1139C1235.06 69.1935 1233.6 69.857 1232.44 70.9873C1231.23 72.1588 1230.57 73.7162 1230.57 75.3728C1230.57 77.0293 1231.23 78.5866 1232.44 79.7581ZM1241.5 70.7241C1241.5 71.2237 1241.92 71.63 1242.43 71.63C1242.95 71.63 1243.36 71.2237 1243.36 70.7241C1243.36 70.2244 1242.95 69.8179 1242.43 69.8179C1241.92 69.8177 1241.5 70.2243 1241.5 70.7241ZM1247.87 65.3938C1248.38 65.3938 1248.8 64.9872 1248.8 64.4876C1248.8 63.9879 1248.38 63.5816 1247.87 63.5816C1247.35 63.5816 1246.93 63.9879 1246.93 64.4876C1246.93 64.9872 1247.35 65.3938 1247.87 65.3938ZM1253.11 100.204V82.499H1233.37C1233.03 82.7166 1232.72 82.9651 1232.44 83.2399C1231.23 84.4112 1230.57 85.9685 1230.57 87.6251C1230.57 89.2817 1231.23 90.8391 1232.44 92.0106C1233.6 93.1409 1235.06 93.8044 1236.55 93.884C1237.61 93.8807 1238.63 93.62 1239.54 93.1388C1239.48 92.9112 1239.44 92.6768 1239.44 92.4315C1239.44 90.8289 1240.78 89.5251 1242.43 89.5251C1244.08 89.5251 1245.42 90.8289 1245.42 92.4315C1245.42 94.0341 1244.08 95.3379 1242.43 95.3379C1241.79 95.3379 1241.2 95.1364 1240.71 94.8008C1239.7 95.3682 1238.58 95.7192 1237.41 95.8365C1237.4 95.9797 1237.38 96.1231 1237.38 96.2674C1237.38 98.787 1239.49 100.836 1242.08 100.836C1243.19 100.836 1244.26 100.455 1245.1 99.7652C1244.96 99.4261 1244.88 99.0564 1244.88 98.6677C1244.88 97.0652 1246.22 95.7614 1247.87 95.7614C1249.51 95.7614 1250.86 97.0652 1250.86 98.6677C1250.86 100.27 1249.51 101.574 1247.87 101.574C1247.37 101.574 1246.91 101.445 1246.5 101.236C1245.85 101.779 1245.11 102.198 1244.32 102.468C1245.14 103.878 1246.68 104.773 1248.41 104.773C1251 104.773 1253.11 102.724 1253.11 100.204ZM1247.87 99.5741C1248.38 99.5741 1248.8 99.1675 1248.8 98.6679C1248.8 98.1682 1248.38 97.7617 1247.87 97.7617C1247.35 97.7617 1246.93 98.1682 1246.93 98.6679C1246.93 99.1675 1247.35 99.5741 1247.87 99.5741ZM1242.43 93.3379C1242.95 93.3379 1243.36 92.9313 1243.36 92.4316C1243.36 91.932 1242.95 91.5254 1242.43 91.5254C1241.92 91.5254 1241.5 91.932 1241.5 92.4316C1241.5 92.5993 1241.55 92.7544 1241.63 92.8892C1241.65 92.9087 1241.67 92.9252 1241.68 92.9463C1241.7 92.9687 1241.71 92.9933 1241.73 93.0166C1241.9 93.2114 1242.15 93.3379 1242.43 93.3379ZM1281.44 81.5261C1281.44 81.0264 1281.02 80.6198 1280.51 80.6198C1280 80.6198 1279.58 81.0264 1279.58 81.5261C1279.58 82.0257 1280 82.4323 1280.51 82.4323C1281.02 82.4323 1281.44 82.0257 1281.44 81.5261Z"/>
</mask>
<path d="M1257.78 110.795L1258.17 117.033C1258.2 117.55 1257.82 118.005 1257.3 118.082C1255.41 118.359 1253.48 118.5 1251.56 118.5C1249.65 118.5 1247.72 118.359 1245.83 118.082C1245.3 118.005 1244.93 117.55 1244.96 117.033L1245.29 111.677C1241.26 110.891 1237.48 109.371 1234.05 107.148L1230.39 111.163C1230.04 111.55 1229.44 111.612 1229.01 111.305C1225.91 109.088 1223.19 106.436 1220.9 103.423C1220.59 103.006 1220.65 102.425 1221.05 102.081L1225.18 98.5235C1222.89 95.1861 1221.33 91.5191 1220.52 87.5987L1215.01 87.921C1214.48 87.9525 1214.01 87.5844 1213.93 87.0723C1213.64 85.2408 1213.5 83.3658 1213.5 81.4989C1213.5 79.6323 1213.64 77.7573 1213.93 75.9255C1214.01 75.4134 1214.48 75.037 1215.01 75.0768L1220.52 75.3991C1221.33 71.48 1222.89 67.8127 1225.18 64.4753L1221.05 60.9166C1220.65 60.5732 1220.59 59.9915 1220.9 59.5751C1223.18 56.565 1225.91 53.9132 1229.01 51.6928C1229.44 51.3858 1230.04 51.448 1230.39 51.8344L1234.05 55.8498C1237.51 53.619 1241.42 52.0541 1245.48 51.2839L1245.04 45.9743C1245 45.4495 1245.38 44.9818 1245.92 44.9043C1249.64 44.3652 1253.49 44.3652 1257.21 44.9043C1257.75 44.9818 1258.13 45.4496 1258.09 45.9743L1257.57 52.1893C1257.52 52.7401 1257.02 53.1503 1256.46 53.105C1255.89 53.0601 1255.47 52.5776 1255.52 52.0273L1255.96 46.7572C1253.05 46.4128 1250.08 46.4128 1247.17 46.7572L1247.61 52.0268C1247.66 52.546 1247.28 53.0109 1246.75 53.0949C1242.36 53.7915 1238.12 55.4843 1234.48 57.9899C1234.05 58.2849 1233.46 58.2181 1233.11 57.8373L1229.48 53.8537C1227.1 55.6511 1224.97 57.7247 1223.12 60.034L1227.22 63.565C1227.61 63.9035 1227.68 64.4749 1227.38 64.8912C1224.81 68.4236 1223.12 72.3693 1222.38 76.6188C1222.29 77.1218 1221.82 77.4795 1221.3 77.4485L1215.84 77.1288C1215.65 78.5723 1215.56 80.0384 1215.56 81.499C1215.56 82.9599 1215.65 84.4259 1215.84 85.8692L1221.3 85.5495C1221.82 85.5157 1222.29 85.8767 1222.38 86.3793C1223.12 90.6301 1224.81 94.5761 1227.38 98.1078C1227.68 98.5242 1227.61 99.0954 1227.22 99.434L1223.12 102.964C1224.97 105.276 1227.11 107.349 1229.48 109.144L1233.11 105.161C1233.46 104.779 1234.05 104.713 1234.48 105.008C1238.11 107.508 1242.17 109.143 1246.54 109.869C1247.06 109.955 1247.43 110.406 1247.4 110.915L1247.07 116.229C1250.04 116.589 1253.09 116.589 1256.06 116.229L1255.73 110.915C1255.7 110.363 1256.13 109.89 1256.7 109.857C1257.26 109.827 1257.75 110.244 1257.78 110.795ZM1279.87 67.5195C1281.52 67.5195 1282.86 68.8234 1282.86 70.4259C1282.86 72.0285 1281.52 73.3323 1279.87 73.3323C1279.49 73.3323 1279.13 73.2564 1278.8 73.131L1276 75.947C1275.8 76.142 1275.54 76.2524 1275.26 76.2524H1260.97C1260.4 76.2524 1259.94 75.8048 1259.94 75.2524C1259.94 74.7 1260.4 74.2524 1260.97 74.2524H1274.82L1277.25 71.8052C1277.02 71.3928 1276.88 70.9277 1276.88 70.4261C1276.88 68.8232 1278.22 67.5195 1279.87 67.5195ZM1278.93 70.4259C1278.93 70.9256 1279.35 71.3321 1279.87 71.3321C1280.38 71.3321 1280.8 70.9256 1280.8 70.4259C1280.8 69.9263 1280.38 69.5197 1279.87 69.5197C1279.35 69.5196 1278.93 69.9261 1278.93 70.4259ZM1268.7 64.8892L1272.51 59.5583C1272.12 59.0691 1271.89 58.4651 1271.89 57.8029C1271.89 56.2003 1273.23 54.8965 1274.87 54.8965C1276.52 54.8965 1277.86 56.2003 1277.86 57.8029C1277.86 59.4054 1276.52 60.7092 1274.87 60.7092C1274.66 60.7092 1274.45 60.6835 1274.24 60.6403L1270.08 66.4604C1269.89 66.729 1269.57 66.8895 1269.23 66.8895H1257.92C1257.35 66.8895 1256.89 66.4419 1256.89 65.8895C1256.89 65.3371 1257.35 64.8895 1257.92 64.8895H1268.7V64.8892ZM1273.94 57.8029C1273.94 58.3025 1274.36 58.7091 1274.87 58.7091C1275.39 58.7091 1275.81 58.3025 1275.81 57.8029C1275.81 57.3032 1275.39 56.8967 1274.87 56.8967C1274.36 56.8965 1273.94 57.3031 1273.94 57.8029ZM1277.62 105.196C1277.62 106.798 1276.28 108.102 1274.63 108.102C1272.98 108.102 1271.64 106.798 1271.64 105.196C1271.64 104.412 1271.96 103.703 1272.48 103.179L1268.69 97.8852H1257.92C1257.35 97.8852 1256.89 97.4376 1256.89 96.8852C1256.89 96.3328 1257.35 95.8852 1257.92 95.8852H1269.23C1269.57 95.8852 1269.89 96.0456 1270.08 96.3143L1274.37 102.315C1274.46 102.307 1274.54 102.289 1274.63 102.289C1276.28 102.289 1277.62 103.593 1277.62 105.196ZM1275.56 105.196C1275.56 104.696 1275.14 104.289 1274.63 104.289C1274.11 104.289 1273.69 104.696 1273.69 105.196C1273.69 105.695 1274.11 106.102 1274.63 106.102C1275.14 106.102 1275.56 105.695 1275.56 105.196ZM1282.61 92.8506C1282.61 94.4532 1281.27 95.757 1279.62 95.757C1277.97 95.757 1276.63 94.4532 1276.63 92.8506C1276.63 92.2267 1276.84 91.6518 1277.18 91.1777L1274.82 88.8004H1260.97C1260.4 88.8004 1259.94 88.3528 1259.94 87.8004C1259.94 87.248 1260.4 86.8004 1260.97 86.8004H1275.26C1275.54 86.8004 1275.8 86.9109 1276 87.1058L1278.91 90.0363C1279.14 89.9817 1279.37 89.9444 1279.62 89.9444C1281.27 89.9443 1282.61 91.2479 1282.61 92.8506ZM1280.55 92.8506C1280.55 92.351 1280.13 91.9444 1279.62 91.9444C1279.11 91.9444 1278.69 92.351 1278.69 92.8506C1278.69 93.3503 1279.11 93.7569 1279.62 93.7569C1280.13 93.7569 1280.55 93.3503 1280.55 92.8506ZM1283.5 81.5261C1283.5 83.1286 1282.16 84.4324 1280.51 84.4324C1279.22 84.4324 1278.14 83.6352 1277.71 82.5258H1255.16V100.204C1255.16 103.826 1252.13 106.773 1248.41 106.773C1245.68 106.773 1243.27 105.218 1242.21 102.835C1242.17 102.836 1242.13 102.837 1242.08 102.837C1238.36 102.837 1235.33 99.8896 1235.33 96.2674C1235.33 96.0939 1235.33 95.9203 1235.35 95.7475C1233.74 95.4353 1232.22 94.6326 1230.98 93.4249C1229.39 91.8756 1228.51 89.8161 1228.51 87.6253C1228.51 85.4345 1229.39 83.3749 1230.98 81.826C1231.1 81.7098 1231.23 81.6079 1231.36 81.4992C1231.23 81.3903 1231.1 81.2884 1230.98 81.1724C1229.39 79.6232 1228.51 77.5636 1228.51 75.3731C1228.51 73.1823 1229.39 71.1227 1230.98 69.5735C1232.22 68.3658 1233.74 67.563 1235.35 67.2509C1235.33 67.078 1235.33 66.9046 1235.33 66.731C1235.33 63.1085 1238.36 60.1615 1242.08 60.1615C1242.13 60.1615 1242.17 60.1618 1242.21 60.1628C1243.27 57.7799 1245.68 56.2252 1248.41 56.2252C1252.13 56.2252 1255.16 59.1721 1255.16 62.7944V80.5259H1277.71C1278.14 79.4168 1279.22 78.62 1280.51 78.62C1282.16 78.6198 1283.5 79.9235 1283.5 81.5261ZM1232.44 79.7581C1232.72 80.0356 1233.05 80.2792 1233.39 80.499H1253.11V62.7941C1253.11 60.2745 1251 58.225 1248.41 58.225C1246.68 58.225 1245.14 59.1203 1244.32 60.5297C1245.15 60.813 1245.92 61.2544 1246.59 61.8364C1246.6 61.8432 1246.6 61.8529 1246.61 61.8598C1246.99 61.6858 1247.42 61.5815 1247.87 61.5815C1249.51 61.5815 1250.86 62.8853 1250.86 64.4874C1250.86 66.09 1249.51 67.3938 1247.87 67.3938C1246.22 67.3938 1244.88 66.09 1244.88 64.4874C1244.88 64.0541 1244.98 63.6465 1245.16 63.2768C1244.3 62.5582 1243.22 62.1612 1242.08 62.1612C1239.49 62.1612 1237.38 64.2111 1237.38 66.7307C1237.38 66.8749 1237.4 67.0183 1237.41 67.1615C1238.63 67.284 1239.8 67.6579 1240.85 68.27C1241.31 67.9875 1241.85 67.8176 1242.43 67.8176C1244.08 67.8176 1245.42 69.1214 1245.42 70.7239C1245.42 72.3262 1244.08 73.6299 1242.43 73.6299C1240.78 73.6299 1239.44 72.3261 1239.44 70.7239C1239.44 70.43 1239.5 70.1516 1239.58 69.8839C1238.66 69.388 1237.63 69.1172 1236.55 69.1139C1235.06 69.1935 1233.6 69.857 1232.44 70.9873C1231.23 72.1588 1230.57 73.7162 1230.57 75.3728C1230.57 77.0293 1231.23 78.5866 1232.44 79.7581ZM1241.5 70.7241C1241.5 71.2237 1241.92 71.63 1242.43 71.63C1242.95 71.63 1243.36 71.2237 1243.36 70.7241C1243.36 70.2244 1242.95 69.8179 1242.43 69.8179C1241.92 69.8177 1241.5 70.2243 1241.5 70.7241ZM1247.87 65.3938C1248.38 65.3938 1248.8 64.9872 1248.8 64.4876C1248.8 63.9879 1248.38 63.5816 1247.87 63.5816C1247.35 63.5816 1246.93 63.9879 1246.93 64.4876C1246.93 64.9872 1247.35 65.3938 1247.87 65.3938ZM1253.11 100.204V82.499H1233.37C1233.03 82.7166 1232.72 82.9651 1232.44 83.2399C1231.23 84.4112 1230.57 85.9685 1230.57 87.6251C1230.57 89.2817 1231.23 90.8391 1232.44 92.0106C1233.6 93.1409 1235.06 93.8044 1236.55 93.884C1237.61 93.8807 1238.63 93.62 1239.54 93.1388C1239.48 92.9112 1239.44 92.6768 1239.44 92.4315C1239.44 90.8289 1240.78 89.5251 1242.43 89.5251C1244.08 89.5251 1245.42 90.8289 1245.42 92.4315C1245.42 94.0341 1244.08 95.3379 1242.43 95.3379C1241.79 95.3379 1241.2 95.1364 1240.71 94.8008C1239.7 95.3682 1238.58 95.7192 1237.41 95.8365C1237.4 95.9797 1237.38 96.1231 1237.38 96.2674C1237.38 98.787 1239.49 100.836 1242.08 100.836C1243.19 100.836 1244.26 100.455 1245.1 99.7652C1244.96 99.4261 1244.88 99.0564 1244.88 98.6677C1244.88 97.0652 1246.22 95.7614 1247.87 95.7614C1249.51 95.7614 1250.86 97.0652 1250.86 98.6677C1250.86 100.27 1249.51 101.574 1247.87 101.574C1247.37 101.574 1246.91 101.445 1246.5 101.236C1245.85 101.779 1245.11 102.198 1244.32 102.468C1245.14 103.878 1246.68 104.773 1248.41 104.773C1251 104.773 1253.11 102.724 1253.11 100.204ZM1247.87 99.5741C1248.38 99.5741 1248.8 99.1675 1248.8 98.6679C1248.8 98.1682 1248.38 97.7617 1247.87 97.7617C1247.35 97.7617 1246.93 98.1682 1246.93 98.6679C1246.93 99.1675 1247.35 99.5741 1247.87 99.5741ZM1242.43 93.3379C1242.95 93.3379 1243.36 92.9313 1243.36 92.4316C1243.36 91.932 1242.95 91.5254 1242.43 91.5254C1241.92 91.5254 1241.5 91.932 1241.5 92.4316C1241.5 92.5993 1241.55 92.7544 1241.63 92.8892C1241.65 92.9087 1241.67 92.9252 1241.68 92.9463C1241.7 92.9687 1241.71 92.9933 1241.73 93.0166C1241.9 93.2114 1242.15 93.3379 1242.43 93.3379ZM1281.44 81.5261C1281.44 81.0264 1281.02 80.6198 1280.51 80.6198C1280 80.6198 1279.58 81.0264 1279.58 81.5261C1279.58 82.0257 1280 82.4323 1280.51 82.4323C1281.02 82.4323 1281.44 82.0257 1281.44 81.5261Z" fill="white"/>
<path d="M1257.78 110.795L1258.17 117.033C1258.2 117.55 1257.82 118.005 1257.3 118.082C1255.41 118.359 1253.48 118.5 1251.56 118.5C1249.65 118.5 1247.72 118.359 1245.83 118.082C1245.3 118.005 1244.93 117.55 1244.96 117.033L1245.29 111.677C1241.26 110.891 1237.48 109.371 1234.05 107.148L1230.39 111.163C1230.04 111.55 1229.44 111.612 1229.01 111.305C1225.91 109.088 1223.19 106.436 1220.9 103.423C1220.59 103.006 1220.65 102.425 1221.05 102.081L1225.18 98.5235C1222.89 95.1861 1221.33 91.5191 1220.52 87.5987L1215.01 87.921C1214.48 87.9525 1214.01 87.5844 1213.93 87.0723C1213.64 85.2408 1213.5 83.3658 1213.5 81.4989C1213.5 79.6323 1213.64 77.7573 1213.93 75.9255C1214.01 75.4134 1214.48 75.037 1215.01 75.0768L1220.52 75.3991C1221.33 71.48 1222.89 67.8127 1225.18 64.4753L1221.05 60.9166C1220.65 60.5732 1220.59 59.9915 1220.9 59.5751C1223.18 56.565 1225.91 53.9132 1229.01 51.6928C1229.44 51.3858 1230.04 51.448 1230.39 51.8344L1234.05 55.8498C1237.51 53.619 1241.42 52.0541 1245.48 51.2839L1245.04 45.9743C1245 45.4495 1245.38 44.9818 1245.92 44.9043C1249.64 44.3652 1253.49 44.3652 1257.21 44.9043C1257.75 44.9818 1258.13 45.4496 1258.09 45.9743L1257.57 52.1893C1257.52 52.7401 1257.02 53.1503 1256.46 53.105C1255.89 53.0601 1255.47 52.5776 1255.52 52.0273L1255.96 46.7572C1253.05 46.4128 1250.08 46.4128 1247.17 46.7572L1247.61 52.0268C1247.66 52.546 1247.28 53.0109 1246.75 53.0949C1242.36 53.7915 1238.12 55.4843 1234.48 57.9899C1234.05 58.2849 1233.46 58.2181 1233.11 57.8373L1229.48 53.8537C1227.1 55.6511 1224.97 57.7247 1223.12 60.034L1227.22 63.565C1227.61 63.9035 1227.68 64.4749 1227.38 64.8912C1224.81 68.4236 1223.12 72.3693 1222.38 76.6188C1222.29 77.1218 1221.82 77.4795 1221.3 77.4485L1215.84 77.1288C1215.65 78.5723 1215.56 80.0384 1215.56 81.499C1215.56 82.9599 1215.65 84.4259 1215.84 85.8692L1221.3 85.5495C1221.82 85.5157 1222.29 85.8767 1222.38 86.3793C1223.12 90.6301 1224.81 94.5761 1227.38 98.1078C1227.68 98.5242 1227.61 99.0954 1227.22 99.434L1223.12 102.964C1224.97 105.276 1227.11 107.349 1229.48 109.144L1233.11 105.161C1233.46 104.779 1234.05 104.713 1234.48 105.008C1238.11 107.508 1242.17 109.143 1246.54 109.869C1247.06 109.955 1247.43 110.406 1247.4 110.915L1247.07 116.229C1250.04 116.589 1253.09 116.589 1256.06 116.229L1255.73 110.915C1255.7 110.363 1256.13 109.89 1256.7 109.857C1257.26 109.827 1257.75 110.244 1257.78 110.795ZM1279.87 67.5195C1281.52 67.5195 1282.86 68.8234 1282.86 70.4259C1282.86 72.0285 1281.52 73.3323 1279.87 73.3323C1279.49 73.3323 1279.13 73.2564 1278.8 73.131L1276 75.947C1275.8 76.142 1275.54 76.2524 1275.26 76.2524H1260.97C1260.4 76.2524 1259.94 75.8048 1259.94 75.2524C1259.94 74.7 1260.4 74.2524 1260.97 74.2524H1274.82L1277.25 71.8052C1277.02 71.3928 1276.88 70.9277 1276.88 70.4261C1276.88 68.8232 1278.22 67.5195 1279.87 67.5195ZM1278.93 70.4259C1278.93 70.9256 1279.35 71.3321 1279.87 71.3321C1280.38 71.3321 1280.8 70.9256 1280.8 70.4259C1280.8 69.9263 1280.38 69.5197 1279.87 69.5197C1279.35 69.5196 1278.93 69.9261 1278.93 70.4259ZM1268.7 64.8892L1272.51 59.5583C1272.12 59.0691 1271.89 58.4651 1271.89 57.8029C1271.89 56.2003 1273.23 54.8965 1274.87 54.8965C1276.52 54.8965 1277.86 56.2003 1277.86 57.8029C1277.86 59.4054 1276.52 60.7092 1274.87 60.7092C1274.66 60.7092 1274.45 60.6835 1274.24 60.6403L1270.08 66.4604C1269.89 66.729 1269.57 66.8895 1269.23 66.8895H1257.92C1257.35 66.8895 1256.89 66.4419 1256.89 65.8895C1256.89 65.3371 1257.35 64.8895 1257.92 64.8895H1268.7V64.8892ZM1273.94 57.8029C1273.94 58.3025 1274.36 58.7091 1274.87 58.7091C1275.39 58.7091 1275.81 58.3025 1275.81 57.8029C1275.81 57.3032 1275.39 56.8967 1274.87 56.8967C1274.36 56.8965 1273.94 57.3031 1273.94 57.8029ZM1277.62 105.196C1277.62 106.798 1276.28 108.102 1274.63 108.102C1272.98 108.102 1271.64 106.798 1271.64 105.196C1271.64 104.412 1271.96 103.703 1272.48 103.179L1268.69 97.8852H1257.92C1257.35 97.8852 1256.89 97.4376 1256.89 96.8852C1256.89 96.3328 1257.35 95.8852 1257.92 95.8852H1269.23C1269.57 95.8852 1269.89 96.0456 1270.08 96.3143L1274.37 102.315C1274.46 102.307 1274.54 102.289 1274.63 102.289C1276.28 102.289 1277.62 103.593 1277.62 105.196ZM1275.56 105.196C1275.56 104.696 1275.14 104.289 1274.63 104.289C1274.11 104.289 1273.69 104.696 1273.69 105.196C1273.69 105.695 1274.11 106.102 1274.63 106.102C1275.14 106.102 1275.56 105.695 1275.56 105.196ZM1282.61 92.8506C1282.61 94.4532 1281.27 95.757 1279.62 95.757C1277.97 95.757 1276.63 94.4532 1276.63 92.8506C1276.63 92.2267 1276.84 91.6518 1277.18 91.1777L1274.82 88.8004H1260.97C1260.4 88.8004 1259.94 88.3528 1259.94 87.8004C1259.94 87.248 1260.4 86.8004 1260.97 86.8004H1275.26C1275.54 86.8004 1275.8 86.9109 1276 87.1058L1278.91 90.0363C1279.14 89.9817 1279.37 89.9444 1279.62 89.9444C1281.27 89.9443 1282.61 91.2479 1282.61 92.8506ZM1280.55 92.8506C1280.55 92.351 1280.13 91.9444 1279.62 91.9444C1279.11 91.9444 1278.69 92.351 1278.69 92.8506C1278.69 93.3503 1279.11 93.7569 1279.62 93.7569C1280.13 93.7569 1280.55 93.3503 1280.55 92.8506ZM1283.5 81.5261C1283.5 83.1286 1282.16 84.4324 1280.51 84.4324C1279.22 84.4324 1278.14 83.6352 1277.71 82.5258H1255.16V100.204C1255.16 103.826 1252.13 106.773 1248.41 106.773C1245.68 106.773 1243.27 105.218 1242.21 102.835C1242.17 102.836 1242.13 102.837 1242.08 102.837C1238.36 102.837 1235.33 99.8896 1235.33 96.2674C1235.33 96.0939 1235.33 95.9203 1235.35 95.7475C1233.74 95.4353 1232.22 94.6326 1230.98 93.4249C1229.39 91.8756 1228.51 89.8161 1228.51 87.6253C1228.51 85.4345 1229.39 83.3749 1230.98 81.826C1231.1 81.7098 1231.23 81.6079 1231.36 81.4992C1231.23 81.3903 1231.1 81.2884 1230.98 81.1724C1229.39 79.6232 1228.51 77.5636 1228.51 75.3731C1228.51 73.1823 1229.39 71.1227 1230.98 69.5735C1232.22 68.3658 1233.74 67.563 1235.35 67.2509C1235.33 67.078 1235.33 66.9046 1235.33 66.731C1235.33 63.1085 1238.36 60.1615 1242.08 60.1615C1242.13 60.1615 1242.17 60.1618 1242.21 60.1628C1243.27 57.7799 1245.68 56.2252 1248.41 56.2252C1252.13 56.2252 1255.16 59.1721 1255.16 62.7944V80.5259H1277.71C1278.14 79.4168 1279.22 78.62 1280.51 78.62C1282.16 78.6198 1283.5 79.9235 1283.5 81.5261ZM1232.44 79.7581C1232.72 80.0356 1233.05 80.2792 1233.39 80.499H1253.11V62.7941C1253.11 60.2745 1251 58.225 1248.41 58.225C1246.68 58.225 1245.14 59.1203 1244.32 60.5297C1245.15 60.813 1245.92 61.2544 1246.59 61.8364C1246.6 61.8432 1246.6 61.8529 1246.61 61.8598C1246.99 61.6858 1247.42 61.5815 1247.87 61.5815C1249.51 61.5815 1250.86 62.8853 1250.86 64.4874C1250.86 66.09 1249.51 67.3938 1247.87 67.3938C1246.22 67.3938 1244.88 66.09 1244.88 64.4874C1244.88 64.0541 1244.98 63.6465 1245.16 63.2768C1244.3 62.5582 1243.22 62.1612 1242.08 62.1612C1239.49 62.1612 1237.38 64.2111 1237.38 66.7307C1237.38 66.8749 1237.4 67.0183 1237.41 67.1615C1238.63 67.284 1239.8 67.6579 1240.85 68.27C1241.31 67.9875 1241.85 67.8176 1242.43 67.8176C1244.08 67.8176 1245.42 69.1214 1245.42 70.7239C1245.42 72.3262 1244.08 73.6299 1242.43 73.6299C1240.78 73.6299 1239.44 72.3261 1239.44 70.7239C1239.44 70.43 1239.5 70.1516 1239.58 69.8839C1238.66 69.388 1237.63 69.1172 1236.55 69.1139C1235.06 69.1935 1233.6 69.857 1232.44 70.9873C1231.23 72.1588 1230.57 73.7162 1230.57 75.3728C1230.57 77.0293 1231.23 78.5866 1232.44 79.7581ZM1241.5 70.7241C1241.5 71.2237 1241.92 71.63 1242.43 71.63C1242.95 71.63 1243.36 71.2237 1243.36 70.7241C1243.36 70.2244 1242.95 69.8179 1242.43 69.8179C1241.92 69.8177 1241.5 70.2243 1241.5 70.7241ZM1247.87 65.3938C1248.38 65.3938 1248.8 64.9872 1248.8 64.4876C1248.8 63.9879 1248.38 63.5816 1247.87 63.5816C1247.35 63.5816 1246.93 63.9879 1246.93 64.4876C1246.93 64.9872 1247.35 65.3938 1247.87 65.3938ZM1253.11 100.204V82.499H1233.37C1233.03 82.7166 1232.72 82.9651 1232.44 83.2399C1231.23 84.4112 1230.57 85.9685 1230.57 87.6251C1230.57 89.2817 1231.23 90.8391 1232.44 92.0106C1233.6 93.1409 1235.06 93.8044 1236.55 93.884C1237.61 93.8807 1238.63 93.62 1239.54 93.1388C1239.48 92.9112 1239.44 92.6768 1239.44 92.4315C1239.44 90.8289 1240.78 89.5251 1242.43 89.5251C1244.08 89.5251 1245.42 90.8289 1245.42 92.4315C1245.42 94.0341 1244.08 95.3379 1242.43 95.3379C1241.79 95.3379 1241.2 95.1364 1240.71 94.8008C1239.7 95.3682 1238.58 95.7192 1237.41 95.8365C1237.4 95.9797 1237.38 96.1231 1237.38 96.2674C1237.38 98.787 1239.49 100.836 1242.08 100.836C1243.19 100.836 1244.26 100.455 1245.1 99.7652C1244.96 99.4261 1244.88 99.0564 1244.88 98.6677C1244.88 97.0652 1246.22 95.7614 1247.87 95.7614C1249.51 95.7614 1250.86 97.0652 1250.86 98.6677C1250.86 100.27 1249.51 101.574 1247.87 101.574C1247.37 101.574 1246.91 101.445 1246.5 101.236C1245.85 101.779 1245.11 102.198 1244.32 102.468C1245.14 103.878 1246.68 104.773 1248.41 104.773C1251 104.773 1253.11 102.724 1253.11 100.204ZM1247.87 99.5741C1248.38 99.5741 1248.8 99.1675 1248.8 98.6679C1248.8 98.1682 1248.38 97.7617 1247.87 97.7617C1247.35 97.7617 1246.93 98.1682 1246.93 98.6679C1246.93 99.1675 1247.35 99.5741 1247.87 99.5741ZM1242.43 93.3379C1242.95 93.3379 1243.36 92.9313 1243.36 92.4316C1243.36 91.932 1242.95 91.5254 1242.43 91.5254C1241.92 91.5254 1241.5 91.932 1241.5 92.4316C1241.5 92.5993 1241.55 92.7544 1241.63 92.8892C1241.65 92.9087 1241.67 92.9252 1241.68 92.9463C1241.7 92.9687 1241.71 92.9933 1241.73 93.0166C1241.9 93.2114 1242.15 93.3379 1242.43 93.3379ZM1281.44 81.5261C1281.44 81.0264 1281.02 80.6198 1280.51 80.6198C1280 80.6198 1279.58 81.0264 1279.58 81.5261C1279.58 82.0257 1280 82.4323 1280.51 82.4323C1281.02 82.4323 1281.44 82.0257 1281.44 81.5261Z" stroke="white" mask="url(#path-5-outside-1_3_82)"/>
</svg>
